<svg id="Layer_1" data-name="Layer 1" xmlns="http://www.w3.org/2000/svg" viewBox="0 0 650.79 512"><defs><style>.cls-1{opacity:0.3;}.cls-2{fill:#585858;}.cls-3{fill:#d9d9d9;}.cls-4{fill:#bebebe;}.cls-5{fill:#fff;}.cls-6{fill:#a2a2a2;}.cls-7{fill:#8e8e8e;}.cls-8{fill:#bcbcbc;}.cls-9{fill:#7c7c7c;}.cls-10{fill:#0040ff;}.cls-11{fill:#cfdce5;}.cls-12{fill:#aec4ce;}.cls-13{fill:#94a7af;}.cls-14{fill:#0049ff;}.cls-15{fill:#aac1ce;}.cls-16{fill:#415e72;}</style></defs><title>Zeichenfläche 1</title><g class="cls-1"><path class="cls-2" d="M434.37,89.63,426.14,31.7a1.93,1.93,0,0,1,1.62-2.13l89-12.64a1.93,1.93,0,0,1,2.15,1.59l8.23,57.93Z"/><path class="cls-3" d="M527.11,76.45l1.06,7.44A1.93,1.93,0,0,1,526.55,86l-89,12.64a1.93,1.93,0,0,1-2.15-1.59l-1.06-7.44Z"/><rect class="cls-3" x="464.01" y="105.48" width="40.11" height="1.88" transform="translate(-10.16 69.16) rotate(-8.09)"/><polygon class="cls-4" points="497.12 103.62 470.74 107.37 470.76 93.94 493.37 90.73 497.12 103.62"/><rect class="cls-5" x="433.46" y="26.71" width="86.07" height="52.87" transform="translate(-2.74 67.56) rotate(-8.09)"/><polygon class="cls-6" points="493.37 90.73 470.76 93.94 470.75 101.43 494.04 93.04 493.37 90.73"/><rect class="cls-7" x="489.4" y="40.8" width="5.43" height="1.44" transform="translate(-0.95 69.64) rotate(-8.09)"/><rect class="cls-8" x="475.97" y="42.71" width="5.43" height="1.44" transform="translate(-1.35 67.77) rotate(-8.09)"/><rect class="cls-9" x="454.82" y="45.38" width="10.2" height="1.44" transform="translate(-1.91 65.16) rotate(-8.09)"/><rect class="cls-9" x="495.75" y="58.11" width="5.43" height="1.44" transform="translate(-3.32 70.71) rotate(-8.09)"/><rect class="cls-7" x="482.32" y="60.02" width="5.43" height="1.44" transform="translate(-3.72 68.84) rotate(-8.09)"/><rect class="cls-9" x="458.09" y="62.69" width="16.28" height="1.44" transform="translate(-4.28 66.22) rotate(-8.09)"/><rect class="cls-2" x="485.96" y="46.78" width="13.57" height="1.44" transform="translate(-1.78 69.79) rotate(-8.09)"/><rect class="cls-9" x="475.25" y="48.88" width="5.43" height="1.44" transform="translate(-2.23 67.73) rotate(-8.09)"/><rect class="cls-8" x="457.9" y="50.88" width="12.06" height="1.44" transform="translate(-2.65 65.78) rotate(-8.09)"/><rect class="cls-7" x="489.5" y="52.54" width="10.85" height="1.44" transform="translate(-2.57 70.16) rotate(-8.09)"/><rect class="cls-8" x="478.79" y="54.45" width="5.43" height="1.44" transform="translate(-2.97 68.29) rotate(-8.09)"/><rect class="cls-2" x="455.12" y="57.28" width="13.02" height="1.44" transform="translate(-3.57 65.52) rotate(-8.09)"/><path class="cls-2" d="M451,38.32,454.24,36l.07.51-2.74,1.88v0l3.15,1,.07.51-3.75-1.28Z"/><path class="cls-2" d="M455.1,34.57l.66-.09.32,2.25h0a1.24,1.24,0,0,1,.41-.53,1.4,1.4,0,0,1,.65-.28c.49-.07,1.32.12,1.49,1.36l.3,2.14-.66.09L458,37.44c-.08-.58-.37-1-1-1a1,1,0,0,0-.8.78.8.8,0,0,0,0,.32l.31,2.17-.66.09-.75-5.28Z"/><path class="cls-2" d="M460.14,34.51l.15,1,.95-.13.07.5-.95.13.28,1.94c.06.45.23.68.6.63a1.56,1.56,0,0,0,.38-.1l.1.49a1.64,1.64,0,0,1-.57.17.93.93,0,0,1-.75-.17,1.32,1.32,0,0,1-.39-.9l-.28-2-.57.08-.07-.5.57-.08-.12-.86Z"/><path class="cls-2" d="M462.12,36.28c-.05-.37-.1-.68-.17-1l.58-.08.11.58h0a1.28,1.28,0,0,1,1.05-.83,1.09,1.09,0,0,1,1.14.57h0a1.52,1.52,0,0,1,.34-.53,1.27,1.27,0,0,1,.77-.37c.48-.07,1.24.14,1.42,1.39l.3,2.12-.65.09-.29-2c-.1-.69-.41-1.07-.95-1a.86.86,0,0,0-.7.71,1.07,1.07,0,0,0,0,.33l.32,2.23-.65.09-.31-2.16c-.08-.57-.4-1-.9-.88a.91.91,0,0,0-.73.77.93.93,0,0,0,0,.33l.31,2.17-.65.09Z"/><path class="cls-2" d="M468,32.73l.66-.09.75,5.28-.66.09Z"/><path class="cls-2" d="M473.76,35.5l-3.25,2.27-.07-.51,2.76-1.88v0l-3.18-1-.07-.51,3.75,1.28Z"/><path class="cls-2" d="M456.19,74.91l3.25-2.28.07.51L456.77,75v0l3.15,1,.07.51-3.75-1.28Z"/><path class="cls-2" d="M460.53,76.82l1.34-5.69.51-.07L461,76.75Z"/><path class="cls-2" d="M462.88,70.79l.66-.09.32,2.25h0a1.24,1.24,0,0,1,.41-.53,1.4,1.4,0,0,1,.65-.28c.49-.07,1.32.12,1.49,1.36l.3,2.14-.66.09-.29-2.07c-.08-.58-.37-1-1-1a1,1,0,0,0-.8.78.8.8,0,0,0,0,.32L464.3,76l-.66.09-.75-5.28Z"/><path class="cls-2" d="M467.93,70.74l.15,1,.95-.13.07.5-.95.13.28,1.94c.06.45.23.68.6.63a1.56,1.56,0,0,0,.38-.1l.1.49a1.64,1.64,0,0,1-.57.17.93.93,0,0,1-.75-.17,1.33,1.33,0,0,1-.39-.9l-.28-2-.57.08-.07-.5.57-.08L467.3,71Z"/><path class="cls-2" d="M469.91,72.5c-.05-.37-.1-.68-.17-1l.58-.08.11.58h0a1.28,1.28,0,0,1,1.05-.83,1.09,1.09,0,0,1,1.14.57h0a1.52,1.52,0,0,1,.34-.53,1.27,1.27,0,0,1,.77-.37c.48-.07,1.24.14,1.42,1.39l.3,2.12-.65.09-.29-2c-.1-.69-.41-1.07-.95-1a.86.86,0,0,0-.7.71,1.07,1.07,0,0,0,0,.33l.32,2.23-.65.09-.31-2.16c-.08-.57-.4-1-.9-.88a.91.91,0,0,0-.73.77.93.93,0,0,0,0,.33l.31,2.17-.65.09-.37-2.63Z"/><path class="cls-2" d="M475.81,69l.66-.09.75,5.28-.66.09Z"/><path class="cls-2" d="M481.54,71.72,478.29,74l-.07-.51L481,71.6v0l-3.18-1-.07-.51,3.75,1.28Z"/></g><g class="cls-1"><path class="cls-2" d="M178,404,142.67,369a1.62,1.62,0,0,1,0-2.25l52.71-53.18a1.62,1.62,0,0,1,2.25,0L233,348.6Z"/><path class="cls-3" d="M233,348.6l4.54,4.5a1.62,1.62,0,0,1,0,2.25l-52.71,53.18a1.62,1.62,0,0,1-2.25,0L178,404Z"/><rect class="cls-3" x="203.08" y="389.67" width="33.41" height="1.6" transform="translate(-212.26 271.69) rotate(-45.25)"/><polygon class="cls-4" points="227.03 382.03 211.41 397.79 204.49 388.7 217.88 375.19 227.03 382.03"/><rect class="cls-5" x="151.4" y="335.72" width="71.7" height="45.01" transform="translate(-198.99 239.04) rotate(-45.25)"/><polygon class="cls-6" points="217.88 375.19 204.49 388.7 208.35 393.77 219.53 376.42 217.88 375.19"/><rect class="cls-7" x="189.4" y="341.91" width="4.52" height="1.23" transform="translate(-186.54 237.52) rotate(-45.25)"/><rect class="cls-8" x="181.44" y="349.94" width="4.52" height="1.23" transform="translate(-194.59 234.24) rotate(-45.25)"/><rect class="cls-9" x="168.34" y="361.16" width="8.5" height="1.23" transform="translate(-205.85 229.67) rotate(-45.25)"/><rect class="cls-9" x="202.56" y="350.44" width="4.52" height="1.23" transform="translate(-188.7 249.39) rotate(-45.25)"/><rect class="cls-7" x="194.6" y="358.47" width="4.52" height="1.23" transform="translate(-196.76 246.11) rotate(-45.25)"/><rect class="cls-9" x="178.94" y="369.71" width="13.56" height="1.23" transform="translate(-208.03 241.53) rotate(-45.25)"/><rect class="cls-2" x="189.51" y="345.65" width="11.3" height="1.23" transform="translate(-188.15 241.11) rotate(-45.25)"/><rect class="cls-9" x="184.15" y="354.48" width="4.52" height="1.23" transform="translate(-197.01 237.51) rotate(-45.25)"/><rect class="cls-8" x="173.07" y="362.86" width="10.05" height="1.23" transform="translate(-205.43 234.09) rotate(-45.25)"/><rect class="cls-7" x="195.07" y="348.45" width="9.04" height="1.23" transform="translate(-188.83 245.09) rotate(-45.25)"/><rect class="cls-8" x="189.38" y="356.47" width="4.52" height="1.23" transform="translate(-196.88 241.81) rotate(-45.25)"/><rect class="cls-2" x="174.44" y="368.35" width="10.84" height="1.23" transform="translate(-208.8 236.97) rotate(-45.25)"/><path class="cls-2" d="M162.63,361l1-3.17.31.31-.86,2.64h0l2.64-.88.31.31-3.16,1Z"/><path class="cls-2" d="M163.43,356.39l.39-.4,1.37,1.36h0a1,1,0,0,1,0-.56,1.15,1.15,0,0,1,.29-.52c.29-.29.94-.58,1.69.17l1.31,1.3-.39.4-1.26-1.25c-.35-.35-.78-.52-1.15-.14a.8.8,0,0,0-.13.93.69.69,0,0,0,.16.22l1.33,1.32-.39.4-3.23-3.2Z"/><path class="cls-2" d="M166.76,353.82l.63.63.56-.57.3.3-.56.57,1.19,1.18c.27.27.5.35.72.13a1.27,1.27,0,0,0,.2-.26l.32.28a1.34,1.34,0,0,1-.29.4.77.77,0,0,1-.59.26,1.15,1.15,0,0,1-.72-.41l-1.2-1.19-.34.34-.3-.3.34-.34-.53-.52Z"/><path class="cls-2" d="M169,354c-.23-.23-.42-.41-.61-.57l.34-.35.37.33h0a1.06,1.06,0,0,1,.27-1.09.91.91,0,0,1,1.05-.18h0a1.29,1.29,0,0,1,0-.53,1,1,0,0,1,.32-.64c.29-.29.9-.53,1.66.23l1.3,1.28-.38.39L172,351.65c-.42-.42-.83-.52-1.15-.2a.72.72,0,0,0-.1.83.93.93,0,0,0,.17.23l1.36,1.35-.38.39-1.32-1.31c-.35-.35-.76-.45-1.06-.14a.76.76,0,0,0-.09.89.81.81,0,0,0,.16.23l1.33,1.32-.39.39Z"/><path class="cls-2" d="M171.09,348.66l.39-.4,3.23,3.2-.39.4Z"/><path class="cls-2" d="M176.33,347.66l-1,3.16-.31-.31.87-2.66h0l-2.65.89-.31-.31,3.15-1Z"/><path class="cls-2" d="M185,383.13l1-3.17.31.31-.86,2.64h0l2.64-.88.31.31-3.16,1Z"/><path class="cls-2" d="M188.85,382.25l-2-4.52.3-.31,2,4.53Z"/><path class="cls-2" d="M187.3,377l.39-.4,1.37,1.36h0a1,1,0,0,1,0-.56,1.15,1.15,0,0,1,.29-.52c.29-.29.94-.58,1.7.17l1.31,1.3-.39.4-1.26-1.25c-.35-.35-.78-.52-1.15-.14a.8.8,0,0,0-.13.93.69.69,0,0,0,.16.22l1.33,1.32-.39.4L187.3,377Z"/><path class="cls-2" d="M190.63,374.42l.63.63.56-.57.3.3-.56.57,1.19,1.18c.27.27.5.35.72.13a1.27,1.27,0,0,0,.2-.26l.32.28a1.34,1.34,0,0,1-.29.4.77.77,0,0,1-.59.26,1.15,1.15,0,0,1-.72-.41l-1.2-1.19-.34.34-.3-.3.34-.34-.53-.52Z"/><path class="cls-2" d="M192.86,374.63c-.23-.23-.42-.41-.61-.57l.34-.35.37.33h0a1.06,1.06,0,0,1,.27-1.09.91.91,0,0,1,1.05-.18h0a1.29,1.29,0,0,1,0-.53,1,1,0,0,1,.32-.64c.29-.29.9-.53,1.66.23l1.3,1.28-.38.39-1.25-1.23c-.42-.42-.83-.52-1.15-.2a.72.72,0,0,0-.1.83.93.93,0,0,0,.17.23l1.36,1.35-.38.39-1.32-1.31c-.35-.35-.76-.45-1.06-.14a.76.76,0,0,0-.09.89.81.81,0,0,0,.16.23l1.33,1.32-.38.39-1.6-1.59Z"/><path class="cls-2" d="M195,369.26l.39-.4,3.23,3.2-.39.4Z"/><path class="cls-2" d="M200.2,368.26l-1,3.16-.31-.31.87-2.66h0l-2.65.89-.31-.31,3.15-1Z"/></g><g class="cls-1"><path class="cls-2" d="M354,150.27,329.57,126a1.12,1.12,0,0,1,0-1.56L366,87.66a1.12,1.12,0,0,1,1.56,0l24.47,24.26Z"/><path class="cls-3" d="M392.06,111.92,395.2,115a1.12,1.12,0,0,1,0,1.56l-36.47,36.79a1.12,1.12,0,0,1-1.56,0L354,150.27Z"/><rect class="cls-3" x="371.37" y="140.33" width="23.12" height="1.11" transform="translate(13.3 313.67) rotate(-45.25)"/><polygon class="cls-4" points="387.95 135.04 377.14 145.95 372.35 139.66 381.62 130.31 387.95 135.04"/><rect class="cls-5" x="335.62" y="103" width="49.61" height="31.14" transform="translate(22.48 291.08) rotate(-45.25)"/><polygon class="cls-6" points="381.62 130.31 372.35 139.66 375.02 143.17 382.75 131.16 381.62 130.31"/><rect class="cls-7" x="361.91" y="107.29" width="3.13" height="0.85" transform="translate(31.1 290.03) rotate(-45.25)"/><rect class="cls-8" x="356.4" y="112.84" width="3.13" height="0.85" transform="translate(25.52 287.77) rotate(-45.25)"/><rect class="cls-9" x="347.33" y="120.6" width="5.88" height="0.85" transform="translate(17.73 284.6) rotate(-45.25)"/><rect class="cls-9" x="371.01" y="113.19" width="3.13" height="0.85" transform="translate(29.6 298.24) rotate(-45.25)"/><rect class="cls-7" x="365.51" y="118.74" width="3.13" height="0.85" transform="translate(24.02 295.98) rotate(-45.25)"/><rect class="cls-9" x="354.67" y="126.52" width="9.38" height="0.85" transform="translate(16.22 292.81) rotate(-45.25)"/><rect class="cls-2" x="361.99" y="109.87" width="7.82" height="0.85" transform="translate(29.98 292.52) rotate(-45.25)"/><rect class="cls-9" x="358.28" y="115.98" width="3.13" height="0.85" transform="translate(23.85 290.02) rotate(-45.25)"/><rect class="cls-8" x="350.61" y="121.78" width="6.95" height="0.85" transform="translate(18.02 287.66) rotate(-45.25)"/><rect class="cls-7" x="365.83" y="111.81" width="6.26" height="0.85" transform="translate(29.51 295.27) rotate(-45.25)"/><rect class="cls-8" x="361.89" y="117.36" width="3.13" height="0.85" transform="translate(23.94 293) rotate(-45.25)"/><rect class="cls-2" x="351.56" y="125.58" width="7.5" height="0.85" transform="translate(15.69 289.65) rotate(-45.25)"/><path class="cls-2" d="M343.39,120.48l.68-2.19.22.22-.59,1.83h0l1.82-.61.22.22-2.18.7Z"/><path class="cls-2" d="M343.94,117.3l.27-.27.95.94h0a.72.72,0,0,1,0-.39.79.79,0,0,1,.2-.36c.2-.2.65-.4,1.17.12l.91.9-.27.27-.87-.87c-.25-.24-.54-.36-.8-.1a.56.56,0,0,0-.09.64.48.48,0,0,0,.11.15l.92.91-.27.27-2.23-2.21Z"/><path class="cls-2" d="M346.24,115.53l.44.43.39-.39.21.21-.39.39.82.81c.19.19.35.24.5.09a.88.88,0,0,0,.14-.18l.22.19a.93.93,0,0,1-.2.28.53.53,0,0,1-.41.18.79.79,0,0,1-.5-.29l-.83-.82-.23.23-.21-.21.23-.23-.36-.36Z"/><path class="cls-2" d="M347.79,115.67c-.16-.16-.29-.28-.42-.4l.24-.24.26.23h0a.73.73,0,0,1,.19-.75.63.63,0,0,1,.73-.13h0a.89.89,0,0,1,0-.36.72.72,0,0,1,.22-.44c.2-.2.62-.36,1.15.16l.9.89-.27.27-.86-.85c-.29-.29-.57-.36-.79-.14a.5.5,0,0,0-.07.57.64.64,0,0,0,.12.16l.94.93-.27.27-.91-.9c-.24-.24-.52-.31-.73-.1a.53.53,0,0,0-.06.61.56.56,0,0,0,.11.16l.92.91-.27.27Z"/><path class="cls-2" d="M349.24,112l.27-.27,2.23,2.21-.27.27Z"/><path class="cls-2" d="M352.86,111.26l-.69,2.19-.22-.22.6-1.84h0l-1.83.62-.22-.21,2.18-.7Z"/><path class="cls-2" d="M358.85,135.8l.68-2.19.22.22-.59,1.83h0l1.82-.61.22.22L359,136Z"/><path class="cls-2" d="M361.53,135.19l-1.42-3.13.21-.21,1.41,3.13Z"/><path class="cls-2" d="M360.46,131.56l.27-.27.95.94h0a.72.72,0,0,1,0-.39.79.79,0,0,1,.2-.36c.2-.2.65-.4,1.17.12l.91.9-.27.27-.87-.87c-.25-.24-.54-.36-.8-.1a.56.56,0,0,0-.09.64.48.48,0,0,0,.11.15l.92.91-.27.27-2.23-2.21Z"/><path class="cls-2" d="M362.76,129.78l.44.43.39-.39.21.21-.39.39.82.81c.19.19.35.24.5.09a.88.88,0,0,0,.14-.18l.22.19a.93.93,0,0,1-.2.28.53.53,0,0,1-.41.18.79.79,0,0,1-.5-.29l-.83-.82-.23.23-.21-.21.23-.23-.36-.36Z"/><path class="cls-2" d="M364.3,129.92c-.16-.16-.29-.28-.42-.4l.24-.24.26.23h0a.73.73,0,0,1,.19-.75.63.63,0,0,1,.73-.13h0a.89.89,0,0,1,0-.36.72.72,0,0,1,.22-.44c.2-.2.62-.36,1.15.16l.9.89-.27.27-.86-.85c-.29-.29-.57-.36-.79-.14a.5.5,0,0,0-.07.57.64.64,0,0,0,.12.16l.94.93-.27.27-.91-.9c-.24-.24-.52-.31-.73-.1a.53.53,0,0,0-.06.61.56.56,0,0,0,.11.16l.92.91-.27.27-1.11-1.1Z"/><path class="cls-2" d="M365.76,126.21l.27-.27,2.23,2.21-.27.27Z"/><path class="cls-2" d="M369.38,125.52l-.69,2.19-.22-.22.6-1.84h0l-1.83.62L367,126l2.18-.7Z"/></g><g class="cls-1"><path class="cls-2" d="M174.75,142.88l-76.46-12a2.52,2.52,0,0,1-2.07-2.82L114.28,13.11a2.52,2.52,0,0,1,2.84-2l76.46,12Z"/><path class="cls-3" d="M193.57,23.07l9.82,1.54a2.52,2.52,0,0,1,2.07,2.82L187.41,142.38a2.52,2.52,0,0,1-2.84,2l-9.82-1.54Z"/><rect class="cls-3" x="189.07" y="86.59" width="51.92" height="2.48" transform="matrix(0.16, -0.99, 0.99, 0.16, 94.9, 286.62)"/><polygon class="cls-4" points="216.48 70.6 211.13 104.67 194.14 99.51 198.73 70.3 216.48 70.6"/><rect class="cls-5" x="88.99" y="41.81" width="111.43" height="69.94" transform="translate(46.4 207.82) rotate(-81.07)"/><polygon class="cls-6" points="198.73 70.3 194.14 99.51 203.62 102.39 201.92 70.36 198.73 70.3"/><rect class="cls-7" x="132.47" y="52.04" width="7.02" height="1.91" transform="matrix(0.16, -0.99, 0.99, 0.16, 62.53, 179.11)"/><rect class="cls-8" x="129.74" y="69.39" width="7.02" height="1.91" transform="translate(43.08 191.07) rotate(-81.07)"/><rect class="cls-9" x="122.84" y="93.64" width="13.21" height="1.91" transform="translate(15.91 207.8) rotate(-81.07)"/><rect class="cls-9" x="156.81" y="50.82" width="7.03" height="1.91" transform="translate(84.29 202.12) rotate(-81.07)"/><rect class="cls-7" x="154.08" y="68.18" width="7.02" height="1.91" transform="matrix(0.16, -0.99, 0.99, 0.16, 64.84, 214.09)"/><rect class="cls-9" x="143.24" y="92.47" width="21.08" height="1.91" transform="matrix(0.16, -0.99, 0.99, 0.16, 37.62, 230.84)"/><rect class="cls-2" x="135.01" y="53.56" width="17.56" height="1.91" transform="translate(67.62 188.1) rotate(-81.07)"/><rect class="cls-9" x="137.28" y="72.65" width="7.03" height="1.91" transform="translate(46.23 201.27) rotate(-81.07)"/><rect class="cls-8" x="130.14" y="90.77" width="15.62" height="1.91" transform="translate(25.92 213.77) rotate(-81.07)"/><rect class="cls-7" x="144.89" y="53.06" width="14.05" height="1.91" transform="translate(74.99 195.71) rotate(-81.07)"/><rect class="cls-8" x="145.68" y="70.4" width="7.03" height="1.91" transform="translate(55.55 207.67) rotate(-81.07)"/><rect class="cls-2" x="136.74" y="96.09" width="16.85" height="1.91" transform="translate(26.77 225.39) rotate(-81.07)"/><path class="cls-2" d="M116.18,102.65l-1.64-4.89.68.11,1.33,4.11h0l2.52-3.51.68.11-3.06,4.15Z"/><path class="cls-2" d="M113,96.14l.13-.86,3,.47v0a1.62,1.62,0,0,1-.51-.71,1.78,1.78,0,0,1-.11-.92c.1-.63.65-1.58,2.29-1.33l2.83.44-.13.86-2.73-.43c-.77-.12-1.46.06-1.59.87a1.25,1.25,0,0,0,.68,1.28,1.07,1.07,0,0,0,.4.12l2.87.45-.13.86-7-1.09Z"/><path class="cls-2" d="M114.87,89.88l1.36.21.19-1.23.66.1-.19,1.23,2.56.4c.59.09.95,0,1-.5a2,2,0,0,0,0-.51l.65.06a2.08,2.08,0,0,1,0,.78,1.19,1.19,0,0,1-.51.87,1.78,1.78,0,0,1-1.29.14L116.76,91l-.11.73-.66-.1.11-.73L115,90.75Z"/><path class="cls-2" d="M117.87,88.1c-.49-.08-.9-.13-1.29-.16l.12-.75.77.08v0a1.65,1.65,0,0,1-.64-1.62A1.41,1.41,0,0,1,118,84.44v0a2,2,0,0,1-.53-.62,1.63,1.63,0,0,1-.17-1.1c.1-.62.65-1.48,2.3-1.22l2.8.44-.13.84-2.69-.42c-.91-.14-1.52.1-1.62.79a1.12,1.12,0,0,0,.63,1.14,1.44,1.44,0,0,0,.42.14l2.94.46-.13.84-2.85-.45c-.76-.12-1.36.13-1.46.78a1.19,1.19,0,0,0,.7,1.2,1.26,1.26,0,0,0,.41.13l2.87.45-.13.84Z"/><path class="cls-2" d="M115.63,79.43l.13-.86,7,1.1-.13.86Z"/><path class="cls-2" d="M121.33,73.41,123,78.3l-.68-.11L121,74h0l-2.53,3.54-.68-.11,3-4.15Z"/><path class="cls-2" d="M164.48,110.24l-1.64-4.89.68.11,1.33,4.11h0l2.52-3.51.68.11L165,110.32Z"/><path class="cls-2" d="M168.56,105.6l-6.69-3.83.1-.66,6.69,3.85Z"/><path class="cls-2" d="M161.83,100.39l.13-.86,3,.47v0a1.62,1.62,0,0,1-.51-.71,1.78,1.78,0,0,1-.11-.92c.1-.63.65-1.58,2.29-1.33l2.83.44-.13.86-2.73-.43c-.77-.12-1.46.06-1.59.87a1.25,1.25,0,0,0,.68,1.28,1.07,1.07,0,0,0,.4.12l2.87.45-.13.86-7-1.09Z"/><path class="cls-2" d="M163.69,94.12l1.36.21.19-1.23.66.1-.19,1.23,2.56.4c.59.09.95,0,1-.5a2,2,0,0,0,0-.51l.65.06a2.08,2.08,0,0,1,0,.78,1.19,1.19,0,0,1-.51.87,1.78,1.78,0,0,1-1.29.14l-2.59-.41-.11.73-.66-.1.11-.73L163.78,95Z"/><path class="cls-2" d="M166.69,92.35c-.49-.08-.9-.13-1.29-.16l.12-.75.77.08v0a1.65,1.65,0,0,1-.64-1.62,1.41,1.41,0,0,1,1.16-1.19v0a2,2,0,0,1-.53-.62,1.63,1.63,0,0,1-.17-1.1c.1-.62.65-1.48,2.3-1.22l2.8.44-.13.84-2.69-.42c-.91-.14-1.52.1-1.62.79a1.12,1.12,0,0,0,.63,1.14,1.44,1.44,0,0,0,.42.14l2.94.46-.13.84-2.85-.45c-.76-.12-1.36.13-1.46.78a1.19,1.19,0,0,0,.7,1.2,1.26,1.26,0,0,0,.41.13l2.87.45-.13.84-3.47-.54Z"/><path class="cls-2" d="M164.46,83.68l.13-.86,7,1.1-.13.86Z"/><path class="cls-2" d="M170.15,77.66l1.63,4.89-.68-.11-1.32-4.14h0l-2.53,3.54-.68-.11,3-4.15Z"/></g><g class="cls-1"><path class="cls-2" d="M516.79,486.08l2.07-22.15a.72.72,0,0,1,.77-.65l33.31,3.11a.72.72,0,0,1,.64.78l-2.07,22.15Z"/><path class="cls-3" d="M551.51,489.32l-.27,2.84a.72.72,0,0,1-.77.65l-33.31-3.11a.72.72,0,0,1-.64-.78l.27-2.84Z"/><rect class="cls-3" x="532.96" y="489.18" width="0.71" height="14.93" transform="translate(-10.75 981.48) rotate(-84.67)"/><polygon class="cls-4" points="538.29 496.75 528.41 495.83 529.59 490.86 538.05 491.65 538.29 496.75"/><rect class="cls-5" x="525.17" y="460.25" width="20.11" height="32.04" transform="translate(11.26 964.89) rotate(-84.67)"/><polygon class="cls-6" points="538.05 491.65 529.59 490.86 528.93 493.63 538.1 492.56 538.05 491.65"/><rect class="cls-7" x="541.61" y="472.32" width="0.55" height="2.02" transform="translate(20.23 968.87) rotate(-84.67)"/><rect class="cls-8" x="536.59" y="471.85" width="0.55" height="2.02" transform="translate(16.14 963.44) rotate(-84.67)"/><rect class="cls-9" x="529.56" y="470.31" width="0.55" height="3.8" transform="translate(10.42 955.85) rotate(-84.67)"/><rect class="cls-9" x="542.4" y="479.28" width="0.55" height="2.02" transform="translate(14.01 975.97) rotate(-84.67)"/><rect class="cls-7" x="537.37" y="478.82" width="0.55" height="2.02" transform="translate(9.92 970.54) rotate(-84.67)"/><rect class="cls-9" x="530.33" y="476.14" width="0.55" height="6.06" transform="translate(4.19 962.94) rotate(-84.67)"/><rect class="cls-2" x="541.32" y="473.08" width="0.55" height="5.05" transform="translate(17.7 970.64) rotate(-84.67)"/><rect class="cls-9" x="535.79" y="474.07" width="0.55" height="2.02" transform="translate(13.2 964.66) rotate(-84.67)"/><rect class="cls-8" x="530.53" y="472.35" width="0.55" height="4.49" transform="translate(8.93 958.99) rotate(-84.67)"/><rect class="cls-7" x="541.61" y="475.91" width="0.55" height="4.04" transform="translate(15.65 973.03) rotate(-84.67)"/><rect class="cls-8" x="536.58" y="476.45" width="0.55" height="2.02" transform="translate(11.56 967.6) rotate(-84.67)"/><rect class="cls-2" x="529.14" y="474.34" width="0.55" height="4.84" transform="translate(5.5 959.56) rotate(-84.67)"/><path class="cls-2" d="M527.28,468.55l1.37-.56,0,.2-1.16.45h0l1.05.66,0,.2-1.25-.8Z"/><path class="cls-2" d="M529.09,467.52l.25,0-.08.86h0a.47.47,0,0,1,.19-.16.51.51,0,0,1,.26,0c.18,0,.47.16.42.63l-.08.82-.25,0,.07-.79c0-.22,0-.42-.28-.44a.36.36,0,0,0-.36.22.31.31,0,0,0,0,.12l-.08.83-.25,0,.19-2Z"/><path class="cls-2" d="M530.93,467.94l0,.4.36,0,0,.19-.36,0-.07.74c0,.17,0,.27.16.28h.15v.19a.6.6,0,0,1-.22,0,.34.34,0,0,1-.26-.13.51.51,0,0,1-.06-.37l.07-.75-.21,0,0-.19.21,0,0-.33Z"/><path class="cls-2" d="M531.49,468.77c0-.14,0-.26,0-.37l.22,0v.22h0a.47.47,0,0,1,.45-.21.41.41,0,0,1,.36.31h0a.58.58,0,0,1,.17-.16.47.47,0,0,1,.31-.07c.18,0,.44.16.39.64l-.08.81-.24,0,.07-.78c0-.26-.06-.43-.26-.45a.32.32,0,0,0-.31.2.41.41,0,0,0,0,.12l-.08.85-.24,0,.08-.83c0-.22-.06-.39-.25-.41a.34.34,0,0,0-.33.22.36.36,0,0,0,0,.12l-.08.83-.24,0Z"/><path class="cls-2" d="M533.94,468l.25,0-.19,2-.25,0Z"/><path class="cls-2" d="M535.77,469.5l-1.37.55,0-.2,1.16-.45h0l-1.06-.66,0-.2,1.25.8Z"/><path class="cls-2" d="M526,482.54l1.37-.56,0,.2-1.16.45h0l1.05.66,0,.2-1.25-.8Z"/><path class="cls-2" d="M527.38,483.63l1-2,.19,0-1,2Z"/><path class="cls-2" d="M528.76,481.6l.25,0-.08.86h0a.47.47,0,0,1,.19-.16.51.51,0,0,1,.26,0c.18,0,.47.16.42.63l-.08.82-.25,0,.07-.79c0-.22,0-.42-.28-.44a.36.36,0,0,0-.36.22.31.31,0,0,0,0,.12l-.08.83-.25,0,.19-2Z"/><path class="cls-2" d="M530.59,482l0,.4.36,0,0,.19-.36,0-.07.74c0,.17,0,.27.16.28h.15v.19a.6.6,0,0,1-.22,0,.34.34,0,0,1-.26-.13.51.51,0,0,1-.06-.37l.07-.75-.21,0,0-.19.21,0,0-.33Z"/><path class="cls-2" d="M531.15,482.85c0-.14,0-.26,0-.37l.22,0v.22h0a.47.47,0,0,1,.45-.21.41.41,0,0,1,.36.31h0a.58.58,0,0,1,.17-.16.47.47,0,0,1,.31-.07c.18,0,.44.16.39.64L533,484l-.24,0,.07-.78c0-.26-.06-.43-.26-.45a.32.32,0,0,0-.31.2.41.41,0,0,0,0,.12l-.08.85-.24,0,.08-.83c0-.22-.06-.39-.25-.41a.34.34,0,0,0-.33.22.36.36,0,0,0,0,.12l-.08.83-.24,0,.09-1Z"/><path class="cls-2" d="M533.6,482.06l.25,0-.19,2-.25,0Z"/><path class="cls-2" d="M535.43,483.58l-1.37.55,0-.2,1.16-.45h0l-1.06-.66,0-.2,1.25.8Z"/></g><g class="cls-1"><path class="cls-2" d="M15,308.6l48-39.81a2,2,0,0,1,2.81.25l59.85,72.17a2,2,0,0,1-.27,2.81l-48,39.81Z"/><path class="cls-3" d="M77.42,383.83l-6.16,5.11a2,2,0,0,1-2.81-.25L8.59,316.52a2,2,0,0,1,.27-2.81L15,308.6Z"/><rect class="cls-3" x="25.84" y="341.37" width="2" height="41.84" transform="translate(-225.07 100.54) rotate(-39.67)"/><polygon class="cls-4" points="36.48 372.35 18.74 350.95 30.92 343.44 46.12 361.78 36.48 372.35"/><rect class="cls-5" x="42.82" y="280.78" width="56.36" height="89.79" transform="translate(-191.54 120.3) rotate(-39.67)"/><polygon class="cls-6" points="46.12 361.78 30.92 343.44 24.12 347.63 44.39 363.68 46.12 361.78"/><rect class="cls-7" x="89.25" y="330.25" width="1.54" height="5.66" transform="translate(-191.88 134.15) rotate(-39.67)"/><rect class="cls-8" x="80.22" y="319.35" width="1.54" height="5.66" transform="translate(-187.01 125.87) rotate(-39.67)"/><rect class="cls-9" x="67.6" y="301.64" width="1.54" height="10.64" transform="translate(-180.2 114.31) rotate(-39.67)"/><rect class="cls-9" x="77.02" y="345.61" width="1.54" height="5.66" transform="translate(-204.5 129.87) rotate(-39.67)"/><rect class="cls-7" x="67.98" y="334.71" width="1.54" height="5.66" transform="translate(-199.63 121.6) rotate(-39.67)"/><rect class="cls-9" x="55.34" y="313.8" width="1.54" height="16.98" transform="translate(-192.8 110.01) rotate(-39.67)"/><rect class="cls-2" x="84.17" y="329.91" width="1.54" height="14.15" transform="matrix(0.77, -0.64, 0.64, 0.77, -195.55, 131.8)"/><rect class="cls-9" x="74.24" y="322.17" width="1.54" height="5.66" transform="translate(-190.19 122.7) rotate(-39.67)"/><rect class="cls-8" x="64.8" y="307.33" width="1.54" height="12.59" transform="translate(-185.09 114.06) rotate(-39.67)"/><rect class="cls-7" x="80.14" y="336.51" width="1.54" height="11.32" transform="translate(-199.78 130.42) rotate(-39.67)"/><rect class="cls-8" x="71.11" y="328.45" width="1.54" height="5.66" transform="translate(-194.91 122.15) rotate(-39.67)"/><rect class="cls-2" x="57.74" y="308.36" width="1.54" height="13.58" transform="translate(-187.69 109.9) rotate(-39.67)"/><path class="cls-2" d="M70.56,294.65l3.83,1.61-.43.35-3.19-1.39h0l.77,3.39-.43.35-.88-4.06Z"/><path class="cls-2" d="M76.19,296.2l.45.54-1.86,1.54h0a1.31,1.31,0,0,1,.7.07,1.44,1.44,0,0,1,.61.42c.33.4.61,1.24-.42,2.09l-1.78,1.47-.45-.54,1.71-1.42c.48-.4.74-.91.32-1.42a1,1,0,0,0-1.14-.27.86.86,0,0,0-.29.18l-1.8,1.49-.45-.54,4.38-3.63Z"/><path class="cls-2" d="M79,300.66l-.86.71.64.77-.41.34-.64-.77-1.61,1.33c-.37.31-.49.58-.25.88a1.59,1.59,0,0,0,.3.28l-.39.36a1.68,1.68,0,0,1-.47-.42,1,1,0,0,1-.25-.77,1.43,1.43,0,0,1,.6-.85l1.63-1.35-.38-.46.41-.34.38.46.72-.59Z"/><path class="cls-2" d="M78.46,303.42c.31-.26.56-.47.79-.7l.39.47-.46.42,0,0a1.33,1.33,0,0,1,1.32.47,1.14,1.14,0,0,1,.1,1.33h0a1.61,1.61,0,0,1,.66,0,1.31,1.31,0,0,1,.75.48c.32.39.55,1.19-.49,2l-1.76,1.46-.44-.53,1.69-1.4c.57-.47.75-1,.39-1.4a.91.91,0,0,0-1-.23,1.16,1.16,0,0,0-.31.18l-1.84,1.53-.44-.53,1.79-1.48c.47-.39.65-.89.31-1.3a1,1,0,0,0-1.1-.22,1,1,0,0,0-.3.18l-1.8,1.49-.44-.53Z"/><path class="cls-2" d="M84.89,306.69l.45.54L81,310.86l-.45-.54Z"/><path class="cls-2" d="M85.5,313.34l-3.82-1.62.43-.35,3.21,1.41h0l-.79-3.41L85,309l.88,4.06Z"/><path class="cls-2" d="M40.24,319.79l3.83,1.61-.43.35-3.19-1.39h0l.77,3.39-.43.35-.88-4.06Z"/><path class="cls-2" d="M40.86,324.73l5.89-2,.35.42-5.89,2Z"/><path class="cls-2" d="M47.61,323.44l.45.54-1.86,1.54h0a1.31,1.31,0,0,1,.7.07,1.44,1.44,0,0,1,.61.42c.33.4.61,1.24-.42,2.09l-1.78,1.47-.45-.54,1.71-1.42c.48-.4.74-.91.32-1.42a1,1,0,0,0-1.14-.27.86.86,0,0,0-.29.18l-1.8,1.49-.45-.54,4.38-3.63Z"/><path class="cls-2" d="M50.4,327.91l-.86.71.64.77-.41.34-.64-.77-1.61,1.33c-.37.31-.49.58-.25.88a1.59,1.59,0,0,0,.3.28l-.39.36a1.68,1.68,0,0,1-.47-.42,1,1,0,0,1-.25-.77,1.44,1.44,0,0,1,.6-.85l1.63-1.35-.38-.46.41-.34.38.46.72-.59Z"/><path class="cls-2" d="M49.88,330.66c.31-.26.56-.47.79-.7l.39.47-.46.42,0,0a1.33,1.33,0,0,1,1.32.47,1.14,1.14,0,0,1,.1,1.33h0a1.61,1.61,0,0,1,.66,0,1.31,1.31,0,0,1,.75.48c.32.39.55,1.19-.49,2L51.2,336.7l-.44-.53,1.69-1.4c.57-.47.75-1,.39-1.4a.91.91,0,0,0-1-.23,1.16,1.16,0,0,0-.31.18l-1.84,1.53-.44-.53L51,332.84c.47-.39.65-.89.31-1.3a1,1,0,0,0-1.1-.22,1,1,0,0,0-.3.18L48.14,333l-.44-.53,2.18-1.81Z"/><path class="cls-2" d="M56.3,333.94l.45.54-4.38,3.63-.45-.54Z"/><path class="cls-2" d="M56.91,340.59,53.09,339l.43-.35L56.72,340h0l-.79-3.41.43-.35.88,4.06Z"/></g><g class="cls-1"><path class="cls-2" d="M348.66,370.86,354,321.34a1.62,1.62,0,0,1,1.75-1.42l74.44,8.1a1.62,1.62,0,0,1,1.4,1.76l-5.38,49.51Z"/><path class="cls-3" d="M426.25,379.29l-.69,6.36a1.62,1.62,0,0,1-1.75,1.42L349.37,379a1.62,1.62,0,0,1-1.4-1.76l.69-6.36Z"/><rect class="cls-3" x="384.48" y="378.36" width="1.6" height="33.41" transform="translate(-49.13 735.37) rotate(-83.79)"/><polygon class="cls-4" points="396.4 395.47 374.33 393.07 377.13 381.99 396.04 384.05 396.4 395.47"/><rect class="cls-5" x="367.73" y="313.67" width="45.01" height="71.7" transform="translate(0.56 699.67) rotate(-83.79)"/><polygon class="cls-6" points="396.04 384.05 377.13 381.99 375.57 388.18 396.11 386.1 396.04 384.05"/><rect class="cls-7" x="404.64" y="340.93" width="1.23" height="4.52" transform="translate(20.26 708.96) rotate(-83.79)"/><rect class="cls-8" x="393.4" y="339.71" width="1.23" height="4.52" transform="translate(11.45 696.7) rotate(-83.79)"/><rect class="cls-9" x="377.7" y="336.01" width="1.23" height="8.5" transform="translate(-0.85 679.57) rotate(-83.79)"/><rect class="cls-9" x="406.17" y="356.53" width="1.23" height="4.52" transform="translate(6.11 724.4) rotate(-83.79)"/><rect class="cls-7" x="394.93" y="355.31" width="1.23" height="4.52" transform="translate(-2.7 712.13) rotate(-83.79)"/><rect class="cls-9" x="379.2" y="349.08" width="1.23" height="13.56" transform="translate(-15.03 694.97) rotate(-83.79)"/><rect class="cls-2" x="403.9" y="342.6" width="1.23" height="11.3" transform="translate(14.56 712.74) rotate(-83.79)"/><rect class="cls-9" x="391.54" y="344.65" width="1.23" height="4.52" transform="matrix(0.11, -0.99, 0.99, 0.11, 4.88, 699.26)"/><rect class="cls-8" x="379.8" y="340.61" width="1.23" height="10.05" transform="translate(-4.32 686.45) rotate(-83.79)"/><rect class="cls-7" x="404.47" y="348.94" width="1.23" height="9.04" transform="translate(9.89 717.96) rotate(-83.79)"/><rect class="cls-8" x="393.24" y="349.98" width="1.23" height="4.52" transform="translate(1.09 705.7) rotate(-83.79)"/><rect class="cls-2" x="376.61" y="345.01" width="1.23" height="10.84" transform="translate(-11.95 687.55) rotate(-83.79)"/><path class="cls-2" d="M372.73,332l3.09-1.2,0,.44-2.6,1h0l2.33,1.52,0,.44-2.76-1.84Z"/><path class="cls-2" d="M376.82,329.74l.56.06-.21,1.92h0a1,1,0,0,1,.44-.35,1.15,1.15,0,0,1,.59-.1c.41,0,1,.37.92,1.43l-.2,1.83-.56-.06.19-1.77c.05-.5-.08-.94-.61-1a.8.8,0,0,0-.81.48.69.69,0,0,0-.07.26l-.2,1.86-.56-.06.49-4.52Z"/><path class="cls-2" d="M380.9,330.75l-.1.88.79.09,0,.43-.79-.09-.18,1.66c0,.38,0,.61.35.64a1.27,1.27,0,0,0,.33,0l0,.42a1.34,1.34,0,0,1-.5,0,.77.77,0,0,1-.57-.3,1.15,1.15,0,0,1-.13-.82l.18-1.68-.47-.05,0-.43.47.05.08-.74Z"/><path class="cls-2" d="M382.13,332.62c0-.32.06-.58.07-.84l.48.05,0,.5h0a1.06,1.06,0,0,1,1-.46.91.91,0,0,1,.8.71h0a1.29,1.29,0,0,1,.38-.36,1,1,0,0,1,.7-.14c.4,0,1,.38.86,1.44l-.2,1.81-.54-.06.19-1.74c.06-.59-.11-1-.56-1a.72.72,0,0,0-.71.44.93.93,0,0,0-.07.28l-.21,1.9-.54-.06.2-1.84c.05-.49-.12-.87-.54-.92a.76.76,0,0,0-.75.49.81.81,0,0,0-.07.27l-.2,1.86-.54-.06Z"/><path class="cls-2" d="M387.64,330.92l.56.06-.49,4.52-.56-.06Z"/><path class="cls-2" d="M391.68,334.4l-3.09,1.2,0-.44,2.62-1h0l-2.35-1.52,0-.44,2.76,1.83Z"/><path class="cls-2" d="M369.33,363.26l3.09-1.2,0,.44-2.6,1h0L372.1,365l0,.44-2.76-1.84Z"/><path class="cls-2" d="M372.43,365.74l2.26-4.42.43,0-2.27,4.42Z"/><path class="cls-2" d="M375.58,361.25l.56.06-.21,1.92h0a1,1,0,0,1,.44-.35,1.15,1.15,0,0,1,.59-.1c.41,0,1,.37.92,1.43l-.2,1.83-.56-.06.19-1.77c.05-.5-.08-.94-.61-1a.8.8,0,0,0-.81.48.69.69,0,0,0-.07.26l-.2,1.86-.56-.06.49-4.52Z"/><path class="cls-2" d="M379.66,362.26l-.1.88.79.09,0,.43-.79-.09-.18,1.66c0,.38,0,.61.35.64a1.27,1.27,0,0,0,.33,0l0,.42a1.34,1.34,0,0,1-.5,0,.77.77,0,0,1-.57-.3,1.15,1.15,0,0,1-.13-.82l.18-1.68-.47-.05,0-.43.47.05.08-.74Z"/><path class="cls-2" d="M380.9,364.13c0-.32.06-.58.07-.84l.48.05,0,.5h0a1.06,1.06,0,0,1,1-.46.91.91,0,0,1,.8.71h0a1.29,1.29,0,0,1,.38-.36,1,1,0,0,1,.7-.14c.4,0,1,.38.86,1.44l-.2,1.81-.54-.06.19-1.74c.06-.59-.11-1-.56-1a.72.72,0,0,0-.71.44.93.93,0,0,0-.07.28l-.21,1.9-.54-.06.2-1.84c.05-.49-.12-.87-.54-.92a.76.76,0,0,0-.75.49.81.81,0,0,0-.07.27l-.2,1.86-.54-.06.24-2.25Z"/><path class="cls-2" d="M386.4,362.43l.56.06-.49,4.52-.56-.06Z"/><path class="cls-2" d="M390.45,365.91l-3.09,1.2,0-.44,2.62-1h0l-2.35-1.52,0-.44,2.76,1.83Z"/></g><g class="cls-1"><path class="cls-2" d="M108.94,460.72,112.29,430a1,1,0,0,1,1.09-.88l46.23,5a1,1,0,0,1,.87,1.09L157.13,466Z"/><path class="cls-3" d="M157.13,466l-.43,3.95a1,1,0,0,1-1.09.88l-46.23-5a1,1,0,0,1-.87-1.09l.43-3.95Z"/><rect class="cls-3" x="131.19" y="465.37" width="0.99" height="20.75" transform="translate(-355.52 555.22) rotate(-83.79)"/><polygon class="cls-4" points="138.59 476 124.89 474.51 126.63 467.63 138.37 468.91 138.59 476"/><rect class="cls-5" x="120.78" y="425.2" width="27.95" height="44.53" transform="translate(-324.65 533.06) rotate(-83.79)"/><polygon class="cls-6" points="138.37 468.91 126.63 467.63 125.66 471.47 138.41 470.19 138.37 468.91"/><rect class="cls-7" x="143.71" y="442.13" width="0.76" height="2.81" transform="translate(-312.42 538.82) rotate(-83.79)"/><rect class="cls-8" x="136.73" y="441.37" width="0.76" height="2.81" transform="translate(-317.89 531.21) rotate(-83.79)"/><rect class="cls-9" x="126.98" y="439.07" width="0.76" height="5.28" transform="translate(-325.53 520.57) rotate(-83.79)"/><rect class="cls-9" x="144.66" y="451.82" width="0.76" height="2.81" transform="translate(-321.21 548.41) rotate(-83.79)"/><rect class="cls-7" x="137.68" y="451.06" width="0.76" height="2.81" transform="translate(-326.68 540.79) rotate(-83.79)"/><rect class="cls-9" x="127.91" y="447.19" width="0.76" height="8.42" transform="translate(-334.34 530.13) rotate(-83.79)"/><rect class="cls-2" x="143.25" y="443.17" width="0.76" height="7.02" transform="translate(-315.96 541.17) rotate(-83.79)"/><rect class="cls-9" x="135.57" y="444.44" width="0.76" height="2.81" transform="translate(-321.97 532.8) rotate(-83.79)"/><rect class="cls-8" x="128.28" y="441.93" width="0.76" height="6.24" transform="translate(-327.69 524.84) rotate(-83.79)"/><rect class="cls-7" x="143.61" y="447.11" width="0.76" height="5.62" transform="translate(-318.86 544.41) rotate(-83.79)"/><rect class="cls-8" x="136.63" y="447.75" width="0.76" height="2.81" transform="translate(-324.33 536.8) rotate(-83.79)"/><rect class="cls-2" x="126.3" y="444.67" width="0.76" height="6.73" transform="translate(-332.42 525.53) rotate(-83.79)"/><path class="cls-2" d="M123.89,436.57l1.92-.75,0,.27-1.62.61h0l1.45.94,0,.27-1.71-1.14Z"/><path class="cls-2" d="M126.43,435.18l.34,0-.13,1.19h0a.65.65,0,0,1,.27-.22.71.71,0,0,1,.36-.06c.25,0,.64.23.57.89l-.12,1.14-.34,0,.12-1.1c0-.31-.05-.58-.38-.62a.5.5,0,0,0-.5.3.43.43,0,0,0,0,.16l-.13,1.15-.34,0,.3-2.81Z"/><path class="cls-2" d="M129,435.8l-.06.55.49.05,0,.26-.49-.05-.11,1c0,.24,0,.38.22.4a.79.79,0,0,0,.2,0v.26a.83.83,0,0,1-.31,0,.48.48,0,0,1-.36-.19.71.71,0,0,1-.08-.51l.11-1-.29,0,0-.26.29,0,0-.46Z"/><path class="cls-2" d="M129.73,437c0-.2,0-.36,0-.52l.3,0,0,.31h0a.66.66,0,0,1,.63-.29.56.56,0,0,1,.5.44h0a.8.8,0,0,1,.24-.23.65.65,0,0,1,.43-.09c.25,0,.6.23.53.9l-.12,1.13-.34,0,.12-1.08c0-.37-.07-.6-.35-.63a.45.45,0,0,0-.44.27.58.58,0,0,0,0,.17l-.13,1.18-.34,0,.12-1.15c0-.3-.08-.54-.34-.57a.47.47,0,0,0-.46.3.5.5,0,0,0,0,.17l-.13,1.15-.34,0Z"/><path class="cls-2" d="M133.15,435.91l.34,0-.31,2.8-.34,0Z"/><path class="cls-2" d="M135.66,438.07l-1.92.74,0-.27,1.63-.61h0l-1.46-.94,0-.27,1.72,1.14Z"/><path class="cls-2" d="M121.78,456l1.92-.75,0,.27-1.62.61h0l1.45.94,0,.27-1.71-1.14Z"/><path class="cls-2" d="M123.71,457.54l1.4-2.75.27,0L124,457.57Z"/><path class="cls-2" d="M125.66,454.75l.34,0-.13,1.19h0a.65.65,0,0,1,.27-.22.71.71,0,0,1,.36-.06c.25,0,.64.23.57.89l-.12,1.14-.34,0,.12-1.1c0-.31-.05-.58-.38-.62a.5.5,0,0,0-.5.3.43.43,0,0,0,0,.16l-.13,1.15-.34,0,.3-2.81Z"/><path class="cls-2" d="M128.2,455.38l-.06.55.49.05,0,.26-.49-.05-.11,1c0,.24,0,.38.22.4a.79.79,0,0,0,.2,0v.26a.83.83,0,0,1-.31,0,.48.48,0,0,1-.36-.19.71.71,0,0,1-.08-.51l.11-1-.29,0,0-.26.29,0,0-.46Z"/><path class="cls-2" d="M129,456.54c0-.2,0-.36,0-.52l.3,0,0,.31h0a.66.66,0,0,1,.63-.29.56.56,0,0,1,.5.44h0a.8.8,0,0,1,.24-.23.65.65,0,0,1,.43-.09c.25,0,.6.23.53.9l-.12,1.13-.34,0,.12-1.08c0-.37-.07-.6-.35-.63a.45.45,0,0,0-.44.27.58.58,0,0,0,0,.17l-.13,1.18-.34,0,.12-1.15c0-.3-.08-.54-.34-.57a.47.47,0,0,0-.46.3.5.5,0,0,0,0,.17l-.13,1.15-.34,0,.15-1.39Z"/><path class="cls-2" d="M132.38,455.48l.34,0-.31,2.8-.34,0Z"/><path class="cls-2" d="M134.89,457.64l-1.92.74,0-.27,1.63-.61h0l-1.46-.94,0-.27,1.72,1.14Z"/></g><g class="cls-1"><path class="cls-2" d="M287.1,53.59l3.34-30.75a1,1,0,0,1,1.09-.88l46.23,5a1,1,0,0,1,.87,1.09l-3.34,30.75Z"/><path class="cls-3" d="M335.29,58.83l-.43,3.95a1,1,0,0,1-1.09.88l-46.23-5a1,1,0,0,1-.87-1.09l.43-3.95Z"/><rect class="cls-3" x="309.35" y="58.25" width="0.99" height="20.75" transform="translate(208.12 369.24) rotate(-83.79)"/><polygon class="cls-4" points="316.75 68.88 303.05 67.39 304.79 60.51 316.53 61.79 316.75 68.88"/><rect class="cls-5" x="298.95" y="18.08" width="27.95" height="44.53" transform="translate(238.98 347.07) rotate(-83.79)"/><polygon class="cls-6" points="316.53 61.79 304.79 60.51 303.82 64.35 316.57 63.06 316.53 61.79"/><rect class="cls-7" x="321.87" y="35.01" width="0.76" height="2.81" transform="translate(251.21 352.84) rotate(-83.79)"/><rect class="cls-8" x="314.89" y="34.25" width="0.76" height="2.81" transform="translate(245.75 345.22) rotate(-83.79)"/><rect class="cls-9" x="305.14" y="31.95" width="0.76" height="5.28" transform="translate(238.1 334.58) rotate(-83.79)"/><rect class="cls-9" x="322.82" y="44.7" width="0.76" height="2.81" transform="translate(242.43 362.43) rotate(-83.79)"/><rect class="cls-7" x="315.84" y="43.94" width="0.76" height="2.81" transform="translate(236.95 354.81) rotate(-83.79)"/><rect class="cls-9" x="306.07" y="40.07" width="0.76" height="8.42" transform="translate(229.3 344.15) rotate(-83.79)"/><rect class="cls-2" x="321.41" y="36.05" width="0.76" height="7.02" transform="translate(247.68 355.19) rotate(-83.79)"/><rect class="cls-9" x="313.74" y="37.32" width="0.76" height="2.81" transform="translate(241.66 346.81) rotate(-83.79)"/><rect class="cls-8" x="306.45" y="34.81" width="0.76" height="6.24" transform="translate(235.95 338.86) rotate(-83.79)"/><rect class="cls-7" x="321.77" y="39.98" width="0.76" height="5.62" transform="translate(244.78 358.43) rotate(-83.79)"/><rect class="cls-8" x="314.79" y="40.63" width="0.76" height="2.81" transform="translate(239.31 350.81) rotate(-83.79)"/><rect class="cls-2" x="304.46" y="37.54" width="0.76" height="6.73" transform="translate(231.21 339.54) rotate(-83.79)"/><path class="cls-2" d="M302.05,29.45,304,28.7l0,.27-1.62.61h0l1.45.94,0,.27L302,29.66Z"/><path class="cls-2" d="M304.59,28.06l.34,0-.13,1.19h0a.65.65,0,0,1,.27-.22.71.71,0,0,1,.36-.06c.25,0,.64.23.57.89L305.9,31l-.34,0,.12-1.1c0-.31-.05-.58-.38-.62a.5.5,0,0,0-.5.3.43.43,0,0,0,0,.16l-.13,1.15-.34,0,.3-2.81Z"/><path class="cls-2" d="M307.13,28.68l-.06.55.49.05,0,.26-.49-.05-.11,1c0,.24,0,.38.22.4a.79.79,0,0,0,.2,0v.26a.83.83,0,0,1-.31,0,.48.48,0,0,1-.36-.19.71.71,0,0,1-.08-.51l.11-1-.29,0,0-.26.29,0,0-.46Z"/><path class="cls-2" d="M307.89,29.84c0-.2,0-.36,0-.52l.3,0,0,.31h0a.66.66,0,0,1,.63-.29.56.56,0,0,1,.5.44h0a.8.8,0,0,1,.24-.23.65.65,0,0,1,.43-.09c.25,0,.6.23.53.9l-.12,1.13-.34,0,.12-1.08c0-.37-.07-.6-.35-.63a.45.45,0,0,0-.44.27.58.58,0,0,0,0,.17l-.13,1.18-.34,0,.12-1.15c0-.3-.08-.54-.34-.57a.47.47,0,0,0-.46.3.5.5,0,0,0,0,.17l-.13,1.15-.34,0Z"/><path class="cls-2" d="M311.31,28.79l.34,0-.31,2.8-.34,0Z"/><path class="cls-2" d="M313.83,30.95l-1.92.74,0-.27,1.63-.61h0l-1.46-.94,0-.27,1.72,1.14Z"/><path class="cls-2" d="M299.94,48.87l1.92-.75,0,.27-1.62.61h0l1.45.94,0,.27-1.71-1.14Z"/><path class="cls-2" d="M301.87,50.41l1.4-2.75.27,0-1.41,2.74Z"/><path class="cls-2" d="M303.82,47.63l.34,0L304,48.86h0a.65.65,0,0,1,.27-.22.71.71,0,0,1,.36-.06c.25,0,.64.23.57.89l-.12,1.14-.34,0,.12-1.1c0-.31-.05-.58-.38-.62a.5.5,0,0,0-.5.3.43.43,0,0,0,0,.16l-.13,1.15-.34,0,.3-2.81Z"/><path class="cls-2" d="M306.36,48.25l-.06.55.49.05,0,.26-.49-.05-.11,1c0,.24,0,.38.22.4a.79.79,0,0,0,.2,0v.26a.83.83,0,0,1-.31,0,.48.48,0,0,1-.36-.19.71.71,0,0,1-.08-.51l.11-1-.29,0,0-.26.29,0,0-.46Z"/><path class="cls-2" d="M307.13,49.41c0-.2,0-.36,0-.52l.3,0,0,.31h0a.66.66,0,0,1,.63-.29.56.56,0,0,1,.5.44h0a.8.8,0,0,1,.24-.23.65.65,0,0,1,.43-.09c.25,0,.6.23.53.9l-.12,1.13-.34,0,.12-1.08c0-.37-.07-.6-.35-.63a.45.45,0,0,0-.44.27.58.58,0,0,0,0,.17L308.5,51l-.34,0,.12-1.15c0-.3-.08-.54-.34-.57a.47.47,0,0,0-.46.3.5.5,0,0,0,0,.17l-.13,1.15-.34,0,.15-1.39Z"/><path class="cls-2" d="M310.55,48.36l.34,0-.31,2.8-.34,0Z"/><path class="cls-2" d="M313.06,50.52l-1.92.74,0-.27,1.63-.61h0l-1.46-.94,0-.27,1.72,1.14Z"/></g><g class="cls-1"><path class="cls-2" d="M556.29,254.3l-6.23,57.25a1.87,1.87,0,0,1-2,1.64L462,303.83a1.87,1.87,0,0,1-1.62-2l6.23-57.25Z"/><path class="cls-3" d="M466.57,244.54l.8-7.35a1.87,1.87,0,0,1,2-1.64l86.08,9.36a1.87,1.87,0,0,1,1.62,2l-.8,7.35Z"/><rect class="cls-3" x="513.02" y="206.99" width="1.85" height="38.64" transform="translate(233.4 712.77) rotate(-83.79)"/><polygon class="cls-4" points="501.09 225.84 526.6 228.61 523.36 241.42 501.49 239.04 501.09 225.84"/><rect class="cls-5" x="482.19" y="237.51" width="52.05" height="82.92" transform="translate(175.94 754.04) rotate(-83.79)"/><polygon class="cls-6" points="501.49 239.04 523.36 241.42 525.17 234.27 501.42 236.67 501.49 239.04"/><rect class="cls-7" x="490.13" y="283.68" width="1.42" height="5.23" transform="translate(153.16 743.3) rotate(-83.79)"/><rect class="cls-8" x="503.13" y="285.09" width="1.42" height="5.23" transform="translate(163.35 757.48) rotate(-83.79)"/><rect class="cls-9" x="521.28" y="284.76" width="1.42" height="9.83" transform="translate(177.58 777.29) rotate(-83.79)"/><rect class="cls-9" x="488.37" y="265.63" width="1.42" height="5.23" transform="translate(169.53 725.45) rotate(-83.79)"/><rect class="cls-7" x="501.36" y="267.04" width="1.42" height="5.23" transform="translate(179.71 739.63) rotate(-83.79)"/><rect class="cls-9" x="519.55" y="263.79" width="1.42" height="15.68" transform="translate(193.97 759.48) rotate(-83.79)"/><rect class="cls-2" x="490.99" y="273.9" width="1.42" height="13.07" transform="translate(159.75 738.93) rotate(-83.79)"/><rect class="cls-9" x="505.28" y="279.37" width="1.42" height="5.23" transform="translate(170.95 754.52) rotate(-83.79)"/><rect class="cls-8" x="518.85" y="277.65" width="1.42" height="11.62" transform="translate(181.59 769.33) rotate(-83.79)"/><rect class="cls-7" x="490.33" y="269.18" width="1.42" height="10.46" transform="translate(165.15 732.9) rotate(-83.79)"/><rect class="cls-8" x="503.32" y="273.2" width="1.42" height="5.23" transform="translate(175.33 747.07) rotate(-83.79)"/><rect class="cls-2" x="522.55" y="271.64" width="1.42" height="12.54" transform="translate(190.4 768.05) rotate(-83.79)"/><path class="cls-2" d="M528.45,299.25l-3.58,1.39.06-.51,3-1.13v0l-2.69-1.75.06-.51,3.19,2.13Z"/><path class="cls-2" d="M523.73,301.84l-.64-.07.24-2.22h0a1.21,1.21,0,0,1-.51.41,1.33,1.33,0,0,1-.68.11c-.47-.05-1.2-.43-1.07-1.66l.23-2.12.64.07-.22,2c-.06.57.1,1.08.7,1.15a.93.93,0,0,0,.93-.55.8.8,0,0,0,.08-.3l.23-2.15.64.07-.57,5.22Z"/><path class="cls-2" d="M519,300.68l.11-1-.92-.1.05-.49.92.1.21-1.92c0-.44,0-.7-.41-.74a1.47,1.47,0,0,0-.38,0l0-.49a1.55,1.55,0,0,1,.58,0,.89.89,0,0,1,.66.35,1.32,1.32,0,0,1,.15,1l-.21,1.94.55.06-.05.49-.55-.06-.09.85Z"/><path class="cls-2" d="M517.58,298.51c0,.37-.07.67-.08,1l-.56-.06,0-.58h0a1.23,1.23,0,0,1-1.18.53,1,1,0,0,1-.92-.82h0a1.49,1.49,0,0,1-.44.42,1.21,1.21,0,0,1-.81.17c-.47-.05-1.13-.43-1-1.67l.23-2.1.63.07-.22,2c-.07.68.13,1.12.65,1.18a.84.84,0,0,0,.82-.51,1.07,1.07,0,0,0,.09-.32l.24-2.2.63.07-.23,2.13c-.06.57.14,1,.63,1.06a.88.88,0,0,0,.87-.56A.94.94,0,0,0,517,298l.23-2.15.63.07Z"/><path class="cls-2" d="M511.21,300.48l-.64-.07.57-5.22.64.07Z"/><path class="cls-2" d="M506.53,296.46l3.57-1.38-.06.51-3,1.13v0l2.72,1.75-.06.51-3.19-2.12Z"/><path class="cls-2" d="M532.39,263.08l-3.58,1.39.06-.51,3-1.13v0l-2.69-1.75.06-.51,3.19,2.13Z"/><path class="cls-2" d="M528.8,260.22l-2.61,5.11-.5-.05,2.62-5.11Z"/><path class="cls-2" d="M525.16,265.4l-.64-.07.24-2.22h0a1.21,1.21,0,0,1-.51.41,1.33,1.33,0,0,1-.68.11c-.47-.05-1.2-.43-1.07-1.66l.23-2.12.64.07-.22,2c-.06.57.1,1.08.7,1.15a.93.93,0,0,0,.93-.55.8.8,0,0,0,.08-.3l.23-2.15.64.07-.57,5.22Z"/><path class="cls-2" d="M520.43,264.24l.11-1-.92-.1.05-.49.92.1.21-1.92c0-.44,0-.7-.41-.74a1.47,1.47,0,0,0-.38,0l0-.49a1.55,1.55,0,0,1,.58,0,.89.89,0,0,1,.66.35,1.33,1.33,0,0,1,.15,1l-.21,1.94.55.06-.05.49-.55-.06-.09.85Z"/><path class="cls-2" d="M519,262.08c0,.37-.07.67-.08,1l-.56-.06,0-.58h0a1.23,1.23,0,0,1-1.18.53,1,1,0,0,1-.92-.82h0a1.49,1.49,0,0,1-.44.42,1.21,1.21,0,0,1-.81.17c-.47-.05-1.13-.43-1-1.67l.23-2.1.63.07-.22,2c-.07.68.13,1.12.65,1.18a.84.84,0,0,0,.82-.51,1.07,1.07,0,0,0,.09-.32l.24-2.2.63.07-.23,2.13c-.06.57.14,1,.63,1.06a.88.88,0,0,0,.87-.56.94.94,0,0,0,.08-.31l.23-2.15.63.07-.28,2.6Z"/><path class="cls-2" d="M512.64,264,512,264l.57-5.22.64.07Z"/><path class="cls-2" d="M508,260l3.57-1.38-.06.51-3,1.13v0l2.72,1.75-.06.51-3.19-2.12Z"/></g><g class="cls-1"><path class="cls-2" d="M525.2,191.19,498,123a2.39,2.39,0,0,1,1.3-3.06L601.9,79a2.39,2.39,0,0,1,3,1.32l27.18,68.24Z"/><path class="cls-3" d="M632.13,148.59l3.49,8.76a2.39,2.39,0,0,1-1.3,3.06L531.74,201.28a2.39,2.39,0,0,1-3-1.32l-3.49-8.76Z"/><rect class="cls-3" x="565" y="196.26" width="49.28" height="2.36" transform="translate(-31.2 232.24) rotate(-21.72)"/><polygon class="cls-4" points="604.41 190.29 574 202.4 570 186.03 596.06 175.65 604.41 190.29"/><rect class="cls-5" x="511.76" y="101.49" width="105.75" height="66.38" transform="translate(-9.75 218.53) rotate(-21.72)"/><polygon class="cls-6" points="596.06 175.65 570 186.03 572.23 195.17 597.56 178.28 596.06 175.65"/><rect class="cls-7" x="576.5" y="115.14" width="6.67" height="1.81" transform="translate(-1.78 222.83) rotate(-21.72)"/><rect class="cls-8" x="561.02" y="121.31" width="6.67" height="1.81" transform="translate(-5.16 217.54) rotate(-21.72)"/><rect class="cls-9" x="536.45" y="129.93" width="12.54" height="1.81" transform="translate(-9.89 210.15) rotate(-21.72)"/><rect class="cls-9" x="589.27" y="134.42" width="6.67" height="1.81" transform="translate(-8.01 228.93) rotate(-21.72)"/><rect class="cls-7" x="573.79" y="140.59" width="6.67" height="1.81" transform="translate(-11.39 223.64) rotate(-21.72)"/><rect class="cls-9" x="545.44" y="149.23" width="20" height="1.81" transform="translate(-16.12 216.23) rotate(-21.72)"/><rect class="cls-2" x="574.04" y="122.25" width="16.67" height="1.81" transform="translate(-4.23 224.28) rotate(-21.72)"/><rect class="cls-9" x="562" y="129.04" width="6.67" height="1.81" transform="translate(-7.95 218.46) rotate(-21.72)"/><rect class="cls-8" x="541.75" y="135.48" width="14.82" height="1.81" transform="translate(-11.48 212.93) rotate(-21.72)"/><rect class="cls-7" x="580.05" y="128.65" width="13.34" height="1.81" transform="translate(-6.29 226.34) rotate(-21.72)"/><rect class="cls-8" x="567.9" y="134.81" width="6.67" height="1.81" transform="matrix(0.93, -0.37, 0.37, 0.93, -9.67, 221.05)"/><rect class="cls-2" x="540.32" y="143.94" width="15.99" height="1.81" transform="translate(-14.67 213.21) rotate(-21.72)"/><path class="cls-2" d="M529.72,123.91l3.2-3.7.24.6-2.71,3.07v0l4.08.36.24.6-4.87-.49Z"/><path class="cls-2" d="M533.5,118.16l.77-.3,1.05,2.65h0a1.54,1.54,0,0,1,.33-.76,1.69,1.69,0,0,1,.7-.53c.56-.22,1.61-.23,2.19,1.23l1,2.53-.77.3-1-2.44c-.27-.68-.75-1.16-1.48-.87a1.18,1.18,0,0,0-.72,1.18,1,1,0,0,0,.1.39l1,2.56-.77.3-2.48-6.22Z"/><path class="cls-2" d="M539.51,116.65l.49,1.22,1.09-.44.23.59-1.09.44.91,2.29c.21.53.48.77.9.6a1.87,1.87,0,0,0,.42-.23l.27.56a2,2,0,0,1-.64.37,1.13,1.13,0,0,1-1,0,1.69,1.69,0,0,1-.74-1l-.92-2.31-.65.26-.23-.59.65-.26-.41-1Z"/><path class="cls-2" d="M542.41,118.24c-.17-.44-.33-.8-.49-1.14l.67-.27.31.67h0a1.56,1.56,0,0,1,1-1.31,1.34,1.34,0,0,1,1.53.37h0a1.9,1.9,0,0,1,.25-.74,1.54,1.54,0,0,1,.81-.67c.56-.22,1.53-.18,2.11,1.29l1,2.5-.75.3-1-2.4c-.32-.81-.82-1.19-1.43-.94a1.07,1.07,0,0,0-.62,1.06,1.37,1.37,0,0,0,.09.41l1,2.62-.75.3-1-2.54c-.27-.67-.76-1-1.34-.82a1.13,1.13,0,0,0-.64,1.15,1.19,1.19,0,0,0,.09.4l1,2.56-.75.3Z"/><path class="cls-2" d="M548.41,112.22l.77-.3,2.48,6.22-.77.3Z"/><path class="cls-2" d="M556.08,114l-3.2,3.69-.24-.6,2.74-3.08v0l-4.11-.35L551,113l4.86.48Z"/><path class="cls-2" d="M546.89,167l3.2-3.7.24.6L547.61,167v0l4.08.36.24.6-4.87-.49Z"/><path class="cls-2" d="M552.65,168.1l-.11-7.32.59-.24.1,7.32Z"/><path class="cls-2" d="M553.65,160.08l.77-.3,1.05,2.65h0a1.54,1.54,0,0,1,.33-.76,1.69,1.69,0,0,1,.7-.53c.56-.22,1.61-.23,2.19,1.23l1,2.52-.77.3-1-2.44c-.27-.68-.75-1.16-1.48-.87a1.18,1.18,0,0,0-.72,1.18,1,1,0,0,0,.1.39l1,2.56-.77.3-2.48-6.22Z"/><path class="cls-2" d="M559.66,158.57l.49,1.22,1.09-.44.23.59-1.09.44.91,2.29c.21.53.48.77.9.6a1.87,1.87,0,0,0,.42-.23l.27.56a2,2,0,0,1-.64.37,1.13,1.13,0,0,1-1,0,1.69,1.69,0,0,1-.74-1l-.92-2.31-.65.26-.23-.59.65-.26-.41-1Z"/><path class="cls-2" d="M562.56,160.16c-.17-.44-.33-.8-.49-1.14l.67-.27.31.67h0a1.56,1.56,0,0,1,1-1.31,1.34,1.34,0,0,1,1.53.37h0a1.9,1.9,0,0,1,.25-.74,1.54,1.54,0,0,1,.81-.67c.56-.22,1.53-.18,2.11,1.29l1,2.5-.75.3-1-2.4c-.32-.81-.82-1.19-1.43-.94a1.07,1.07,0,0,0-.62,1.06,1.37,1.37,0,0,0,.09.41l1,2.62-.75.3-1-2.54c-.27-.67-.76-1-1.34-.82a1.13,1.13,0,0,0-.64,1.15,1.19,1.19,0,0,0,.09.4l1,2.56-.75.3-1.23-3.1Z"/><path class="cls-2" d="M568.56,154.14l.77-.3,2.48,6.22-.77.3Z"/><path class="cls-2" d="M576.23,155.88l-3.2,3.69-.24-.6,2.74-3.08v0l-4.11-.35-.24-.6,4.86.48Z"/></g><g class="cls-1"><path class="cls-2" d="M24.38,118.79,13,90.15a1,1,0,0,1,.55-1.28l43-17.15a1,1,0,0,1,1.28.56l11.41,28.63Z"/><path class="cls-3" d="M69.25,100.91l1.46,3.68a1,1,0,0,1-.55,1.28L27.12,123a1,1,0,0,1-1.28-.56l-1.46-3.68Z"/><rect class="cls-3" x="41.08" y="120.91" width="20.68" height="0.99" transform="translate(-41.28 27.65) rotate(-21.72)"/><polygon class="cls-4" points="57.62 118.41 44.86 123.49 43.18 116.62 54.12 112.26 57.62 118.41"/><rect class="cls-5" x="18.74" y="81.14" width="44.38" height="27.85" transform="translate(-32.28 21.9) rotate(-21.72)"/><polygon class="cls-6" points="54.12 112.26 43.18 116.62 44.12 120.45 54.74 113.37 54.12 112.26"/><rect class="cls-7" x="45.91" y="86.87" width="2.8" height="0.76" transform="translate(-28.93 23.7) rotate(-21.72)"/><rect class="cls-8" x="39.41" y="89.46" width="2.8" height="0.76" transform="translate(-30.35 21.48) rotate(-21.72)"/><rect class="cls-9" x="29.1" y="93.08" width="5.26" height="0.76" transform="translate(-32.34 18.38) rotate(-21.72)"/><rect class="cls-9" x="51.27" y="94.96" width="2.8" height="0.76" transform="translate(-31.55 26.26) rotate(-21.72)"/><rect class="cls-7" x="44.77" y="97.55" width="2.8" height="0.76" transform="translate(-32.97 24.04) rotate(-21.72)"/><rect class="cls-9" x="32.87" y="101.18" width="8.39" height="0.76" transform="translate(-34.95 20.93) rotate(-21.72)"/><rect class="cls-2" x="44.87" y="89.86" width="7" height="0.76" transform="translate(-29.96 24.31) rotate(-21.72)"/><rect class="cls-9" x="39.82" y="92.7" width="2.8" height="0.76" transform="translate(-31.52 21.87) rotate(-21.72)"/><rect class="cls-8" x="31.32" y="95.41" width="6.22" height="0.76" transform="translate(-33.01 19.55) rotate(-21.72)"/><rect class="cls-7" x="47.4" y="92.54" width="5.6" height="0.76" transform="translate(-30.82 25.17) rotate(-21.72)"/><rect class="cls-8" x="42.3" y="95.13" width="2.8" height="0.76" transform="translate(-32.24 22.95) rotate(-21.72)"/><rect class="cls-2" x="30.72" y="98.96" width="6.71" height="0.76" transform="translate(-34.34 19.67) rotate(-21.72)"/><path class="cls-2" d="M26.27,90.55,27.62,89l.1.25-1.14,1.29h0l1.71.15.1.25-2-.2Z"/><path class="cls-2" d="M27.86,88.14l.32-.13.44,1.11h0a.65.65,0,0,1,.14-.32.71.71,0,0,1,.29-.22c.24-.09.67-.1.92.52l.42,1.06-.32.13-.41-1c-.11-.29-.32-.49-.62-.37a.5.5,0,0,0-.3.49.43.43,0,0,0,0,.16l.43,1.07-.32.13-1-2.61Z"/><path class="cls-2" d="M30.38,87.51l.2.51.46-.18.1.25-.46.18.38,1c.09.22.2.32.38.25a.79.79,0,0,0,.18-.1l.11.24a.83.83,0,0,1-.27.16.47.47,0,0,1-.4,0,.71.71,0,0,1-.31-.41l-.39-1-.27.11-.1-.25.27-.11-.17-.43Z"/><path class="cls-2" d="M31.6,88.17c-.07-.18-.14-.33-.21-.48l.28-.11.13.28h0a.66.66,0,0,1,.42-.55.56.56,0,0,1,.64.16h0a.8.8,0,0,1,.1-.31.65.65,0,0,1,.34-.28c.23-.09.64-.08.89.54l.42,1-.31.13-.4-1c-.14-.34-.34-.5-.6-.4a.45.45,0,0,0-.26.45.57.57,0,0,0,0,.17l.44,1.1-.31.13L32.8,88c-.11-.28-.32-.44-.56-.34a.47.47,0,0,0-.27.48.5.5,0,0,0,0,.17l.43,1.07-.31.13Z"/><path class="cls-2" d="M34.12,85.65l.32-.13,1,2.61-.32.13Z"/><path class="cls-2" d="M37.34,86.38,36,87.93l-.1-.25L37,86.38h0l-1.72-.15-.1-.25,2,.2Z"/><path class="cls-2" d="M33.48,108.64l1.34-1.55.1.25-1.14,1.29h0l1.71.15.1.25-2-.2Z"/><path class="cls-2" d="M35.9,109.09l0-3.07.25-.1,0,3.07Z"/><path class="cls-2" d="M36.32,105.73l.32-.13.44,1.11h0a.65.65,0,0,1,.14-.32.71.71,0,0,1,.29-.22c.24-.09.67-.1.92.52l.42,1.06-.32.13-.41-1c-.11-.29-.32-.49-.62-.37a.5.5,0,0,0-.3.49.43.43,0,0,0,0,.16l.43,1.07-.32.13-1-2.61Z"/><path class="cls-2" d="M38.84,105.1l.2.51.46-.18.1.25-.46.18.38,1c.09.22.2.32.38.25a.79.79,0,0,0,.18-.1l.11.24a.83.83,0,0,1-.27.16.47.47,0,0,1-.4,0,.71.71,0,0,1-.31-.41l-.39-1-.27.11-.1-.25.27-.11-.17-.43Z"/><path class="cls-2" d="M40.06,105.76c-.07-.18-.14-.33-.21-.48l.28-.11.13.28h0a.66.66,0,0,1,.42-.55.56.56,0,0,1,.64.16h0a.8.8,0,0,1,.1-.31.65.65,0,0,1,.34-.28c.23-.09.64-.08.89.54l.42,1-.31.13-.4-1c-.14-.34-.34-.5-.6-.4a.45.45,0,0,0-.26.45.57.57,0,0,0,0,.17l.44,1.1-.31.13-.43-1.07c-.11-.28-.32-.44-.56-.34a.47.47,0,0,0-.27.48.5.5,0,0,0,0,.17l.43,1.07-.31.12-.52-1.3Z"/><path class="cls-2" d="M42.57,103.24l.32-.13,1,2.61-.32.13Z"/><path class="cls-2" d="M45.79,104l-1.34,1.55-.1-.25L45.5,104h0l-1.72-.15-.1-.25,2,.2Z"/></g><g class="cls-1"><path class="cls-2" d="M369,425.93l26.1,32.46a1.36,1.36,0,0,1-.2,1.87L346.12,499.5a1.36,1.36,0,0,1-1.87-.21l-26.1-32.46Z"/><path class="cls-3" d="M318.15,466.82l-3.35-4.17a1.36,1.36,0,0,1,.2-1.87l48.81-39.23a1.36,1.36,0,0,1,1.87.21l3.35,4.17Z"/><rect class="cls-3" x="319.08" y="432.6" width="27.94" height="1.34" transform="translate(-197.98 304.23) rotate(-38.79)"/><polygon class="cls-4" points="326.24 439.61 340.71 427.98 345.6 436.18 333.2 446.15 326.24 439.61"/><rect class="cls-5" x="327.07" y="444.31" width="59.97" height="37.64" transform="translate(-211.39 325.86) rotate(-38.79)"/><polygon class="cls-6" points="333.2 446.15 345.6 436.18 342.87 431.6 331.95 444.98 333.2 446.15"/><rect class="cls-7" x="350.03" y="475.25" width="3.78" height="1.03" transform="translate(-220.44 325.43) rotate(-38.79)"/><rect class="cls-8" x="357.4" y="469.32" width="3.78" height="1.03" transform="translate(-215.1 328.73) rotate(-38.79)"/><rect class="cls-9" x="366.03" y="461.05" width="7.11" height="1.03" transform="translate(-207.65 333.36) rotate(-38.79)"/><rect class="cls-9" x="339.9" y="466.92" width="3.78" height="1.03" transform="translate(-217.46 317.24) rotate(-38.79)"/><rect class="cls-7" x="347.27" y="461" width="3.78" height="1.03" transform="translate(-212.12 320.55) rotate(-38.79)"/><rect class="cls-9" x="353.8" y="452.71" width="11.34" height="1.03" transform="translate(-204.65 325.18) rotate(-38.79)"/><rect class="cls-2" x="344.63" y="471.81" width="9.45" height="1.03" transform="translate(-218.85 323.06) rotate(-38.79)"/><rect class="cls-9" x="355.57" y="465.3" width="3.78" height="1.03" transform="translate(-212.98 326.71) rotate(-38.79)"/><rect class="cls-8" x="360.96" y="459.11" width="8.41" height="1.03" transform="translate(-207.41 330.16) rotate(-38.79)"/><rect class="cls-7" x="342.16" y="469.07" width="7.56" height="1.03" transform="translate(-217.89 320.32) rotate(-38.79)"/><rect class="cls-8" x="351.42" y="463.15" width="3.78" height="1.03" transform="translate(-212.55 323.63) rotate(-38.79)"/><rect class="cls-2" x="359.68" y="454.38" width="9.07" height="1.03" transform="translate(-204.66 328.52) rotate(-38.79)"/><path class="cls-2" d="M377.78,463.16l-1.12,2.54-.23-.29,1-2.12h0l-2.27.48-.23-.29,2.72-.55Z"/><path class="cls-2" d="M376.69,466.9l-.36.29-1-1.26h0a.87.87,0,0,1-.05.47,1,1,0,0,1-.29.4c-.27.22-.83.39-1.39-.3l-1-1.2L373,465l.93,1.16c.26.33.6.5.95.23a.67.67,0,0,0,.19-.76.58.58,0,0,0-.12-.2l-1-1.22.36-.29,2.38,3Z"/><path class="cls-2" d="M373.68,468.72l-.47-.58-.52.42-.22-.28.52-.42-.87-1.09c-.2-.25-.39-.34-.59-.17a1.06,1.06,0,0,0-.19.19l-.24-.26a1.12,1.12,0,0,1,.28-.31.64.64,0,0,1,.52-.16,1,1,0,0,1,.56.41l.89,1.1.31-.25.22.28-.31.25.39.48Z"/><path class="cls-2" d="M371.84,468.34c.17.21.31.38.46.53l-.32.26-.28-.31h0a.89.89,0,0,1-.33.88.76.76,0,0,1-.89.05h0a1.08,1.08,0,0,1,0,.44.88.88,0,0,1-.33.5c-.26.21-.8.35-1.36-.35l-1-1.19.36-.29.92,1.14c.31.39.64.51.93.27a.6.6,0,0,0,.16-.68.78.78,0,0,0-.12-.21l-1-1.25.36-.29,1,1.21c.26.32.59.44.86.22a.64.64,0,0,0,.16-.73.68.68,0,0,0-.12-.2l-1-1.22.36-.29Z"/><path class="cls-2" d="M369.59,472.6l-.36.29-2.38-3,.36-.29Z"/><path class="cls-2" d="M365.14,472.94l1.12-2.53.23.29-1,2.13h0l2.29-.49.23.29-2.72.55Z"/><path class="cls-2" d="M361.3,442.65l-1.12,2.54-.23-.29,1-2.12h0l-2.27.48-.23-.29,2.72-.55Z"/><path class="cls-2" d="M358,443l1.28,4-.28.23-1.27-4Z"/><path class="cls-2" d="M358.79,447.53l-.36.29-1-1.26h0a.87.87,0,0,1-.05.47,1,1,0,0,1-.29.4c-.27.22-.83.39-1.39-.3l-1-1.2.36-.29.93,1.16c.26.33.6.5.95.23a.67.67,0,0,0,.19-.76.58.58,0,0,0-.12-.2l-1-1.22.36-.29,2.38,3Z"/><path class="cls-2" d="M355.78,449.35l-.47-.58-.52.42-.22-.28.52-.42-.87-1.09c-.2-.25-.39-.34-.59-.17a1.06,1.06,0,0,0-.19.19l-.24-.26a1.12,1.12,0,0,1,.28-.31.64.64,0,0,1,.52-.16,1,1,0,0,1,.56.41l.89,1.1.31-.25.22.28-.31.25.39.48Z"/><path class="cls-2" d="M353.94,449c.17.21.31.38.46.53l-.32.26-.28-.31h0a.89.89,0,0,1-.33.88.76.76,0,0,1-.89.05h0a1.08,1.08,0,0,1,0,.44.88.88,0,0,1-.33.5c-.26.21-.8.35-1.36-.35l-1-1.19.36-.29.92,1.14c.31.39.64.51.93.27a.6.6,0,0,0,.16-.68.78.78,0,0,0-.12-.21l-1-1.25.36-.29,1,1.21c.26.32.59.44.86.22a.64.64,0,0,0,.16-.73.68.68,0,0,0-.12-.2l-1-1.22.36-.29,1.18,1.47Z"/><path class="cls-2" d="M351.69,453.23l-.36.29-2.38-3,.36-.29Z"/><path class="cls-2" d="M347.24,453.57l1.12-2.53.23.29-1,2.13h0l2.29-.49.23.29-2.72.55Z"/></g><g class="cls-1"><path class="cls-2" d="M618.47,301l26.1,32.46a1.36,1.36,0,0,1-.2,1.87l-48.81,39.23a1.36,1.36,0,0,1-1.87-.21l-26.1-32.46Z"/><path class="cls-3" d="M567.6,341.89l-3.35-4.17a1.36,1.36,0,0,1,.2-1.87l48.81-39.23a1.36,1.36,0,0,1,1.87.21l3.35,4.17Z"/><rect class="cls-3" x="568.53" y="307.67" width="27.94" height="1.34" transform="translate(-64.69 432.95) rotate(-38.79)"/><polygon class="cls-4" points="575.69 314.67 590.15 303.04 595.05 311.25 582.65 321.22 575.69 314.67"/><rect class="cls-5" x="576.52" y="319.38" width="59.97" height="37.64" transform="translate(-78.1 454.58) rotate(-38.79)"/><polygon class="cls-6" points="582.65 321.22 595.05 311.25 592.32 306.67 581.4 320.04 582.65 321.22"/><rect class="cls-7" x="599.47" y="350.31" width="3.78" height="1.03" transform="translate(-87.14 454.15) rotate(-38.79)"/><rect class="cls-8" x="606.84" y="344.39" width="3.78" height="1.03" transform="translate(-81.81 457.45) rotate(-38.79)"/><rect class="cls-9" x="615.47" y="336.11" width="7.11" height="1.03" transform="translate(-74.35 462.08) rotate(-38.79)"/><rect class="cls-9" x="589.34" y="341.99" width="3.78" height="1.03" transform="translate(-84.16 445.96) rotate(-38.79)"/><rect class="cls-7" x="596.71" y="336.06" width="3.78" height="1.03" transform="translate(-78.83 449.27) rotate(-38.79)"/><rect class="cls-9" x="603.24" y="327.77" width="11.34" height="1.03" transform="translate(-71.36 453.9) rotate(-38.79)"/><rect class="cls-2" x="594.08" y="346.88" width="9.45" height="1.03" transform="translate(-85.56 451.78) rotate(-38.79)"/><rect class="cls-9" x="605.02" y="340.37" width="3.78" height="1.03" transform="translate(-79.69 455.43) rotate(-38.79)"/><rect class="cls-8" x="610.4" y="334.18" width="8.41" height="1.03" transform="translate(-74.11 458.88) rotate(-38.79)"/><rect class="cls-7" x="591.61" y="344.14" width="7.56" height="1.03" transform="translate(-84.59 449.04) rotate(-38.79)"/><rect class="cls-8" x="600.86" y="338.22" width="3.78" height="1.03" transform="translate(-79.26 452.35) rotate(-38.79)"/><rect class="cls-2" x="609.12" y="329.45" width="9.07" height="1.03" transform="translate(-71.36 457.24) rotate(-38.79)"/><path class="cls-2" d="M627.23,338.22l-1.12,2.54-.23-.29,1-2.12h0l-2.27.48-.23-.29L627,338Z"/><path class="cls-2" d="M626.13,342l-.36.29-1-1.26h0a.87.87,0,0,1-.05.47,1,1,0,0,1-.29.4c-.27.22-.83.39-1.39-.3l-1-1.2.36-.29.93,1.16c.26.33.6.5.95.23a.67.67,0,0,0,.19-.76.58.58,0,0,0-.12-.2l-1-1.22.36-.29,2.38,3Z"/><path class="cls-2" d="M623.12,343.78l-.47-.58-.52.42-.22-.28.52-.42-.87-1.09c-.2-.25-.39-.34-.59-.17a1.06,1.06,0,0,0-.19.19l-.24-.26a1.12,1.12,0,0,1,.28-.31.64.64,0,0,1,.52-.16,1,1,0,0,1,.56.41l.89,1.1.31-.25.22.28-.31.25.39.48Z"/><path class="cls-2" d="M621.29,343.41c.17.21.31.38.46.53l-.32.26-.28-.31h0a.89.89,0,0,1-.33.88.76.76,0,0,1-.89.05h0a1.08,1.08,0,0,1,0,.44.88.88,0,0,1-.33.5c-.26.21-.8.35-1.36-.35l-1-1.19.36-.29.92,1.14c.31.39.64.51.93.27a.6.6,0,0,0,.16-.68.78.78,0,0,0-.12-.21l-1-1.25.36-.29,1,1.21c.26.32.59.44.86.22a.64.64,0,0,0,.16-.73.68.68,0,0,0-.12-.2l-1-1.22.36-.29Z"/><path class="cls-2" d="M619,347.67l-.36.29-2.38-3,.36-.29Z"/><path class="cls-2" d="M614.59,348l1.12-2.53.23.29-1,2.13h0l2.29-.49.23.29-2.72.55Z"/><path class="cls-2" d="M610.74,317.71l-1.12,2.54-.23-.29,1-2.12h0l-2.27.48-.23-.29,2.72-.55Z"/><path class="cls-2" d="M607.44,318.08l1.28,4-.28.23-1.27-4Z"/><path class="cls-2" d="M608.23,322.6l-.36.29-1-1.26h0a.87.87,0,0,1-.05.47,1,1,0,0,1-.29.4c-.27.22-.83.39-1.39-.3l-1-1.2.36-.29.93,1.16c.26.33.6.5.95.23a.67.67,0,0,0,.19-.76.58.58,0,0,0-.12-.2l-1-1.22.36-.29,2.38,3Z"/><path class="cls-2" d="M605.22,324.42l-.47-.58-.52.42L604,324l.52-.42-.87-1.09c-.2-.25-.39-.34-.59-.17a1.06,1.06,0,0,0-.19.19l-.24-.26a1.12,1.12,0,0,1,.28-.31.64.64,0,0,1,.52-.16,1,1,0,0,1,.56.41l.89,1.1.31-.25.22.28-.31.25.39.48Z"/><path class="cls-2" d="M603.39,324c.17.21.31.38.46.53l-.32.26-.28-.31h0a.89.89,0,0,1-.33.88.76.76,0,0,1-.89.05h0a1.08,1.08,0,0,1,0,.44.88.88,0,0,1-.33.5c-.26.21-.8.35-1.36-.35l-1-1.19.36-.29.92,1.14c.31.39.64.51.93.27a.6.6,0,0,0,.16-.68.78.78,0,0,0-.12-.21l-1-1.25.36-.29,1,1.21c.26.32.59.44.86.22a.64.64,0,0,0,.16-.73.68.68,0,0,0-.12-.2l-1-1.22.36-.29,1.18,1.47Z"/><path class="cls-2" d="M601.14,328.3l-.36.29-2.38-3,.36-.29Z"/><path class="cls-2" d="M596.69,328.64l1.12-2.53.23.29-1,2.13h0l2.29-.49.23.29-2.72.55Z"/></g><g class="cls-1"><path class="cls-2" d="M304.43,394.69,285.51,409.9a.79.79,0,0,1-1.09-.11l-22.87-28.45a.79.79,0,0,1,.12-1.09L280.59,365Z"/><path class="cls-3" d="M280.59,365l2.43-2a.79.79,0,0,1,1.09.11L307,391.65a.79.79,0,0,1-.12,1.09l-2.43,2Z"/><rect class="cls-3" x="299.76" y="365.57" width="0.78" height="16.29" transform="matrix(0.78, -0.63, 0.63, 0.78, -167.93, 270.48)"/><polygon class="cls-4" points="296.46 369.75 303.24 378.18 298.46 381.03 292.65 373.81 296.46 369.75"/><rect class="cls-5" x="271.78" y="370.23" width="21.94" height="34.96" transform="translate(-180.53 262.67) rotate(-38.79)"/><polygon class="cls-6" points="292.65 373.81 298.46 381.03 301.13 379.44 293.33 373.07 292.65 373.81"/><rect class="cls-7" x="275.08" y="383.61" width="0.6" height="2.2" transform="translate(-180.28 257.39) rotate(-38.79)"/><rect class="cls-8" x="278.54" y="387.91" width="0.6" height="2.2" transform="translate(-182.21 260.5) rotate(-38.79)"/><rect class="cls-9" x="283.36" y="392.94" width="0.6" height="4.14" transform="translate(-184.91 264.85) rotate(-38.79)"/><rect class="cls-9" x="279.94" y="377.71" width="0.6" height="2.2" transform="translate(-175.51 259.13) rotate(-38.79)"/><rect class="cls-7" x="283.39" y="382" width="0.6" height="2.2" transform="translate(-177.44 262.24) rotate(-38.79)"/><rect class="cls-9" x="288.22" y="385.81" width="0.6" height="6.61" transform="translate(-180.14 266.6) rotate(-38.79)"/><rect class="cls-2" x="277.09" y="380.47" width="0.6" height="5.51" transform="matrix(0.78, -0.63, 0.63, 0.78, -178.91, 258.32)"/><rect class="cls-9" x="280.88" y="386.85" width="0.6" height="2.21" transform="translate(-181.03 261.74) rotate(-38.79)"/><rect class="cls-8" x="284.49" y="389.99" width="0.6" height="4.9" transform="translate(-183.04 264.99) rotate(-38.79)"/><rect class="cls-7" x="278.68" y="379.03" width="0.6" height="4.41" transform="translate(-177.3 258.88) rotate(-38.79)"/><rect class="cls-8" x="282.14" y="384.42" width="0.6" height="2.2" transform="translate(-179.23 261.99) rotate(-38.79)"/><rect class="cls-2" x="287.25" y="389.24" width="0.6" height="5.29" transform="translate(-182.09 266.59) rotate(-38.79)"/><path class="cls-2" d="M282.73,399.79l-1.48-.65.17-.13,1.23.56h0l-.28-1.33.17-.13.32,1.59Z"/><path class="cls-2" d="M280.55,399.16l-.17-.21.73-.59h0a.51.51,0,0,1-.27,0,.56.56,0,0,1-.24-.17c-.13-.16-.23-.49.18-.81l.7-.56.17.21-.68.54c-.19.15-.29.35-.13.55a.39.39,0,0,0,.44.11.34.34,0,0,0,.11-.07l.71-.57.17.21-1.73,1.39Z"/><path class="cls-2" d="M279.49,397.4l.34-.27-.24-.3.16-.13.24.3.63-.51c.15-.12.2-.22.1-.34a.62.62,0,0,0-.11-.11l.15-.14a.65.65,0,0,1,.18.16.37.37,0,0,1,.09.3.56.56,0,0,1-.24.33l-.64.52.15.18-.16.13-.15-.18-.28.23Z"/><path class="cls-2" d="M279.71,396.33l-.31.27-.15-.19.18-.16h0a.52.52,0,0,1-.51-.19.44.44,0,0,1,0-.52h0a.63.63,0,0,1-.26,0,.51.51,0,0,1-.29-.19c-.12-.15-.21-.47.2-.79l.69-.56.17.21-.67.54c-.23.18-.3.37-.16.54a.35.35,0,0,0,.4.09l.12-.07.73-.58.17.21-.71.57c-.19.15-.26.34-.13.5a.37.37,0,0,0,.43.09l.12-.07.71-.57.17.21Z"/><path class="cls-2" d="M277.23,395l-.17-.21,1.73-1.39.17.21Z"/><path class="cls-2" d="M277,392.43l1.48.65-.17.13-1.24-.57h0l.29,1.33-.17.13-.32-1.58Z"/><path class="cls-2" d="M294.69,390.18l-1.48-.65.17-.13,1.23.56h0l-.28-1.33.17-.13.32,1.59Z"/><path class="cls-2" d="M294.47,388.26l-2.3.74-.13-.16,2.31-.74Z"/><path class="cls-2" d="M291.84,388.72l-.17-.21.73-.59h0a.51.51,0,0,1-.27,0,.56.56,0,0,1-.24-.17c-.13-.16-.23-.49.18-.81l.7-.56.17.21-.68.54c-.19.15-.29.35-.13.55a.39.39,0,0,0,.44.11.34.34,0,0,0,.11-.07l.71-.57.17.21-1.73,1.39Z"/><path class="cls-2" d="M290.78,387l.34-.27-.24-.3.16-.13.24.3.63-.51c.15-.12.2-.22.1-.34a.62.62,0,0,0-.11-.11l.15-.14a.65.65,0,0,1,.18.16.37.37,0,0,1,.09.3.56.56,0,0,1-.24.33l-.64.52.15.18-.16.13-.15-.18-.28.23Z"/><path class="cls-2" d="M291,385.89l-.31.27-.15-.19.18-.16h0a.52.52,0,0,1-.51-.19.44.44,0,0,1,0-.52h0a.63.63,0,0,1-.26,0,.51.51,0,0,1-.29-.19c-.12-.15-.21-.47.2-.79l.69-.56.17.21-.67.54c-.23.18-.3.37-.16.54a.35.35,0,0,0,.4.09l.12-.07.73-.58.17.21-.71.57c-.19.15-.26.34-.13.5a.37.37,0,0,0,.43.09l.12-.07.71-.57.17.21-.86.69Z"/><path class="cls-2" d="M288.52,384.58l-.17-.21,1.73-1.39.17.21Z"/><path class="cls-2" d="M288.32,382l1.48.65-.17.13-1.24-.57h0l.29,1.33-.17.13-.32-1.58Z"/></g><g class="cls-1"><path class="cls-2" d="M161.31,227.49l-24,19.27a1,1,0,0,1-1.38-.14l-29-36a1,1,0,0,1,.16-1.38l24-19.27Z"/><path class="cls-3" d="M131.12,189.93l3.08-2.47a1,1,0,0,1,1.38.14l29,36a1,1,0,0,1-.16,1.38l-3.08,2.47Z"/><rect class="cls-3" x="155.4" y="190.61" width="0.99" height="20.63" transform="matrix(0.78, -0.63, 0.63, 0.78, -91.5, 141.99)"/><polygon class="cls-4" points="151.21 195.9 159.8 206.58 153.74 210.19 146.38 201.04 151.21 195.9"/><rect class="cls-5" x="119.95" y="196.51" width="27.79" height="44.28" transform="translate(-107.46 132.08) rotate(-38.79)"/><polygon class="cls-6" points="146.38 201.04 153.74 210.19 157.12 208.18 147.25 200.11 146.38 201.04"/><rect class="cls-7" x="124.14" y="213.46" width="0.76" height="2.79" transform="translate(-107.14 125.41) rotate(-38.79)"/><rect class="cls-8" x="128.51" y="218.9" width="0.76" height="2.79" transform="translate(-109.59 129.34) rotate(-38.79)"/><rect class="cls-9" x="134.62" y="225.28" width="0.76" height="5.25" transform="translate(-113 134.85) rotate(-38.79)"/><rect class="cls-9" x="130.28" y="205.98" width="0.76" height="2.79" transform="translate(-101.1 127.61) rotate(-38.79)"/><rect class="cls-7" x="134.66" y="211.42" width="0.76" height="2.79" transform="matrix(0.78, -0.63, 0.63, 0.78, -103.54, 131.55)"/><rect class="cls-9" x="140.78" y="216.25" width="0.76" height="8.38" transform="translate(-106.97 137.06) rotate(-38.79)"/><rect class="cls-2" x="126.67" y="209.48" width="0.76" height="6.98" transform="translate(-105.4 126.58) rotate(-38.79)"/><rect class="cls-9" x="131.48" y="217.56" width="0.76" height="2.79" transform="translate(-108.09 130.91) rotate(-38.79)"/><rect class="cls-8" x="136.05" y="221.53" width="0.76" height="6.21" transform="translate(-110.64 135.03) rotate(-38.79)"/><rect class="cls-7" x="128.7" y="207.65" width="0.76" height="5.58" transform="translate(-103.37 127.29) rotate(-38.79)"/><rect class="cls-8" x="133.07" y="214.49" width="0.76" height="2.79" transform="translate(-105.82 131.23) rotate(-38.79)"/><rect class="cls-2" x="139.54" y="220.59" width="0.76" height="6.7" transform="translate(-109.43 137.06) rotate(-38.79)"/><path class="cls-2" d="M133.82,234l-1.88-.83.21-.17,1.56.71h0l-.36-1.68.21-.17.4,2Z"/><path class="cls-2" d="M131.06,233.15l-.22-.27.93-.75h0a.65.65,0,0,1-.35,0,.71.71,0,0,1-.3-.21c-.16-.2-.29-.61.22-1l.89-.71.22.27-.86.69c-.24.19-.37.44-.17.7a.5.5,0,0,0,.56.14.43.43,0,0,0,.14-.09l.9-.72.22.27-2.19,1.76Z"/><path class="cls-2" d="M129.72,230.93l.43-.34-.31-.38L130,230l.31.38.8-.65c.18-.15.25-.28.13-.43a.78.78,0,0,0-.14-.14l.19-.18a.83.83,0,0,1,.23.21.47.47,0,0,1,.12.38.71.71,0,0,1-.3.42l-.81.65.18.23-.21.17-.18-.23-.36.29Z"/><path class="cls-2" d="M130,229.57l-.39.34-.19-.23.23-.21h0a.65.65,0,0,1-.65-.24.56.56,0,0,1,0-.66h0a.8.8,0,0,1-.33,0,.65.65,0,0,1-.37-.24c-.16-.2-.26-.59.26-1l.88-.71.21.26-.84.68c-.29.23-.38.47-.2.69a.45.45,0,0,0,.5.12.57.57,0,0,0,.15-.09l.92-.74.21.26-.89.72c-.24.19-.33.43-.16.64a.47.47,0,0,0,.54.11.5.5,0,0,0,.15-.09l.9-.72.21.26Z"/><path class="cls-2" d="M126.85,227.91l-.22-.27,2.19-1.76.22.27Z"/><path class="cls-2" d="M126.6,224.62l1.87.83-.21.17-1.57-.72h0l.36,1.69-.21.17-.41-2Z"/><path class="cls-2" d="M149,221.78l-1.88-.83.21-.17,1.56.71h0l-.36-1.68.21-.17.4,2Z"/><path class="cls-2" d="M148.69,219.34l-2.92.94-.17-.21,2.92-.94Z"/><path class="cls-2" d="M145.36,219.93l-.22-.27.93-.75h0a.65.65,0,0,1-.35,0,.71.71,0,0,1-.3-.21c-.16-.2-.29-.61.22-1l.89-.71.22.27-.86.69c-.24.19-.37.44-.17.7a.5.5,0,0,0,.56.14.43.43,0,0,0,.14-.09l.9-.72.22.27-2.19,1.76Z"/><path class="cls-2" d="M144,217.71l.43-.34-.31-.38.21-.17.31.38.8-.65c.18-.15.25-.28.13-.43a.78.78,0,0,0-.14-.14l.19-.18a.83.83,0,0,1,.23.21.47.47,0,0,1,.12.38.71.71,0,0,1-.3.42l-.81.65.18.23-.21.17-.18-.23-.36.29Z"/><path class="cls-2" d="M144.3,216.35l-.39.34-.19-.23.23-.21h0a.65.65,0,0,1-.65-.24.56.56,0,0,1,0-.66h0a.8.8,0,0,1-.33,0,.65.65,0,0,1-.37-.24c-.16-.2-.26-.59.26-1l.88-.71.21.26-.84.68c-.29.23-.38.47-.2.69a.45.45,0,0,0,.5.12.57.57,0,0,0,.15-.09l.92-.74.21.26-.89.72c-.24.19-.33.43-.16.64a.47.47,0,0,0,.54.11.5.5,0,0,0,.15-.09l.9-.72.21.26-1.09.87Z"/><path class="cls-2" d="M141.15,214.69l-.22-.27,2.19-1.76.22.27Z"/><path class="cls-2" d="M140.9,211.4l1.87.83-.21.17-1.57-.72h0l.36,1.69-.21.17-.41-2Z"/></g><g class="cls-1"><path class="cls-2" d="M433.25,279.92l-.86,7.9a.26.26,0,0,1-.28.23l-11.88-1.29a.26.26,0,0,1-.22-.28l.86-7.9Z"/><path class="cls-3" d="M420.87,278.57l.11-1a.26.26,0,0,1,.28-.23l11.88,1.29a.26.26,0,0,1,.22.28l-.11,1Z"/><rect class="cls-3" x="427.28" y="273.39" width="0.26" height="5.33" transform="translate(106.76 671.11) rotate(-83.79)"/><polygon class="cls-4" points="425.63 275.99 429.15 276.37 428.71 278.14 425.69 277.81 425.63 275.99"/><rect class="cls-5" x="423.03" y="277.6" width="7.18" height="11.44" transform="translate(98.83 676.81) rotate(-83.79)"/><polygon class="cls-6" points="425.69 277.81 428.71 278.14 428.96 277.15 425.68 277.49 425.69 277.81"/><rect class="cls-7" x="424.12" y="283.97" width="0.2" height="0.72" transform="translate(95.68 675.32) rotate(-83.79)"/><rect class="cls-8" x="425.92" y="284.17" width="0.2" height="0.72" transform="translate(97.09 677.28) rotate(-83.79)"/><rect class="cls-9" x="428.42" y="284.12" width="0.2" height="1.36" transform="translate(99.05 680.02) rotate(-83.79)"/><rect class="cls-9" x="423.88" y="281.48" width="0.2" height="0.72" transform="matrix(0.11, -0.99, 0.99, 0.11, 97.94, 672.86)"/><rect class="cls-7" x="425.67" y="281.68" width="0.2" height="0.72" transform="translate(99.35 674.82) rotate(-83.79)"/><rect class="cls-9" x="428.18" y="281.23" width="0.2" height="2.16" transform="translate(101.32 677.56) rotate(-83.79)"/><rect class="cls-2" x="424.24" y="282.62" width="0.2" height="1.8" transform="translate(96.59 674.72) rotate(-83.79)"/><rect class="cls-9" x="426.21" y="283.38" width="0.2" height="0.72" transform="translate(98.14 676.87) rotate(-83.79)"/><rect class="cls-8" x="428.09" y="283.14" width="0.2" height="1.6" transform="translate(99.61 678.92) rotate(-83.79)"/><rect class="cls-7" x="424.15" y="281.97" width="0.2" height="1.44" transform="translate(97.34 673.89) rotate(-83.79)"/><rect class="cls-8" x="425.94" y="282.53" width="0.2" height="0.72" transform="translate(98.74 675.84) rotate(-83.79)"/><rect class="cls-2" x="428.6" y="282.31" width="0.2" height="1.73" transform="translate(100.82 678.74) rotate(-83.79)"/><path class="cls-2" d="M429.41,286.12l-.49.19v-.07l.42-.16h0l-.37-.24v-.07l.44.29Z"/><path class="cls-2" d="M428.76,286.48h-.09l0-.31h0a.17.17,0,0,1-.07.06l-.09,0c-.07,0-.17-.06-.15-.23l0-.29h.09l0,.28c0,.08,0,.15.1.16a.13.13,0,0,0,.13-.08.11.11,0,0,0,0,0l0-.3h.09l-.08.72Z"/><path class="cls-2" d="M428.11,286.32l0-.14H428v-.07h.13l0-.26c0-.06,0-.1-.06-.1h-.05v-.07h.08a.12.12,0,0,1,.09,0,.18.18,0,0,1,0,.13l0,.27h.08v.07h-.08v.12Z"/><path class="cls-2" d="M427.91,286c0,.05,0,.09,0,.13h-.08v-.08h0a.17.17,0,0,1-.16.07.14.14,0,0,1-.13-.11h0l-.06.06a.17.17,0,0,1-.11,0c-.06,0-.16-.06-.14-.23l0-.29h.09l0,.28c0,.09,0,.15.09.16a.12.12,0,0,0,.11-.07v0l0-.3h.09l0,.29c0,.08,0,.14.09.15a.12.12,0,0,0,.12-.08.13.13,0,0,0,0,0l0-.3h.09Z"/><path class="cls-2" d="M427,286.29h-.09l.08-.72h.09Z"/><path class="cls-2" d="M426.39,285.74l.49-.19v.07l-.42.16h0l.38.24v.07l-.44-.29Z"/><path class="cls-2" d="M430,281.13l-.49.19v-.07l.42-.16h0l-.37-.24v-.07l.44.29Z"/><path class="cls-2" d="M429.46,280.74l-.36.71H429l.36-.71Z"/><path class="cls-2" d="M429,281.45h-.09l0-.31h0a.17.17,0,0,1-.07.06l-.09,0c-.07,0-.17-.06-.15-.23l0-.29h.09l0,.28c0,.08,0,.15.1.16a.13.13,0,0,0,.13-.08.11.11,0,0,0,0,0l0-.3H429l-.08.72Z"/><path class="cls-2" d="M428.3,281.29l0-.14h-.13v-.07h.13l0-.26c0-.06,0-.1-.06-.1h-.05v-.07h.08a.12.12,0,0,1,.09,0,.18.18,0,0,1,0,.13l0,.27h.08v.07h-.08v.12Z"/><path class="cls-2" d="M428.11,281c0,.05,0,.09,0,.13H428V281h0a.17.17,0,0,1-.16.07.14.14,0,0,1-.13-.11h0l-.06.06a.17.17,0,0,1-.11,0c-.06,0-.16-.06-.14-.23l0-.29h.09l0,.28c0,.09,0,.15.09.16a.12.12,0,0,0,.11-.07v0l0-.3h.09l0,.29c0,.08,0,.14.09.15A.12.12,0,0,0,428,281a.13.13,0,0,0,0,0l0-.3h.09l0,.36Z"/><path class="cls-2" d="M427.23,281.26h-.09l.08-.72h.09Z"/><path class="cls-2" d="M426.58,280.71l.49-.19v.07l-.42.16h0l.38.24v.07l-.44-.29Z"/></g><g class="cls-1"><path class="cls-2" d="M538.27,406.35l-25.09,22.74a1.25,1.25,0,0,1-1.7-.26l-42.38-46.75a1.25,1.25,0,0,1-.09-1.72l25.09-22.74Z"/><path class="cls-3" d="M494.1,357.62l3.22-2.92a1.25,1.25,0,0,1,1.7.26l42.38,46.75a1.25,1.25,0,0,1,.09,1.72l-3.22,2.92Z"/><rect class="cls-3" x="525.77" y="358.73" width="1.09" height="28.16" transform="translate(-114.01 450.07) rotate(-42.19)"/><polygon class="cls-4" points="519.63 366.24 532.19 380.1 525.6 384.27 514.83 372.4 519.63 366.24"/><rect class="cls-5" x="487.94" y="363.51" width="30.6" height="60.42" transform="translate(-134.04 440) rotate(-42.19)"/><polygon class="cls-6" points="514.83 372.4 525.6 384.27 529.28 381.94 515.69 371.29 514.83 372.4"/><rect class="cls-7" x="490.77" y="386.53" width="0.84" height="3.81" transform="translate(-133.61 430.53) rotate(-42.19)"/><rect class="cls-8" x="497.17" y="393.59" width="0.84" height="3.81" transform="translate(-136.7 436.66) rotate(-42.19)"/><rect class="cls-9" x="506.11" y="401.77" width="0.84" height="7.16" transform="translate(-141 445.21) rotate(-42.19)"/><rect class="cls-9" x="496.69" y="377.52" width="0.84" height="3.81" transform="translate(-126.03 432.17) rotate(-42.19)"/><rect class="cls-7" x="503.09" y="384.58" width="0.84" height="3.81" transform="translate(-129.11 438.3) rotate(-42.19)"/><rect class="cls-9" x="512.04" y="390.65" width="0.84" height="11.43" transform="translate(-133.43 446.87) rotate(-42.19)"/><rect class="cls-2" x="493.45" y="381.46" width="0.84" height="9.52" transform="translate(-131.43 431.76) rotate(-42.19)"/><rect class="cls-9" x="500.49" y="392.08" width="0.84" height="3.81" transform="translate(-134.82 438.49) rotate(-42.19)"/><rect class="cls-8" x="507.17" y="397.12" width="0.84" height="8.47" transform="translate(-138.04 444.89) rotate(-42.19)"/><rect class="cls-7" x="495.39" y="379.37" width="0.84" height="7.62" transform="translate(-128.88 432.27) rotate(-42.19)"/><rect class="cls-8" x="501.79" y="388.33" width="0.84" height="3.81" transform="translate(-131.96 438.39) rotate(-42.19)"/><rect class="cls-2" x="511.25" y="396.11" width="0.84" height="9.14" transform="translate(-136.53 447.46) rotate(-42.19)"/><path class="cls-2" d="M506.33,412.86l-2.44-1.14.22-.2,2,1h0l-.77-2.12.22-.2.9,2.54Z"/><path class="cls-2" d="M502.82,411.7l-.32-.35,1-.88h0a.82.82,0,0,1-.43-.07,1.15,1.15,0,0,1-.4-.28.84.84,0,0,1,.06-1.27l.93-.84.32.35-.9.81a.55.55,0,0,0-.06.86.67.67,0,0,0,.71.21.39.39,0,0,0,.16-.1l.94-.85.32.35-2.29,2.08Z"/><path class="cls-2" d="M500.75,408.84l.45-.41-.45-.5.22-.2.45.5.84-.76c.19-.18.24-.34.07-.54a1.31,1.31,0,0,0-.2-.19l.2-.21a1.38,1.38,0,0,1,.32.27.73.73,0,0,1,.22.48.68.68,0,0,1-.28.5l-.85.77.27.3-.22.2-.27-.3-.37.34Z"/><path class="cls-2" d="M500.81,407.16c-.16.15-.29.27-.41.4l-.28-.3.24-.24h0a.94.94,0,0,1-.83-.34.77.77,0,0,1-.18-.83h0a1,1,0,0,1-.4,0,1,1,0,0,1-.49-.33.82.82,0,0,1,.11-1.24l.92-.83.31.34-.88.8c-.3.27-.36.57-.1.85a.6.6,0,0,0,.63.18.52.52,0,0,0,.17-.1l1-.87.31.34-.93.85a.52.52,0,0,0-.07.79.63.63,0,0,0,.67.17.46.46,0,0,0,.16-.1l.94-.85.31.34Z"/><path class="cls-2" d="M496.66,404.9l-.32-.35,2.29-2.07.32.35Z"/><path class="cls-2" d="M495.7,400.78l2.43,1.14-.22.2-2-1h0l.78,2.13-.22.2-.9-2.53Z"/><path class="cls-2" d="M522.18,398.5l-2.44-1.14.22-.2,2,1h0l-.77-2.12.22-.2.9,2.54Z"/><path class="cls-2" d="M521.35,395.43l-3.34,1-.24-.27,3.34-1Z"/><path class="cls-2" d="M517.44,396l-.32-.35,1-.88h0a.82.82,0,0,1-.43-.07,1.15,1.15,0,0,1-.4-.28.84.84,0,0,1,.06-1.27l.93-.84.32.35-.9.81a.55.55,0,0,0-.06.86.67.67,0,0,0,.71.21.39.39,0,0,0,.16-.1l.94-.85.32.35L517.44,396Z"/><path class="cls-2" d="M515.36,393.12l.45-.41-.45-.5.22-.2.45.5.84-.76c.19-.18.24-.34.07-.54a1.31,1.31,0,0,0-.2-.19l.2-.21a1.38,1.38,0,0,1,.32.27.73.73,0,0,1,.22.48.68.68,0,0,1-.28.5l-.85.77.27.3-.22.2-.27-.3-.37.34Z"/><path class="cls-2" d="M515.42,391.44c-.16.15-.29.27-.41.4l-.28-.3.24-.24h0a.94.94,0,0,1-.83-.34.77.77,0,0,1-.18-.83h0a1,1,0,0,1-.4,0,1,1,0,0,1-.49-.33.82.82,0,0,1,.11-1.24l.92-.83.31.34-.88.8c-.3.27-.36.57-.1.85a.6.6,0,0,0,.63.18.52.52,0,0,0,.17-.1l1-.87.31.34-.93.85a.52.52,0,0,0-.07.79.63.63,0,0,0,.67.17.46.46,0,0,0,.16-.1l.94-.85.31.34-1.14,1Z"/><path class="cls-2" d="M511.28,389.18l-.32-.35,2.29-2.07.32.35Z"/><path class="cls-2" d="M510.31,385.05l2.43,1.14-.22.2-2-1h0l.78,2.13-.22.2-.9-2.53Z"/></g><path class="cls-10" d="M138.81,324.66V94.85a7.51,7.51,0,0,1,7.38-7.38h348.4A7.51,7.51,0,0,1,502,94.85V324.66Z"/><path class="cls-11" d="M502,324.66v29.51a7.51,7.51,0,0,1-7.38,7.38H146.19a7.51,7.51,0,0,1-7.38-7.38V324.66Z"/><rect class="cls-11" x="242.65" y="413.74" width="155.47" height="7.38"/><polygon class="cls-12" points="372.02 413.74 268.75 413.74 276.13 361.54 364.65 361.54 372.02 413.74"/><rect class="cls-5" x="153.57" y="102.23" width="333.64" height="207.68"/><polygon class="cls-13" points="364.65 361.54 276.13 361.54 272.01 390.68 365.98 370.92 364.65 361.54"/><rect class="cls-14" x="376.17" y="166.68" width="21.03" height="5.67"/><rect class="cls-15" x="323.58" y="166.68" width="21.03" height="5.67"/><rect class="cls-10" x="240.84" y="166.68" width="39.55" height="5.67"/><rect class="cls-10" x="391.09" y="237.5" width="21.04" height="5.67"/><rect class="cls-10" x="338.49" y="237.5" width="21.03" height="5.67"/><rect class="cls-10" x="243.83" y="237.5" width="63.11" height="5.67"/><rect class="cls-16" x="359.53" y="190.28" width="52.59" height="5.67"/><rect class="cls-10" x="317.45" y="190.28" width="21.05" height="5.67"/><rect class="cls-15" x="249.65" y="190.28" width="46.77" height="5.67"/><rect class="cls-10" x="370.05" y="213.9" width="42.07" height="5.67"/><rect class="cls-15" x="327.99" y="213.9" width="21.04" height="5.67"/><rect class="cls-16" x="235.45" y="213.9" width="50.46" height="5.67"/><path class="cls-16" d="M230.61,134.32l13.7-7.06v2l-11.54,5.79v.06l11.54,5.79v2l-13.7-7.05Z"/><path class="cls-16" d="M248.39,122H251v8.91h.06a4.84,4.84,0,0,1,1.86-1.83,5.37,5.37,0,0,1,2.66-.74c1.92,0,5,1.18,5,6.11V143H258v-8.2c0-2.3-.85-4.25-3.3-4.25a3.73,3.73,0,0,0-3.48,2.59,3.16,3.16,0,0,0-.18,1.24V143h-2.6V122Z"/><path class="cls-16" d="M267.79,124.58v4.1h3.72v2h-3.72v7.71c0,1.77.5,2.77,1.95,2.77a6,6,0,0,0,1.51-.18l.12,1.95a6.28,6.28,0,0,1-2.3.35,3.58,3.58,0,0,1-2.8-1.09c-.74-.77-1-2-1-3.72v-7.8H263v-2h2.22v-3.43Z"/><path class="cls-16" d="M274.43,132.55c0-1.48,0-2.69-.12-3.87h2.27l.12,2.3h.09a4.93,4.93,0,0,1,4.49-2.63,4.22,4.22,0,0,1,4,2.86h.06a6,6,0,0,1,1.59-1.86,4.9,4.9,0,0,1,3.17-1c1.89,0,4.69,1.24,4.69,6.2V143h-2.54v-8.09c0-2.74-1-4.4-3.1-4.4a3.36,3.36,0,0,0-3.07,2.36,4.25,4.25,0,0,0-.2,1.3V143h-2.54v-8.56c0-2.27-1-3.93-3-3.93a3.55,3.55,0,0,0-3.22,2.6,3.71,3.71,0,0,0-.2,1.27V143h-2.55Z"/><path class="cls-16" d="M299,122h2.6v21H299Z"/><path class="cls-16" d="M319.5,135.94l-13.7,7v-2l11.63-5.79v-.06l-11.63-5.79v-2l13.7,7Z"/><path class="cls-16" d="M230.61,279.48l13.7-7.06v2l-11.54,5.79v.06l11.54,5.79v2l-13.7-7.05Z"/><path class="cls-16" d="M246.22,289.32l8.23-21.4h2l-8.27,21.4Z"/><path class="cls-16" d="M258.52,267.17h2.6v8.91h.06a4.84,4.84,0,0,1,1.86-1.83,5.37,5.37,0,0,1,2.66-.74c1.92,0,5,1.18,5,6.11v8.5h-2.6v-8.2c0-2.3-.85-4.25-3.3-4.25a3.73,3.73,0,0,0-3.48,2.59,3.16,3.16,0,0,0-.18,1.24v8.62h-2.6v-21Z"/><path class="cls-16" d="M277.92,269.74v4.1h3.72v2h-3.72v7.71c0,1.77.5,2.77,1.95,2.77a6,6,0,0,0,1.51-.18l.12,1.95a6.28,6.28,0,0,1-2.3.35,3.58,3.58,0,0,1-2.8-1.09c-.74-.77-1-2-1-3.72v-7.8h-2.22v-2h2.22v-3.43Z"/><path class="cls-16" d="M284.56,277.71c0-1.48,0-2.69-.12-3.87h2.27l.12,2.3h.09a4.93,4.93,0,0,1,4.49-2.63,4.22,4.22,0,0,1,4,2.86h.06a6,6,0,0,1,1.59-1.86,4.9,4.9,0,0,1,3.17-1c1.89,0,4.69,1.24,4.69,6.2v8.41h-2.54V280c0-2.74-1-4.4-3.1-4.4a3.36,3.36,0,0,0-3.07,2.36,4.25,4.25,0,0,0-.2,1.3v8.83H293.5v-8.56c0-2.27-1-3.93-3-3.93a3.55,3.55,0,0,0-3.22,2.6,3.71,3.71,0,0,0-.2,1.27v8.62h-2.54V277.71Z"/><path class="cls-16" d="M309.17,267.17h2.6v21h-2.6Z"/><path class="cls-16" d="M329.63,281.11l-13.7,7v-2l11.63-5.79v-.06l-11.63-5.79v-2l13.7,7Z"/></svg>