<svg id="Layer_1" data-name="Layer 1" xmlns="http://www.w3.org/2000/svg" viewBox="0 0 650.79 512"><defs><style>.cls-1{opacity:0.3;}.cls-2{fill:#424242;}.cls-3{fill:#d9d9d9;}.cls-4{fill:#bebebe;}.cls-5{fill:#fff;}.cls-6{fill:#a2a2a2;}.cls-7{fill:#393939;}.cls-8{fill:#585858;}.cls-9{opacity:0.25;}.cls-10{fill:#0040ff;}.cls-11{fill:#cfdce5;}.cls-12{fill:#aec4ce;}.cls-13{fill:#94a7af;}.cls-14{fill:#003bce;}.cls-15{fill:#415e72;}</style></defs><title>Zeichenfläche 2 Kopie</title><g class="cls-1"><path class="cls-2" d="M480.11,111.54V77.42a1.12,1.12,0,0,1,1.1-1.1h51.72a1.12,1.12,0,0,1,1.1,1.1v34.12Z"/><path class="cls-3" d="M534,111.54v4.38a1.12,1.12,0,0,1-1.1,1.1H481.2a1.12,1.12,0,0,1-1.1-1.1v-4.38Z"/><rect class="cls-3" x="495.52" y="124.76" width="23.08" height="1.1"/><polygon class="cls-4" points="514.73 124.76 499.4 124.76 500.49 117.02 513.63 117.02 514.73 124.76"/><rect class="cls-5" x="482.3" y="78.52" width="49.53" height="30.82"/><polygon class="cls-6" points="513.63 117.02 500.49 117.02 499.88 121.34 513.83 118.41 513.63 117.02"/><polygon class="cls-2" points="502.79 105.51 487.97 105.51 487.97 67.87 502.79 67.87 502.79 71.5 502.79 105.51"/><rect class="cls-5" x="497.19" y="70.34" width="5.61" height="0.91"/><rect class="cls-5" x="499.99" y="73.52" width="2.8" height="0.91"/><rect class="cls-5" x="497.19" y="76.7" width="5.61" height="0.91"/><rect class="cls-5" x="499.99" y="79.88" width="2.8" height="0.91"/><rect class="cls-5" x="497.19" y="83.06" width="5.61" height="0.91"/><rect class="cls-5" x="499.99" y="86.24" width="2.8" height="0.91"/><rect class="cls-5" x="497.19" y="89.42" width="5.61" height="0.91"/><rect class="cls-5" x="499.99" y="92.6" width="2.8" height="0.91"/><rect class="cls-5" x="497.19" y="95.78" width="5.61" height="0.91"/><rect class="cls-5" x="497.19" y="102.13" width="5.61" height="0.91"/><rect class="cls-5" x="499.99" y="98.96" width="2.8" height="0.91"/><polygon class="cls-7" points="490.65 105.51 487.97 105.51 487.97 67.87 490.65 67.87 490.65 71.5 490.65 105.51"/><polygon class="cls-3" points="506.43 102.84 513.65 99.1 526.16 79.36 519.21 74.97 506.71 94.71 506.43 102.84"/><polyline class="cls-8" points="506.58 98.38 506.43 102.84 510.39 100.79"/><rect class="cls-8" x="519.8" y="76.91" width="0.88" height="8.22" transform="translate(173.42 477.16) rotate(-57.65)"/><rect class="cls-8" x="505.44" y="84.18" width="20.38" height="8.22" transform="translate(165.13 476.65) rotate(-57.65)"/><rect class="cls-2" x="518.66" y="75.27" width="5.24" height="8.22" transform="translate(175.29 477.28) rotate(-57.65)"/><g class="cls-9"><polygon class="cls-5" points="506.43 102.84 522.82 77.25 519.21 74.97 506.71 94.7 506.43 102.84"/></g></g><g class="cls-1"><path class="cls-2" d="M87,332.87l46-41.34a2,2,0,0,1,2.81.15l62.67,69.77a2,2,0,0,1-.15,2.81l-46,41.34Z"/><path class="cls-3" d="M152.33,405.6l-5.9,5.3a2,2,0,0,1-2.81-.15L80.94,341a2,2,0,0,1,.15-2.81l5.9-5.3Z"/><rect class="cls-3" x="100.09" y="364.99" width="1.99" height="41.85" transform="translate(-232 166.36) rotate(-41.93)"/><polygon class="cls-4" points="111.11 395.59 92.54 374.91 104.32 367 120.24 384.73 111.11 395.59"/><rect class="cls-5" x="115.47" y="302.98" width="55.9" height="89.82" transform="translate(-195.75 184.91) rotate(-41.93)"/><polygon class="cls-6" points="120.24 384.73 104.32 367 97.74 371.41 118.6 386.68 120.24 384.73"/><polygon class="cls-2" points="122.62 356.16 104.66 336.17 155.45 290.55 173.41 310.55 168.5 314.95 122.62 356.16"/><rect class="cls-5" x="165.24" y="305.23" width="1.64" height="10.17" transform="matrix(0.74, -0.67, 0.67, 0.74, -164.84, 190.42)"/><rect class="cls-5" x="162.65" y="313.51" width="1.64" height="5.08" transform="translate(-169.34 190.16) rotate(-41.93)"/><rect class="cls-5" x="156.67" y="312.93" width="1.64" height="10.17" transform="translate(-172.18 186.66) rotate(-41.93)"/><rect class="cls-5" x="154.07" y="321.21" width="1.64" height="5.08" transform="translate(-176.68 186.4) rotate(-41.93)"/><rect class="cls-5" x="148.09" y="320.64" width="1.64" height="10.17" transform="translate(-179.53 182.9) rotate(-41.93)"/><rect class="cls-5" x="145.49" y="328.92" width="1.64" height="5.08" transform="translate(-184.03 182.64) rotate(-41.93)"/><rect class="cls-5" x="139.51" y="328.34" width="1.64" height="10.17" transform="translate(-186.87 179.14) rotate(-41.93)"/><rect class="cls-5" x="136.91" y="336.62" width="1.64" height="5.08" transform="translate(-191.37 178.88) rotate(-41.93)"/><rect class="cls-5" x="130.93" y="336.05" width="1.64" height="10.17" transform="translate(-194.22 175.38) rotate(-41.93)"/><rect class="cls-5" x="122.35" y="343.75" width="1.64" height="10.17" transform="translate(-201.56 171.62) rotate(-41.93)"/><rect class="cls-5" x="128.33" y="344.33" width="1.64" height="5.08" transform="translate(-198.72 175.12) rotate(-41.93)"/><polygon class="cls-7" points="107.91 339.78 104.66 336.17 155.45 290.55 158.69 294.17 153.79 298.57 107.91 339.78"/><polygon class="cls-3" points="130.64 357.82 144.43 363.05 186.21 355.99 183.73 341.3 141.95 348.36 130.64 357.82"/><polyline class="cls-8" points="136.84 352.63 130.64 357.82 138.2 360.69"/><rect class="cls-8" x="176.01" y="342.57" width="1.59" height="14.9" transform="matrix(0.99, -0.17, 0.17, 0.99, -55.79, 34.31)"/><rect class="cls-8" x="142.94" y="345.16" width="36.95" height="14.9" transform="translate(-56.43 31.78) rotate(-9.58)"/><rect class="cls-2" x="175.54" y="341.98" width="9.5" height="14.9" transform="translate(-55.64 34.88) rotate(-9.58)"/><g class="cls-9"><polygon class="cls-5" points="130.64 357.82 185.02 348.92 183.73 341.3 141.96 348.35 130.64 357.82"/></g></g><g class="cls-1"><path class="cls-2" d="M197.46,421.36l-7.26-22.22a.76.76,0,0,1,.48-.95l33.68-11a.76.76,0,0,1,.95.48l7.26,22.22Z"/><path class="cls-3" d="M232.57,409.88l.93,2.85a.76.76,0,0,1-.48.95l-33.68,11a.76.76,0,0,1-.95-.48l-.93-2.85Z"/><rect class="cls-3" x="210.04" y="424.21" width="15.81" height="0.75" transform="translate(-121.12 88.72) rotate(-18.1)"/><polygon class="cls-4" points="222.82 422.6 212.84 425.86 211.9 420.58 220.46 417.78 222.82 422.6"/><rect class="cls-5" x="194.3" y="393.59" width="33.93" height="21.12" transform="translate(-115.1 85.63) rotate(-18.1)"/><polygon class="cls-6" points="220.46 417.78 211.9 420.58 212.42 423.53 220.88 418.65 220.46 417.78"/><polygon class="cls-2" points="210.95 412.6 201.3 415.75 193.29 391.24 202.94 388.09 203.71 390.45 210.95 412.6"/><rect class="cls-5" x="199.81" y="390.28" width="3.84" height="0.62" transform="translate(-111.36 82) rotate(-18.1)"/><rect class="cls-5" x="202.36" y="392.05" width="1.92" height="0.62" transform="matrix(0.95, -0.31, 0.31, 0.95, -111.83, 82.58)"/><rect class="cls-5" x="201.17" y="394.42" width="3.84" height="0.62" transform="translate(-112.58 82.62) rotate(-18.1)"/><rect class="cls-5" x="203.72" y="396.19" width="1.92" height="0.62" transform="translate(-113.05 83.2) rotate(-18.1)"/><rect class="cls-5" x="202.52" y="398.56" width="3.84" height="0.62" transform="translate(-113.8 83.25) rotate(-18.1)"/><rect class="cls-5" x="205.07" y="400.33" width="1.92" height="0.62" transform="translate(-114.27 83.83) rotate(-18.1)"/><rect class="cls-5" x="203.87" y="402.7" width="3.84" height="0.62" transform="translate(-115.02 83.87) rotate(-18.1)"/><rect class="cls-5" x="206.42" y="404.47" width="1.92" height="0.62" transform="translate(-115.49 84.46) rotate(-18.1)"/><rect class="cls-5" x="205.23" y="406.84" width="3.84" height="0.62" transform="translate(-116.24 84.5) rotate(-18.1)"/><rect class="cls-5" x="206.58" y="410.98" width="3.84" height="0.62" transform="translate(-117.46 85.13) rotate(-18.1)"/><rect class="cls-5" x="207.78" y="408.62" width="1.92" height="0.62" transform="translate(-116.71 85.08) rotate(-18.1)"/><polygon class="cls-7" points="203.04 415.19 201.3 415.75 193.29 391.24 195.03 390.67 195.81 393.04 203.04 415.19"/><polygon class="cls-3" points="212.75 410.08 216.66 406.12 220.6 390.6 215.14 389.21 211.2 404.73 212.75 410.08"/><polyline class="cls-8" points="211.9 407.15 212.75 410.08 214.89 407.91"/><rect class="cls-8" x="216.8" y="390.12" width="0.6" height="5.63" transform="translate(-217.19 506.62) rotate(-75.75)"/><rect class="cls-8" x="208.67" y="395.84" width="13.96" height="5.63" transform="translate(-223.83 509.53) rotate(-75.75)"/><rect class="cls-2" x="215.63" y="388.83" width="3.59" height="5.63" transform="translate(-215.69 505.97) rotate(-75.75)"/><g class="cls-9"><polygon class="cls-5" points="212.75 410.08 217.97 389.93 215.14 389.21 211.2 404.73 212.75 410.08"/></g></g><g class="cls-1"><path class="cls-2" d="M71.91,472.55,39.48,456.1a1.19,1.19,0,0,1-.51-1.57l24.94-49.15a1.19,1.19,0,0,1,1.57-.51L97.9,421.32Z"/><path class="cls-3" d="M97.9,421.32l4.16,2.11a1.19,1.19,0,0,1,.51,1.57L77.63,474.15a1.19,1.19,0,0,1-1.57.51l-4.16-2.11Z"/><rect class="cls-3" x="85.69" y="452.99" width="24.6" height="1.17" transform="matrix(0.45, -0.89, 0.89, 0.45, -350.84, 335.74)"/><polygon class="cls-4" points="101.16 446.02 93.77 460.59 86.94 455.82 93.27 443.33 101.16 446.02"/><rect class="cls-5" x="41.78" y="422.02" width="52.78" height="32.85" transform="translate(-353.67 300.86) rotate(-63.1)"/><polygon class="cls-6" points="93.27 443.33 86.94 455.82 90.75 458.48 94.69 443.81 93.27 443.33"/><polygon class="cls-2" points="77.11 448.09 69.97 462.17 34.19 444.02 41.34 429.94 44.79 431.69 77.11 448.09"/><rect class="cls-5" x="39.78" y="433.53" width="5.97" height="0.97" transform="translate(-363.63 275.78) rotate(-63.1)"/><rect class="cls-5" x="44.97" y="433.73" width="2.99" height="0.97" transform="translate(-361.79 279.19) rotate(-63.1)"/><rect class="cls-5" x="45.82" y="436.59" width="5.97" height="0.97" transform="translate(-363.05 282.85) rotate(-63.1)"/><rect class="cls-5" x="51.01" y="436.8" width="2.99" height="0.97" transform="translate(-361.21 286.26) rotate(-63.1)"/><rect class="cls-5" x="51.87" y="439.66" width="5.97" height="0.97" transform="translate(-362.48 289.92) rotate(-63.1)"/><rect class="cls-5" x="57.06" y="439.86" width="2.99" height="0.97" transform="translate(-360.64 293.33) rotate(-63.1)"/><rect class="cls-5" x="57.91" y="442.72" width="5.97" height="0.97" transform="translate(-361.9 296.99) rotate(-63.1)"/><rect class="cls-5" x="63.1" y="442.93" width="2.99" height="0.97" transform="translate(-360.06 300.39) rotate(-63.1)"/><rect class="cls-5" x="63.95" y="445.79" width="5.97" height="0.97" transform="translate(-361.33 304.05) rotate(-63.1)"/><rect class="cls-5" x="70" y="448.86" width="5.97" height="0.97" transform="translate(-360.75 311.12) rotate(-63.1)"/><rect class="cls-5" x="69.14" y="445.99" width="2.99" height="0.97" transform="translate(-359.49 307.46) rotate(-63.1)"/><polygon class="cls-7" points="71.26 459.62 69.97 462.17 34.19 444.02 35.49 441.47 38.94 443.23 71.26 459.62"/><polygon class="cls-3" points="76.32 443.34 76.26 434.67 63.53 413.27 56 417.75 68.73 439.15 76.32 443.34"/><polyline class="cls-8" points="72.16 441.04 76.32 443.34 76.29 438.59"/><rect class="cls-8" x="57.87" y="419.23" width="8.76" height="0.93" transform="translate(-205.83 90.83) rotate(-30.75)"/><rect class="cls-8" x="62.56" y="416.72" width="8.76" height="21.71" transform="translate(-209.2 94.33) rotate(-30.75)"/><rect class="cls-2" x="56.81" y="415.12" width="8.76" height="5.58" transform="translate(-205.07 90.04) rotate(-30.75)"/><g class="cls-9"><polygon class="cls-5" points="76.32 443.34 59.91 415.43 56 417.75 68.73 439.15 76.32 443.34"/></g></g><g class="cls-1"><path class="cls-2" d="M544.6,367.7l-13.15-40.23a1.38,1.38,0,0,1,.87-1.71l61-19.93a1.38,1.38,0,0,1,1.71.87l13.15,40.23Z"/><path class="cls-3" d="M608.17,346.93l1.69,5.16a1.38,1.38,0,0,1-.87,1.71l-61,19.93a1.38,1.38,0,0,1-1.71-.87l-1.69-5.16Z"/><rect class="cls-3" x="567.38" y="372.87" width="28.63" height="1.36" transform="translate(-87.27 199.19) rotate(-18.1)"/><polygon class="cls-4" points="590.52 369.95 572.44 375.86 570.75 366.3 586.24 361.24 590.52 369.95"/><rect class="cls-5" x="538.88" y="317.43" width="61.44" height="38.24" transform="translate(-76.37 193.61) rotate(-18.1)"/><polygon class="cls-6" points="586.24 361.24 570.75 366.3 571.69 371.63 587.01 362.8 586.24 361.24"/><polygon class="cls-2" points="569.02 351.85 551.55 357.56 537.04 313.18 554.52 307.46 555.92 311.75 569.02 351.85"/><rect class="cls-5" x="548.86" y="311.43" width="6.95" height="1.12" transform="translate(-69.59 187.03) rotate(-18.1)"/><rect class="cls-5" x="553.48" y="314.64" width="3.48" height="1.12" transform="translate(-70.45 188.08) rotate(-18.1)"/><rect class="cls-5" x="551.31" y="318.93" width="6.95" height="1.12" transform="translate(-71.8 188.16) rotate(-18.1)"/><rect class="cls-5" x="555.93" y="322.14" width="3.48" height="1.12" transform="translate(-72.66 189.21) rotate(-18.1)"/><rect class="cls-5" x="553.77" y="326.43" width="6.95" height="1.12" transform="translate(-74.01 189.29) rotate(-18.1)"/><rect class="cls-5" x="558.38" y="329.64" width="3.48" height="1.12" transform="translate(-74.87 190.35) rotate(-18.1)"/><rect class="cls-5" x="556.22" y="333.92" width="6.95" height="1.12" transform="translate(-76.22 190.43) rotate(-18.1)"/><rect class="cls-5" x="560.83" y="337.13" width="3.48" height="1.12" transform="translate(-77.07 191.48) rotate(-18.1)"/><rect class="cls-5" x="558.67" y="341.42" width="6.95" height="1.12" transform="translate(-78.43 191.56) rotate(-18.1)"/><rect class="cls-5" x="561.12" y="348.92" width="6.95" height="1.12" transform="translate(-80.64 192.69) rotate(-18.1)"/><rect class="cls-5" x="563.28" y="344.63" width="3.48" height="1.12" transform="translate(-79.28 192.61) rotate(-18.1)"/><polygon class="cls-7" points="554.71 356.53 551.55 357.56 537.04 313.18 540.2 312.14 541.6 316.43 554.71 356.53"/><polygon class="cls-3" points="572.28 347.29 579.36 340.11 586.5 312.01 576.62 309.5 569.48 337.6 572.28 347.29"/><polyline class="cls-8" points="570.75 341.98 572.28 347.29 576.16 343.35"/><rect class="cls-8" x="579.61" y="311.15" width="1.09" height="10.2" transform="translate(130.83 800.7) rotate(-75.75)"/><rect class="cls-8" x="564.89" y="321.5" width="25.28" height="10.2" transform="translate(118.81 805.95) rotate(-75.75)"/><rect class="cls-2" x="577.5" y="308.81" width="6.5" height="10.2" transform="translate(133.54 799.51) rotate(-75.75)"/><g class="cls-9"><polygon class="cls-5" points="572.28 347.29 581.74 310.81 576.62 309.5 569.48 337.59 572.28 347.29"/></g></g><g class="cls-1"><path class="cls-2" d="M525.48,157.27l46-41.34a2,2,0,0,1,2.81.15L637,185.85a2,2,0,0,1-.15,2.81L590.8,230Z"/><path class="cls-3" d="M590.8,230l-5.9,5.3a2,2,0,0,1-2.81-.15l-62.67-69.77a2,2,0,0,1,.15-2.81l5.9-5.3Z"/><rect class="cls-3" x="538.57" y="189.39" width="1.99" height="41.85" transform="translate(-2.39 414.4) rotate(-41.93)"/><polygon class="cls-4" points="549.59 219.99 531.01 199.31 542.79 191.4 558.72 209.12 549.59 219.99"/><rect class="cls-5" x="553.95" y="127.38" width="55.9" height="89.82" transform="translate(33.86 432.95) rotate(-41.93)"/><polygon class="cls-6" points="558.72 209.12 542.79 191.4 536.22 195.81 557.08 211.08 558.72 209.12"/><polygon class="cls-2" points="561.1 180.56 543.14 160.57 593.92 114.95 611.88 134.94 606.98 139.35 561.1 180.56"/><rect class="cls-5" x="603.72" y="129.63" width="1.64" height="10.17" transform="translate(64.77 438.46) rotate(-41.93)"/><rect class="cls-5" x="601.13" y="137.91" width="1.64" height="5.08" transform="matrix(0.74, -0.67, 0.67, 0.74, 60.27, 438.2)"/><rect class="cls-5" x="595.14" y="137.33" width="1.64" height="10.17" transform="translate(57.43 434.7) rotate(-41.93)"/><rect class="cls-5" x="592.55" y="145.61" width="1.64" height="5.08" transform="translate(52.93 434.44) rotate(-41.93)"/><rect class="cls-5" x="586.56" y="145.04" width="1.64" height="10.17" transform="translate(50.08 430.94) rotate(-41.93)"/><rect class="cls-5" x="583.97" y="153.32" width="1.64" height="5.08" transform="translate(45.58 430.68) rotate(-41.93)"/><rect class="cls-5" x="577.98" y="152.74" width="1.64" height="10.17" transform="translate(42.73 427.18) rotate(-41.93)"/><rect class="cls-5" x="575.39" y="161.02" width="1.64" height="5.08" transform="translate(38.24 426.92) rotate(-41.93)"/><rect class="cls-5" x="569.4" y="160.45" width="1.64" height="10.17" transform="translate(35.39 423.42) rotate(-41.93)"/><rect class="cls-5" x="560.83" y="168.15" width="1.64" height="10.17" transform="translate(28.04 419.66) rotate(-41.93)"/><rect class="cls-5" x="566.81" y="168.73" width="1.64" height="5.08" transform="translate(30.89 423.16) rotate(-41.93)"/><polygon class="cls-7" points="546.39 164.18 543.14 160.57 593.92 114.95 597.17 118.57 592.27 122.97 546.39 164.18"/><polygon class="cls-3" points="569.11 182.22 582.91 187.45 624.69 180.39 622.21 165.7 580.43 172.75 569.11 182.22"/><polyline class="cls-8" points="575.32 177.03 569.11 182.22 576.68 185.09"/><rect class="cls-8" x="614.49" y="166.97" width="1.59" height="14.9" transform="matrix(0.99, -0.17, 0.17, 0.99, -20.45, 104.83)"/><rect class="cls-8" x="581.42" y="169.56" width="36.95" height="14.9" transform="translate(-21.09 102.3) rotate(-9.58)"/><rect class="cls-2" x="614.01" y="166.38" width="9.5" height="14.9" transform="translate(-20.3 105.4) rotate(-9.58)"/><g class="cls-9"><polygon class="cls-5" points="569.11 182.22 623.49 173.32 622.21 165.7 580.43 172.75 569.11 182.22"/></g></g><g class="cls-1"><path class="cls-2" d="M88.56,134.38,74,87.59a1.6,1.6,0,0,1,1-2L145.93,63.5a1.6,1.6,0,0,1,2,1l14.59,46.79Z"/><path class="cls-3" d="M162.49,111.32l1.87,6a1.6,1.6,0,0,1-1,2L92.4,141.41a1.6,1.6,0,0,1-2-1l-1.87-6Z"/><rect class="cls-3" x="114.84" y="140.94" width="33.16" height="1.57" transform="translate(-36.24 45.56) rotate(-17.32)"/><polygon class="cls-4" points="141.69 137.7 120.67 144.26 118.86 133.16 136.88 127.54 141.69 137.7"/><rect class="cls-5" x="82.42" y="76.56" width="71.15" height="44.28" transform="translate(-24.04 39.61) rotate(-17.32)"/><polygon class="cls-6" points="136.88 127.54 118.86 133.16 119.87 139.36 137.74 129.37 136.88 127.54"/><polygon class="cls-2" points="117.09 116.41 96.76 122.75 80.66 71.12 100.99 64.78 102.54 69.77 117.09 116.41"/><rect class="cls-5" x="94.37" y="69.34" width="8.05" height="1.3" transform="translate(-16.38 32.47) rotate(-17.32)"/><rect class="cls-5" x="99.66" y="73.1" width="4.03" height="1.3" transform="translate(-17.35 33.62) rotate(-17.32)"/><rect class="cls-5" x="97.09" y="78.06" width="8.05" height="1.3" transform="translate(-18.85 33.68) rotate(-17.32)"/><rect class="cls-5" x="102.38" y="81.82" width="4.03" height="1.3" transform="translate(-19.82 34.82) rotate(-17.32)"/><rect class="cls-5" x="99.81" y="86.78" width="8.05" height="1.3" transform="translate(-21.32 34.88) rotate(-17.32)"/><rect class="cls-5" x="105.1" y="90.54" width="4.03" height="1.3" transform="translate(-22.29 36.03) rotate(-17.32)"/><rect class="cls-5" x="102.53" y="95.5" width="8.05" height="1.3" transform="translate(-23.8 36.09) rotate(-17.32)"/><rect class="cls-5" x="107.82" y="99.26" width="4.03" height="1.3" transform="translate(-24.77 37.23) rotate(-17.32)"/><rect class="cls-5" x="105.25" y="104.22" width="8.05" height="1.3" transform="translate(-26.27 37.29) rotate(-17.32)"/><rect class="cls-5" x="107.97" y="112.94" width="8.05" height="1.3" transform="translate(-28.74 38.5) rotate(-17.32)"/><rect class="cls-5" x="110.54" y="107.99" width="4.03" height="1.3" transform="translate(-27.24 38.44) rotate(-17.32)"/><polygon class="cls-7" points="100.44 121.6 96.76 122.75 80.66 71.12 84.34 69.98 85.89 74.96 100.44 121.6"/><polygon class="cls-3" points="120.93 111.18 129.24 102.97 137.94 70.55 126.54 67.49 117.84 99.91 120.93 111.18"/><polyline class="cls-8" points="119.24 105 120.93 111.18 125.49 106.68"/><rect class="cls-8" x="129.91" y="69.45" width="1.26" height="11.81" transform="translate(23.91 181.89) rotate(-74.97)"/><rect class="cls-8" x="112.69" y="81.39" width="29.27" height="11.81" transform="translate(10 187.64) rotate(-74.97)"/><rect class="cls-2" x="127.5" y="66.75" width="7.53" height="11.81" transform="translate(27.06 180.59) rotate(-74.97)"/><g class="cls-9"><polygon class="cls-5" points="120.93 111.18 132.46 69.08 126.54 67.49 117.84 99.9 120.93 111.18"/></g></g><g class="cls-1"><path class="cls-2" d="M30.8,202.73l42.86-44.2a2,2,0,0,1,2.8,0l67,65a2,2,0,0,1,0,2.8l-42.86,44.2Z"/><path class="cls-3" d="M100.63,270.45l-5.5,5.67a2,2,0,0,1-2.8,0l-67-65a2,2,0,0,1,0-2.8l5.5-5.67Z"/><rect class="cls-3" x="47.43" y="233.6" width="1.98" height="41.65" transform="translate(-167.94 112.06) rotate(-45.88)"/><polygon class="cls-4" points="59.04 263.34 39.18 244.08 50.33 235.42 67.35 251.93 59.04 263.34"/><rect class="cls-5" x="60.03" y="169.09" width="55.62" height="89.37" transform="translate(-126.78 128.01) rotate(-45.88)"/><polygon class="cls-6" points="67.35 251.93 50.33 235.42 44.1 240.26 65.86 253.98 67.35 251.93"/><polygon class="cls-2" points="67.75 223.41 48.56 204.79 95.84 156.03 115.04 174.65 110.48 179.35 67.75 223.41"/><rect class="cls-5" x="106.92" y="169.86" width="1.63" height="10.12" transform="translate(-92.84 130.49) rotate(-45.88)"/><rect class="cls-5" x="104.74" y="178.26" width="1.63" height="5.06" transform="translate(-97.72 130.71) rotate(-45.88)"/><rect class="cls-5" x="98.93" y="178.1" width="1.63" height="10.12" transform="translate(-101.18 127.26) rotate(-45.88)"/><rect class="cls-5" x="96.75" y="186.5" width="1.63" height="5.06" transform="translate(-106.06 127.48) rotate(-45.88)"/><rect class="cls-5" x="90.94" y="186.33" width="1.63" height="10.12" transform="translate(-109.52 124.03) rotate(-45.88)"/><rect class="cls-5" x="88.76" y="194.74" width="1.63" height="5.06" transform="translate(-114.4 124.25) rotate(-45.88)"/><rect class="cls-5" x="82.96" y="194.57" width="1.63" height="10.12" transform="translate(-117.86 120.8) rotate(-45.88)"/><rect class="cls-5" x="80.78" y="202.97" width="1.63" height="5.06" transform="translate(-122.74 121.01) rotate(-45.88)"/><rect class="cls-5" x="74.97" y="202.81" width="1.63" height="10.12" transform="translate(-126.2 117.56) rotate(-45.88)"/><rect class="cls-5" x="66.98" y="211.04" width="1.63" height="10.12" transform="translate(-134.54 114.33) rotate(-45.88)"/><rect class="cls-5" x="72.79" y="211.21" width="1.63" height="5.06" transform="translate(-131.08 117.78) rotate(-45.88)"/><polygon class="cls-7" points="52.03 208.16 48.56 204.79 95.84 156.03 99.31 159.4 94.75 164.1 52.03 208.16"/><polygon class="cls-3" points="75.83 224.51 89.88 228.75 130.87 218.89 127.4 204.47 86.41 214.34 75.83 224.51"/><polyline class="cls-8" points="81.63 218.93 75.83 224.51 83.53 226.84"/><rect class="cls-8" x="120.33" y="206.18" width="1.58" height="14.83" transform="translate(-46.61 34.26) rotate(-13.53)"/><rect class="cls-8" x="87.64" y="209.82" width="36.77" height="14.83" transform="translate(-47.88 30.83) rotate(-13.53)"/><rect class="cls-2" x="119.81" y="205.37" width="9.45" height="14.83" transform="translate(-46.32 35.04) rotate(-13.53)"/><g class="cls-9"><polygon class="cls-5" points="75.83 224.51 129.2 211.95 127.4 204.47 86.42 214.34 75.83 224.51"/></g></g><g class="cls-1"><path class="cls-2" d="M569.46,76.12,562.26,53a.79.79,0,0,1,.51-1l35-10.92a.79.79,0,0,1,1,.51l7.2,23.09Z"/><path class="cls-3" d="M605.95,64.74l.92,3a.79.79,0,0,1-.51,1l-35,10.92a.79.79,0,0,1-1-.51l-.92-3Z"/><rect class="cls-3" x="582.43" y="79.36" width="16.36" height="0.78" transform="translate(3.04 179.47) rotate(-17.32)"/><polygon class="cls-4" points="595.68 77.76 585.31 80.99 584.41 75.52 593.31 72.75 595.68 77.76"/><rect class="cls-5" x="566.43" y="47.58" width="35.12" height="21.85" transform="translate(9.07 176.53) rotate(-17.32)"/><polygon class="cls-6" points="593.31 72.75 584.41 75.52 584.91 78.58 593.73 73.64 593.31 72.75"/><polygon class="cls-2" points="583.54 67.25 573.51 70.38 565.56 44.9 575.6 41.77 576.36 44.23 583.54 67.25"/><rect class="cls-5" x="572.33" y="44.02" width="3.97" height="0.64" transform="matrix(0.95, -0.3, 0.3, 0.95, 12.85, 173.01)"/><rect class="cls-5" x="574.94" y="45.88" width="1.99" height="0.64" transform="matrix(0.95, -0.3, 0.3, 0.95, 12.37, 173.58)"/><rect class="cls-5" x="573.67" y="48.32" width="3.97" height="0.64" transform="translate(11.62 173.61) rotate(-17.32)"/><rect class="cls-5" x="576.28" y="50.18" width="1.99" height="0.64" transform="matrix(0.95, -0.3, 0.3, 0.95, 11.15, 174.17)"/><rect class="cls-5" x="575.01" y="52.63" width="3.97" height="0.64" transform="matrix(0.95, -0.3, 0.3, 0.95, 10.4, 174.2)"/><rect class="cls-5" x="577.62" y="54.48" width="1.99" height="0.64" transform="matrix(0.95, -0.3, 0.3, 0.95, 9.92, 174.77)"/><rect class="cls-5" x="576.36" y="56.93" width="3.97" height="0.64" transform="translate(9.18 174.8) rotate(-17.32)"/><rect class="cls-5" x="578.97" y="58.79" width="1.99" height="0.64" transform="translate(8.7 175.36) rotate(-17.32)"/><rect class="cls-5" x="577.7" y="61.24" width="3.97" height="0.64" transform="translate(7.96 175.39) rotate(-17.32)"/><rect class="cls-5" x="579.04" y="65.54" width="3.97" height="0.64" transform="translate(6.74 175.98) rotate(-17.32)"/><rect class="cls-5" x="580.31" y="63.09" width="1.99" height="0.64" transform="matrix(0.95, -0.3, 0.3, 0.95, 7.48, 175.96)"/><polygon class="cls-7" points="575.33 69.81 573.51 70.38 565.56 44.9 567.38 44.33 568.14 46.79 575.33 69.81"/><polygon class="cls-3" points="585.44 64.67 589.54 60.62 593.83 44.62 588.21 43.11 583.91 59.11 585.44 64.67"/><polyline class="cls-8" points="584.6 61.62 585.44 64.67 587.69 62.45"/><rect class="cls-8" x="589.87" y="44.07" width="0.62" height="5.83" transform="translate(391.77 604.8) rotate(-74.97)"/><rect class="cls-8" x="581.37" y="49.97" width="14.45" height="5.83" transform="translate(384.9 607.64) rotate(-74.97)"/><rect class="cls-2" x="588.68" y="42.74" width="3.71" height="5.83" transform="matrix(0.26, -0.97, 0.97, 0.26, 393.32, 604.16)"/><g class="cls-9"><polygon class="cls-5" points="585.44 64.67 591.13 43.89 588.21 43.11 583.91 59.1 585.44 64.67"/></g></g><g class="cls-1"><path class="cls-2" d="M467.68,269.35l-11.56-37.07a1.27,1.27,0,0,1,.82-1.56l56.19-17.52a1.27,1.27,0,0,1,1.56.82l11.56,37.07Z"/><path class="cls-3" d="M526.25,251.09l1.48,4.75a1.27,1.27,0,0,1-.82,1.56l-56.19,17.52a1.27,1.27,0,0,1-1.56-.82l-1.48-4.75Z"/><rect class="cls-3" x="488.5" y="274.55" width="26.27" height="1.25" transform="translate(-59.18 161.84) rotate(-17.32)"/><polygon class="cls-4" points="509.77 271.99 493.12 277.18 491.68 268.39 505.96 263.94 509.77 271.99"/><rect class="cls-5" x="462.81" y="223.55" width="56.36" height="35.08" transform="translate(-49.51 157.13) rotate(-17.32)"/><polygon class="cls-6" points="505.96 263.94 491.68 268.39 492.48 273.3 506.64 265.38 505.96 263.94"/><polygon class="cls-2" points="490.28 255.12 474.18 260.14 461.43 219.24 477.52 214.22 478.76 218.17 490.28 255.12"/><rect class="cls-5" x="472.28" y="217.83" width="6.38" height="1.03" transform="translate(-43.45 151.47) rotate(-17.32)"/><rect class="cls-5" x="476.47" y="220.81" width="3.19" height="1.03" transform="translate(-44.22 152.38) rotate(-17.32)"/><rect class="cls-5" x="474.44" y="224.74" width="6.38" height="1.03" transform="translate(-45.41 152.43) rotate(-17.32)"/><rect class="cls-5" x="478.63" y="227.72" width="3.19" height="1.03" transform="translate(-46.18 153.34) rotate(-17.32)"/><rect class="cls-5" x="476.59" y="231.65" width="6.38" height="1.03" transform="translate(-47.37 153.38) rotate(-17.32)"/><rect class="cls-5" x="480.78" y="234.63" width="3.19" height="1.03" transform="translate(-48.13 154.29) rotate(-17.32)"/><rect class="cls-5" x="478.75" y="238.56" width="6.38" height="1.03" transform="translate(-49.32 154.34) rotate(-17.32)"/><rect class="cls-5" x="482.94" y="241.54" width="3.19" height="1.03" transform="translate(-50.09 155.25) rotate(-17.32)"/><rect class="cls-5" x="480.9" y="245.47" width="6.38" height="1.03" transform="translate(-51.28 155.29) rotate(-17.32)"/><rect class="cls-5" x="483.06" y="252.37" width="6.38" height="1.03" transform="translate(-53.24 156.25) rotate(-17.32)"/><rect class="cls-5" x="485.09" y="248.45" width="3.19" height="1.03" transform="translate(-52.05 156.2) rotate(-17.32)"/><polygon class="cls-7" points="477.09 259.23 474.18 260.14 461.43 219.24 464.34 218.34 465.57 222.28 477.09 259.23"/><polygon class="cls-3" points="493.32 250.98 499.91 244.47 506.8 218.79 497.77 216.37 490.88 242.05 493.32 250.98"/><polyline class="cls-8" points="491.98 246.08 493.32 250.98 496.93 247.41"/><rect class="cls-8" x="500.44" y="217.92" width="1" height="9.35" transform="translate(156.06 648.68) rotate(-74.97)"/><rect class="cls-8" x="486.8" y="227.38" width="23.19" height="9.35" transform="matrix(0.26, -0.97, 0.97, 0.26, 145.05, 653.23)"/><rect class="cls-2" x="498.53" y="215.78" width="5.96" height="9.35" transform="translate(158.56 647.65) rotate(-74.97)"/><g class="cls-9"><polygon class="cls-5" points="493.32 250.98 502.46 217.63 497.77 216.37 490.88 242.04 493.32 250.98"/></g></g><g class="cls-1"><path class="cls-2" d="M435.31,313.58l59.47,69.79a3.07,3.07,0,0,1-.44,4.24l-111,94.56a3.07,3.07,0,0,1-4.26-.24l-59.47-69.79Z"/><path class="cls-3" d="M319.63,412.15l-7.63-9a3.07,3.07,0,0,1,.44-4.24l111-94.56a3.07,3.07,0,0,1,4.26.24l7.63,9Z"/><rect class="cls-3" x="320.94" y="333.23" width="65.07" height="2.94" transform="translate(-132.65 309.19) rotate(-40.43)"/><polygon class="cls-4" points="337.98 349.84 370.88 321.81 382.03 339.66 353.84 363.69 337.98 349.84"/><rect class="cls-5" x="338.35" y="357.48" width="139.63" height="82.84" transform="translate(-161.22 359.99) rotate(-40.43)"/><polygon class="cls-6" points="353.84 363.69 382.03 339.66 375.81 329.7 350.99 361.2 353.84 363.69"/><polygon class="cls-2" points="397.15 367.39 428.95 340.3 494.56 417.3 462.76 444.39 456.43 436.96 397.15 367.39"/><rect class="cls-5" x="455.77" y="432.07" width="15.8" height="2.43" transform="translate(-170.27 404.21) rotate(-40.43)"/><rect class="cls-5" x="451.18" y="428.13" width="7.9" height="2.43" transform="translate(-169.75 397.73) rotate(-40.43)"/><rect class="cls-5" x="444.69" y="419.07" width="15.8" height="2.43" transform="translate(-164.48 393.91) rotate(-40.43)"/><rect class="cls-5" x="440.09" y="415.12" width="7.9" height="2.43" transform="translate(-163.96 387.43) rotate(-40.43)"/><rect class="cls-5" x="433.6" y="406.06" width="15.8" height="2.43" transform="translate(-158.69 383.62) rotate(-40.43)"/><rect class="cls-5" x="429.01" y="402.11" width="7.9" height="2.43" transform="translate(-158.18 377.14) rotate(-40.43)"/><rect class="cls-5" x="422.52" y="393.05" width="15.8" height="2.43" transform="translate(-152.91 373.32) rotate(-40.43)"/><rect class="cls-5" x="417.93" y="389.1" width="7.9" height="2.43" transform="translate(-152.39 366.84) rotate(-40.43)"/><rect class="cls-5" x="411.44" y="380.04" width="15.8" height="2.43" transform="translate(-147.12 363.03) rotate(-40.43)"/><rect class="cls-5" x="400.36" y="367.04" width="15.8" height="2.43" transform="translate(-141.33 352.73) rotate(-40.43)"/><rect class="cls-5" x="406.84" y="376.09" width="7.9" height="2.43" transform="translate(-146.6 356.54) rotate(-40.43)"/><polygon class="cls-7" points="423.2 345.2 428.95 340.3 494.56 417.3 488.81 422.2 482.48 414.77 423.2 345.2"/><polygon class="cls-3" points="394.01 379.51 385.01 400.36 392.59 463.6 415.15 459.9 407.57 396.67 394.01 379.51"/><polyline class="cls-8" points="401.45 388.92 394.01 379.51 389.08 390.95"/><polygon class="cls-8" points="413.54 446.36 413.82 448.73 391.26 452.43 390.98 450.06 413.54 446.36"/><polygon class="cls-8" points="407.59 396.68 414.2 451.82 391.63 455.52 385.03 400.38 407.59 396.68"/><polygon class="cls-2" points="413.46 445.72 415.16 459.9 392.59 463.6 390.89 449.42 413.46 445.72"/><g class="cls-9"><polygon class="cls-5" points="394.01 379.51 403.45 461.82 415.15 459.9 407.57 396.68 394.01 379.51"/></g></g><g class="cls-1"><path class="cls-2" d="M306.66,18.73,326,41.4a1,1,0,0,1-.14,1.38l-36,30.71a1,1,0,0,1-1.38-.08L269.1,50.74Z"/><path class="cls-3" d="M269.1,50.74l-2.48-2.91a1,1,0,0,1,.14-1.38l36-30.71a1,1,0,0,1,1.38.08l2.48,2.91Z"/><rect class="cls-3" x="269.52" y="25.12" width="21.13" height="0.96" transform="translate(50.3 187.77) rotate(-40.43)"/><polygon class="cls-4" points="275.06 30.51 285.74 21.41 289.36 27.2 280.2 35 275.06 30.51"/><rect class="cls-5" x="275.18" y="32.99" width="45.34" height="26.9" transform="translate(41.02 204.26) rotate(-40.43)"/><polygon class="cls-6" points="280.2 35 289.36 27.2 287.34 23.97 279.28 34.2 280.2 35"/><polygon class="cls-2" points="294.27 36.21 304.59 27.41 325.9 52.41 315.57 61.21 313.52 58.8 294.27 36.21"/><rect class="cls-5" x="313.3" y="57.21" width="5.13" height="0.79" transform="translate(38.08 218.62) rotate(-40.43)"/><rect class="cls-5" x="311.81" y="55.93" width="2.57" height="0.79" transform="translate(38.25 216.51) rotate(-40.43)"/><rect class="cls-5" x="309.7" y="52.98" width="5.13" height="0.79" transform="translate(39.96 215.28) rotate(-40.43)"/><rect class="cls-5" x="308.21" y="51.7" width="2.57" height="0.79" transform="translate(40.13 213.17) rotate(-40.43)"/><rect class="cls-5" x="306.11" y="48.76" width="5.13" height="0.79" transform="translate(41.84 211.93) rotate(-40.43)"/><rect class="cls-5" x="304.61" y="47.48" width="2.57" height="0.79" transform="translate(42.01 209.83) rotate(-40.43)"/><rect class="cls-5" x="302.51" y="44.54" width="5.13" height="0.79" transform="translate(43.72 208.59) rotate(-40.43)"/><rect class="cls-5" x="301.02" y="43.26" width="2.57" height="0.79" transform="translate(43.89 206.49) rotate(-40.43)"/><rect class="cls-5" x="298.91" y="40.31" width="5.13" height="0.79" transform="translate(45.6 205.25) rotate(-40.43)"/><rect class="cls-5" x="295.31" y="36.09" width="5.13" height="0.79" transform="translate(47.48 201.91) rotate(-40.43)"/><rect class="cls-5" x="297.42" y="39.03" width="2.57" height="0.79" transform="translate(45.77 203.14) rotate(-40.43)"/><polygon class="cls-7" points="302.73 29 304.59 27.41 325.9 52.41 324.03 54 321.98 51.59 302.73 29"/><polygon class="cls-3" points="293.25 40.14 290.33 46.91 292.79 67.45 300.11 66.25 297.65 45.71 293.25 40.14"/><polyline class="cls-8" points="295.66 43.2 293.25 40.14 291.65 43.85"/><polygon class="cls-8" points="299.59 61.85 299.68 62.62 292.36 63.82 292.26 63.05 299.59 61.85"/><polygon class="cls-8" points="297.66 45.72 299.8 63.62 292.48 64.82 290.33 46.92 297.66 45.72"/><polygon class="cls-2" points="299.56 61.64 300.12 66.25 292.79 67.45 292.24 62.84 299.56 61.64"/><g class="cls-9"><polygon class="cls-5" points="293.25 40.14 296.31 66.87 300.11 66.25 297.65 45.72 293.25 40.14"/></g></g><path class="cls-10" d="M141.15,333V104.21a7.48,7.48,0,0,1,7.35-7.35h346.8a7.48,7.48,0,0,1,7.35,7.35V333Z"/><path class="cls-11" d="M502.64,333v29.35a7.48,7.48,0,0,1-7.35,7.35H148.5a7.48,7.48,0,0,1-7.35-7.35V333Z"/><rect class="cls-11" x="244.52" y="421.64" width="154.76" height="7.35"/><polygon class="cls-12" points="373.3 421.64 270.5 421.64 277.84 369.68 365.95 369.68 373.3 421.64"/><rect class="cls-5" x="155.84" y="111.55" width="332.12" height="206.69"/><polygon class="cls-13" points="365.95 369.68 277.84 369.68 273.74 398.68 367.27 379.01 365.95 369.68"/><polygon class="cls-10" points="293.25 292.55 193.88 292.55 193.88 40.14 293.25 40.14 293.25 64.5 293.25 292.55"/><rect class="cls-5" x="255.67" y="56.71" width="37.59" height="6.08"/><rect class="cls-5" x="274.45" y="78.03" width="18.8" height="6.08"/><rect class="cls-5" x="255.67" y="99.35" width="37.59" height="6.08"/><rect class="cls-5" x="274.45" y="120.67" width="18.8" height="6.08"/><rect class="cls-5" x="255.67" y="141.99" width="37.59" height="6.08"/><rect class="cls-5" x="274.45" y="163.31" width="18.8" height="6.08"/><rect class="cls-5" x="255.67" y="184.63" width="37.59" height="6.08"/><rect class="cls-5" x="274.45" y="205.95" width="18.8" height="6.08"/><rect class="cls-5" x="255.67" y="227.27" width="37.59" height="6.08"/><rect class="cls-5" x="255.67" y="269.9" width="37.59" height="6.08"/><rect class="cls-5" x="274.45" y="248.6" width="18.8" height="6.08"/><polygon class="cls-14" points="211.85 292.55 193.88 292.55 193.88 40.14 211.85 40.14 211.85 64.5 211.85 292.55"/><polygon class="cls-11" points="317.63 274.61 366.08 249.57 449.92 117.21 403.37 87.73 319.54 220.1 317.63 274.61"/><polyline class="cls-15" points="318.68 244.72 317.63 274.61 344.2 260.88"/><rect class="cls-15" x="407.3" y="100.76" width="5.88" height="55.11" transform="translate(82.33 406.23) rotate(-57.65)"/><rect class="cls-15" x="311.04" y="149.52" width="136.63" height="55.11" transform="translate(26.77 402.8) rotate(-57.65)"/><rect class="cls-10" x="399.67" y="89.75" width="35.13" height="55.11" transform="translate(94.88 407.01) rotate(-57.65)"/><g class="cls-9"><polygon class="cls-5" points="317.63 274.61 427.51 103.03 403.37 87.73 319.56 220.07 317.63 274.61"/></g></svg>