<svg id="Layer_1" data-name="Layer 1" xmlns="http://www.w3.org/2000/svg" viewBox="0 0 650.79 512"><defs><style>.cls-1{opacity:0.3;}.cls-2{fill:#424242;}.cls-3{fill:#d9d9d9;}.cls-4{fill:#bebebe;}.cls-5{fill:#fff;}.cls-6{fill:#a2a2a2;}.cls-7{fill:#a5a5a5;}.cls-8{fill:#bcbcbc;}.cls-9{fill:#0040ff;}.cls-10{fill:#cfdce5;}.cls-11{fill:#aec4ce;}.cls-12{fill:#94a7af;}.cls-13{fill:#aac1ce;}</style></defs><title>Zeichenfläche 2 Kopie 2</title><g class="cls-1"><path class="cls-2" d="M505.09,131.72,491.73,85A1.59,1.59,0,0,1,492.81,83l70.91-20.25a1.59,1.59,0,0,1,1.93,1.07L579,110.62Z"/><path class="cls-3" d="M579,110.62l1.72,6a1.59,1.59,0,0,1-1.07,1.93L508.74,138.8a1.59,1.59,0,0,1-1.93-1.07l-1.72-6Z"/><rect class="cls-3" x="530.99" y="139.27" width="32.91" height="1.56" transform="translate(-17.41 155.71) rotate(-15.94)"/><polygon class="cls-4" points="557.74 136.3 536.72 142.3 535.19 131.25 553.2 126.11 557.74 136.3"/><rect class="cls-5" x="499.84" y="75.05" width="70.63" height="43.96" transform="translate(-6.07 150.69) rotate(-15.94)"/><polygon class="cls-6" points="553.2 126.11 535.19 131.25 536.04 137.42 554.02 127.94 553.2 126.11"/><rect class="cls-7" x="511.86" y="99.7" width="2.81" height="7.67" transform="translate(-8.7 144.92) rotate(-15.94)"/><rect class="cls-4" x="507.79" y="104.06" width="2.81" height="4.54" transform="translate(-9.62 143.91) rotate(-15.94)"/><rect class="cls-4" x="515.77" y="94.24" width="2.81" height="11.94" transform="translate(-7.64 145.87) rotate(-15.94)"/><rect class="cls-7" x="519.21" y="85.43" width="2.81" height="19.61" transform="translate(-6.14 146.62) rotate(-15.94)"/><rect class="cls-4" x="524.25" y="88.02" width="2.81" height="15.65" transform="translate(-6.11 148.03) rotate(-15.94)"/><rect class="cls-7" x="529.61" y="92.92" width="2.81" height="9.38" transform="translate(-6.39 149.57) rotate(-15.94)"/><rect class="cls-8" x="509.88" y="111.42" width="26.18" height="1.2" transform="translate(-10.66 147.92) rotate(-15.94)"/><rect class="cls-8" x="511.24" y="116.59" width="20.23" height="1.2" transform="translate(-12.14 147.67) rotate(-15.94)"/><rect class="cls-8" x="540.33" y="102.72" width="26.18" height="1.2" transform="translate(-7.1 155.94) rotate(-15.94)"/><rect class="cls-8" x="541.68" y="107.9" width="20.23" height="1.2" transform="translate(-8.58 155.7) rotate(-15.94)"/><path class="cls-2" d="M545.34,78.27a10.42,10.42,0,1,0,12.88,7.16l-10,2.86Z"/><path class="cls-7" d="M554.49,77l-5.06,9.11,10-2.86h0A10.39,10.39,0,0,0,554.49,77Z"/><path class="cls-3" d="M546.56,76.08l2.86,10L554.48,77A10.38,10.38,0,0,0,546.56,76.08Z"/></g><g class="cls-1"><path class="cls-2" d="M250.61,395.39l-13.36-46.77a1.59,1.59,0,0,1,1.07-1.93l70.91-20.25a1.59,1.59,0,0,1,1.93,1.07l13.36,46.77Z"/><path class="cls-3" d="M324.53,374.28l1.72,6a1.59,1.59,0,0,1-1.07,1.93l-70.91,20.25a1.59,1.59,0,0,1-1.93-1.07l-1.72-6Z"/><rect class="cls-3" x="276.51" y="402.94" width="32.91" height="1.56" transform="translate(-99.6 95.97) rotate(-15.94)"/><polygon class="cls-4" points="303.26 399.97 282.24 405.97 280.7 394.92 298.72 389.77 303.26 399.97"/><rect class="cls-5" x="245.36" y="338.72" width="70.63" height="43.96" transform="translate(-88.26 90.94) rotate(-15.94)"/><polygon class="cls-6" points="298.72 389.77 280.7 394.92 281.56 401.08 299.54 391.6 298.72 389.77"/><rect class="cls-7" x="257.38" y="363.37" width="2.81" height="7.67" transform="translate(-90.89 85.18) rotate(-15.94)"/><rect class="cls-4" x="253.31" y="367.73" width="2.81" height="4.54" transform="translate(-91.81 84.17) rotate(-15.94)"/><rect class="cls-4" x="261.29" y="357.9" width="2.81" height="11.94" transform="translate(-89.82 86.12) rotate(-15.94)"/><rect class="cls-7" x="264.73" y="349.09" width="2.81" height="19.61" transform="translate(-88.32 86.88) rotate(-15.94)"/><rect class="cls-4" x="269.77" y="351.69" width="2.81" height="15.65" transform="translate(-88.3 88.28) rotate(-15.94)"/><rect class="cls-7" x="275.13" y="356.58" width="2.81" height="9.38" transform="translate(-88.58 89.83) rotate(-15.94)"/><rect class="cls-8" x="255.4" y="375.08" width="26.18" height="1.2" transform="translate(-92.84 88.17) rotate(-15.94)"/><rect class="cls-8" x="256.76" y="380.25" width="20.23" height="1.2" transform="translate(-94.32 87.93) rotate(-15.94)"/><rect class="cls-8" x="285.84" y="366.39" width="26.18" height="1.2" transform="translate(-89.28 96.2) rotate(-15.94)"/><rect class="cls-8" x="287.2" y="371.56" width="20.23" height="1.2" transform="translate(-90.77 95.95) rotate(-15.94)"/><path class="cls-2" d="M290.86,341.94a10.42,10.42,0,1,0,12.88,7.16l-10,2.86Z"/><path class="cls-7" d="M300,340.66l-5.06,9.11,10-2.86h0A10.39,10.39,0,0,0,300,340.66Z"/><path class="cls-3" d="M292.08,339.74l2.86,10,5.06-9.11A10.38,10.38,0,0,0,292.08,339.74Z"/></g><g class="cls-1"><path class="cls-2" d="M33.44,341.5,20.08,294.73a1.59,1.59,0,0,1,1.07-1.93l70.91-20.25A1.59,1.59,0,0,1,94,273.62l13.36,46.77Z"/><path class="cls-3" d="M107.36,320.39l1.72,6a1.59,1.59,0,0,1-1.07,1.93L37.09,348.58a1.59,1.59,0,0,1-1.93-1.07l-1.72-6Z"/><rect class="cls-3" x="59.34" y="349.05" width="32.91" height="1.56" transform="translate(-93.15 34.26) rotate(-15.94)"/><polygon class="cls-4" points="86.09 346.08 65.07 352.08 63.54 341.03 81.55 335.88 86.09 346.08"/><rect class="cls-5" x="28.19" y="284.83" width="70.63" height="43.96" transform="translate(-81.81 29.23) rotate(-15.94)"/><polygon class="cls-6" points="81.55 335.88 63.54 341.03 64.39 347.2 82.37 337.71 81.55 335.88"/><rect class="cls-7" x="40.21" y="309.48" width="2.81" height="7.67" transform="translate(-84.44 23.47) rotate(-15.94)"/><rect class="cls-4" x="36.14" y="313.84" width="2.81" height="4.54" transform="translate(-85.36 22.46) rotate(-15.94)"/><rect class="cls-4" x="44.12" y="304.01" width="2.81" height="11.94" transform="translate(-83.37 24.42) rotate(-15.94)"/><rect class="cls-7" x="47.56" y="295.21" width="2.81" height="19.61" transform="translate(-81.87 25.17) rotate(-15.94)"/><rect class="cls-4" x="52.6" y="297.8" width="2.81" height="15.65" transform="translate(-81.85 26.58) rotate(-15.94)"/><rect class="cls-7" x="57.96" y="302.7" width="2.81" height="9.38" transform="translate(-82.13 28.12) rotate(-15.94)"/><rect class="cls-8" x="38.23" y="321.19" width="26.18" height="1.2" transform="translate(-86.39 26.46) rotate(-15.94)"/><rect class="cls-8" x="39.59" y="326.37" width="20.23" height="1.2" transform="translate(-87.88 26.22) rotate(-15.94)"/><rect class="cls-8" x="68.67" y="312.5" width="26.18" height="1.2" transform="translate(-82.83 34.49) rotate(-15.94)"/><rect class="cls-8" x="70.03" y="317.67" width="20.23" height="1.2" transform="translate(-84.32 34.24) rotate(-15.94)"/><path class="cls-2" d="M73.69,288a10.42,10.42,0,1,0,12.88,7.16l-10,2.86Z"/><path class="cls-7" d="M82.83,286.77l-5.06,9.11,10-2.86h0A10.39,10.39,0,0,0,82.83,286.77Z"/><path class="cls-3" d="M74.91,285.86l2.86,10,5.06-9.11A10.38,10.38,0,0,0,74.91,285.86Z"/></g><g class="cls-1"><path class="cls-2" d="M377.42,320.86l60.27-58a2.73,2.73,0,0,1,3.8.07l87.91,91.38a2.73,2.73,0,0,1-.07,3.8l-60.27,58Z"/><path class="cls-3" d="M469.06,416.1l-7.74,7.45a2.73,2.73,0,0,1-3.8-.07L369.61,332.1a2.73,2.73,0,0,1,.07-3.8l7.74-7.45Z"/><rect class="cls-3" x="397.57" y="363.6" width="2.68" height="56.59" transform="translate(-160.26 386.06) rotate(-43.89)"/><polygon class="cls-4" points="412.91 404.5 386.85 377.42 402.4 366.18 424.74 389.4 412.91 404.5"/><rect class="cls-5" x="416.55" y="277.84" width="75.58" height="121.43" transform="translate(-107.8 409.6) rotate(-43.89)"/><polygon class="cls-6" points="424.74 389.4 402.4 366.18 393.72 372.45 422.61 392.11 424.74 389.4"/><rect class="cls-7" x="420.22" y="308.13" width="13.19" height="4.82" transform="translate(-96.07 382.68) rotate(-43.89)"/><rect class="cls-4" x="415.4" y="304.21" width="7.8" height="4.82" transform="translate(-95.45 376.38) rotate(-43.89)"/><rect class="cls-4" x="424.77" y="311.38" width="20.52" height="4.82" transform="translate(-96.03 389.29) rotate(-43.89)"/><rect class="cls-7" x="428.5" y="312.6" width="33.72" height="4.82" transform="translate(-93.99 396.79) rotate(-43.89)"/><rect class="cls-4" x="435.03" y="320.75" width="26.91" height="4.82" transform="translate(-98.76 401.23) rotate(-43.89)"/><rect class="cls-7" x="442.07" y="330.32" width="16.12" height="4.82" transform="translate(-104.93 405.05) rotate(-43.89)"/><rect class="cls-8" x="420.74" y="309.62" width="2.07" height="45.02" transform="translate(-112.44 385.22) rotate(-43.89)"/><rect class="cls-8" x="411.58" y="316.45" width="2.07" height="34.79" transform="translate(-116.19 379.35) rotate(-43.89)"/><rect class="cls-8" x="458.48" y="348.85" width="2.07" height="45.02" transform="translate(-129.09 422.34) rotate(-43.89)"/><rect class="cls-8" x="449.32" y="355.68" width="2.07" height="34.79" transform="translate(-132.84 416.47) rotate(-43.89)"/><path class="cls-2" d="M491,338.9a17.92,17.92,0,1,0-.5,25.34l-12.42-12.91Z"/><path class="cls-7" d="M500.36,351.76l-17.92-.35,12.42,12.91,0,0A17.87,17.87,0,0,0,500.36,351.76Z"/><path class="cls-3" d="M495.36,339l-12.92,12.43,17.92.35A17.84,17.84,0,0,0,495.36,339Z"/></g><g class="cls-1"><path class="cls-2" d="M230.18,101.17l27.26-56.92a2.06,2.06,0,0,1,2.7-1l86.3,41.32a2.06,2.06,0,0,1,1,2.7l-27.26,56.92Z"/><path class="cls-3" d="M320.14,144.24l-3.5,7.31a2.06,2.06,0,0,1-2.7,1l-86.3-41.32a2.06,2.06,0,0,1-1-2.7l3.5-7.31Z"/><rect class="cls-3" x="263.14" y="124.34" width="2.03" height="42.7" transform="translate(18.67 321.02) rotate(-64.41)"/><polygon class="cls-4" points="277.38 150.9 251.8 138.65 259.82 126.59 281.75 137.09 277.38 150.9"/><rect class="cls-5" x="260.71" y="47.52" width="57.03" height="91.63" transform="translate(80.14 313.89) rotate(-64.41)"/><polygon class="cls-6" points="281.75 137.09 259.82 126.59 255.35 133.32 280.96 139.57 281.75 137.09"/><rect class="cls-7" x="257.38" y="79" width="9.95" height="3.64" transform="translate(76.16 282.55) rotate(-64.41)"/><rect class="cls-4" x="253.07" y="78.21" width="5.88" height="3.64" transform="translate(73.26 276.37) rotate(-64.41)"/><rect class="cls-4" x="261.28" y="79.12" width="15.49" height="3.64" transform="translate(79.83 288.63) rotate(-64.41)"/><rect class="cls-7" x="263.93" y="77.25" width="25.44" height="3.64" transform="translate(85.85 294.44) rotate(-64.41)"/><rect class="cls-4" x="270.86" y="82.19" width="20.31" height="3.64" transform="translate(83.88 301.18) rotate(-64.41)"/><rect class="cls-7" x="278.62" y="88.51" width="12.17" height="3.64" transform="translate(80.28 308.11) rotate(-64.41)"/><rect class="cls-8" x="263.73" y="80.42" width="1.56" height="33.97" transform="translate(62.42 293.91) rotate(-64.41)"/><rect class="cls-8" x="257.71" y="87.92" width="1.56" height="26.25" transform="translate(55.72 290.54) rotate(-64.41)"/><rect class="cls-8" x="300.77" y="98.16" width="1.56" height="33.97" transform="translate(67.46 337.4) rotate(-64.41)"/><rect class="cls-8" x="294.75" y="105.66" width="1.56" height="26.25" transform="translate(60.77 334.03) rotate(-64.41)"/><path class="cls-2" d="M315.25,83.87a13.52,13.52,0,1,0,6.35,18l-12.19-5.84Z"/><path class="cls-7" d="M325.24,90.49,312.48,95l12.19,5.84v0A13.48,13.48,0,0,0,325.24,90.49Z"/><path class="cls-3" d="M318.32,82.78,312.48,95l12.76-4.5A13.46,13.46,0,0,0,318.32,82.78Z"/></g><g class="cls-1"><path class="cls-2" d="M526.17,428.72l17.74-37.06a1.34,1.34,0,0,1,1.76-.62l56.18,26.9a1.34,1.34,0,0,1,.62,1.76l-17.74,37.06Z"/><path class="cls-3" d="M584.73,456.76l-2.28,4.76a1.34,1.34,0,0,1-1.76.62l-56.18-26.9a1.34,1.34,0,0,1-.62-1.76l2.28-4.76Z"/><rect class="cls-3" x="547.63" y="443.8" width="1.32" height="27.8" transform="translate(-101.32 754.55) rotate(-64.41)"/><polygon class="cls-4" points="556.9 461.1 540.24 453.12 545.46 445.27 559.74 452.11 556.9 461.1"/><rect class="cls-5" x="546.04" y="393.79" width="37.13" height="59.65" transform="translate(-61.31 749.9) rotate(-64.41)"/><polygon class="cls-6" points="559.74 452.11 545.46 445.27 542.55 449.65 559.23 453.72 559.74 452.11"/><rect class="cls-7" x="543.88" y="414.29" width="6.48" height="2.37" transform="translate(-63.9 729.5) rotate(-64.41)"/><rect class="cls-4" x="541.07" y="413.78" width="3.83" height="2.37" transform="translate(-65.79 725.48) rotate(-64.41)"/><rect class="cls-4" x="546.41" y="414.37" width="10.08" height="2.37" transform="translate(-61.51 733.46) rotate(-64.41)"/><rect class="cls-7" x="548.14" y="413.15" width="16.56" height="2.37" transform="translate(-57.59 737.24) rotate(-64.41)"/><rect class="cls-4" x="552.65" y="416.36" width="13.22" height="2.37" transform="translate(-58.87 741.63) rotate(-64.41)"/><rect class="cls-7" x="557.7" y="420.48" width="7.92" height="2.37" transform="translate(-61.22 746.14) rotate(-64.41)"/><rect class="cls-8" x="548.01" y="415.22" width="1.01" height="22.11" transform="translate(-72.85 736.9) rotate(-64.41)"/><rect class="cls-8" x="544.09" y="420.09" width="1.01" height="17.09" transform="translate(-77.21 734.71) rotate(-64.41)"/><rect class="cls-8" x="572.12" y="426.76" width="1.01" height="22.11" transform="translate(-69.56 765.21) rotate(-64.41)"/><rect class="cls-8" x="568.2" y="431.64" width="1.01" height="17.09" transform="translate(-73.92 763.02) rotate(-64.41)"/><path class="cls-2" d="M581.55,417.46a8.8,8.8,0,1,0,4.13,11.74l-7.94-3.8Z"/><path class="cls-7" d="M588.05,421.77l-8.3,2.93,7.94,3.8h0A8.78,8.78,0,0,0,588.05,421.77Z"/><path class="cls-3" d="M583.55,416.75l-3.8,7.94,8.3-2.93A8.77,8.77,0,0,0,583.55,416.75Z"/></g><g class="cls-1"><path class="cls-2" d="M165.28,352.36,182.13,396a1.53,1.53,0,0,1-.86,1.94l-66.11,25.54a1.53,1.53,0,0,1-1.94-.86L96.37,379Z"/><path class="cls-3" d="M96.37,379l-2.16-5.6a1.53,1.53,0,0,1,.86-1.94l66.11-25.54a1.53,1.53,0,0,1,1.94.86l2.16,5.6Z"/><rect class="cls-3" x="108.21" y="347.31" width="31.63" height="1.5" transform="translate(-117.1 68.09) rotate(-21.12)"/><polygon class="cls-4" points="114.5 352.55 134.09 344.98 136.52 355.43 119.72 361.92 114.5 352.55"/><rect class="cls-5" x="105.58" y="367.05" width="67.88" height="42.25" transform="translate(-130.52 76.37) rotate(-21.12)"/><polygon class="cls-6" points="119.72 361.92 136.52 355.43 135.17 349.6 118.78 360.23 119.72 361.92"/><rect class="cls-7" x="158.57" y="376.36" width="2.7" height="7.37" transform="translate(-126.22 83.17) rotate(-21.12)"/><rect class="cls-4" x="162.22" y="374.84" width="2.7" height="4.36" transform="translate(-124.88 84.28) rotate(-21.12)"/><rect class="cls-4" x="155.11" y="377.84" width="2.7" height="11.47" transform="translate(-127.72 82.16) rotate(-21.12)"/><rect class="cls-7" x="152.25" y="379.21" width="2.7" height="18.85" transform="translate(-129.74 81.47) rotate(-21.12)"/><rect class="cls-4" x="147.38" y="380.96" width="2.7" height="15.04" transform="translate(-130.01 79.7) rotate(-21.12)"/><rect class="cls-7" x="142.09" y="382.76" width="2.7" height="9.01" transform="translate(-129.93 77.72) rotate(-21.12)"/><rect class="cls-8" x="137.3" y="372.2" width="25.16" height="1.15" transform="translate(-124.27 79.06) rotate(-21.12)"/><rect class="cls-8" x="141.26" y="367.11" width="19.45" height="1.15" transform="translate(-122.36 79.12) rotate(-21.12)"/><rect class="cls-8" x="108.92" y="383.16" width="25.16" height="1.15" transform="translate(-130.13 69.57) rotate(-21.12)"/><rect class="cls-8" x="112.87" y="378.07" width="19.45" height="1.15" transform="translate(-128.22 69.63) rotate(-21.12)"/><path class="cls-2" d="M131.41,407a10,10,0,1,0-13-5.74l9.34-3.61Z"/><path class="cls-7" d="M122.76,409l4.06-9.16-9.34,3.61h0A10,10,0,0,0,122.76,409Z"/><path class="cls-3" d="M130.43,409.22l-3.61-9.35L122.76,409A10,10,0,0,0,130.43,409.22Z"/></g><g class="cls-1"><path class="cls-2" d="M617.07,183.5l26.05,67.43a2.36,2.36,0,0,1-1.33,3l-102.23,39.5a2.36,2.36,0,0,1-3-1.33l-26.05-67.43Z"/><path class="cls-3" d="M510.51,224.67,507.17,216a2.36,2.36,0,0,1,1.33-3l102.23-39.5a2.36,2.36,0,0,1,3,1.33l3.35,8.66Z"/><rect class="cls-3" x="528.82" y="175.7" width="48.91" height="2.32" transform="translate(-26.56 211.28) rotate(-21.12)"/><polygon class="cls-4" points="538.54 183.8 568.85 172.09 572.6 188.25 546.63 198.28 538.54 183.8"/><rect class="cls-5" x="524.76" y="206.22" width="104.96" height="65.33" transform="translate(-47.3 224.08) rotate(-21.12)"/><polygon class="cls-6" points="546.63 198.28 572.6 188.25 570.51 179.23 545.17 195.68 546.63 198.28"/><rect class="cls-7" x="606.69" y="220.61" width="4.17" height="11.4" transform="translate(-40.65 234.6) rotate(-21.12)"/><rect class="cls-4" x="612.33" y="218.27" width="4.17" height="6.74" transform="translate(-38.59 236.32) rotate(-21.12)"/><rect class="cls-4" x="601.35" y="222.9" width="4.17" height="17.74" transform="translate(-42.98 233.04) rotate(-21.12)"/><rect class="cls-7" x="596.92" y="225.03" width="4.17" height="29.14" transform="translate(-46.1 231.98) rotate(-21.12)"/><rect class="cls-4" x="589.38" y="227.73" width="4.17" height="23.26" transform="translate(-46.52 229.24) rotate(-21.12)"/><rect class="cls-7" x="581.21" y="230.51" width="4.17" height="13.94" transform="translate(-46.39 226.17) rotate(-21.12)"/><rect class="cls-8" x="573.8" y="214.18" width="38.91" height="1.78" transform="translate(-37.64 228.25) rotate(-21.12)"/><rect class="cls-8" x="579.92" y="206.31" width="30.07" height="1.78" transform="translate(-34.69 228.34) rotate(-21.12)"/><rect class="cls-8" x="529.92" y="231.14" width="38.91" height="1.78" transform="translate(-46.7 213.58) rotate(-21.12)"/><rect class="cls-8" x="536.03" y="223.26" width="30.07" height="1.78" transform="translate(-43.75 213.66) rotate(-21.12)"/><path class="cls-2" d="M564.69,268a15.48,15.48,0,1,0-20-8.87l14.44-5.58Z"/><path class="cls-7" d="M551.33,271.14,557.6,257l-14.44,5.58v0A15.44,15.44,0,0,0,551.33,271.14Z"/><path class="cls-3" d="M563.18,271.43,557.6,257l-6.27,14.17A15.42,15.42,0,0,0,563.18,271.43Z"/></g><g class="cls-1"><path class="cls-2" d="M49.72,204.64,31.28,173.55a1.18,1.18,0,0,1,.41-1.59l47.14-28a1.18,1.18,0,0,1,1.59.41l18.45,31.09Z"/><path class="cls-3" d="M98.86,175.49l2.37,4a1.18,1.18,0,0,1-.41,1.59L53.68,209a1.18,1.18,0,0,1-1.59-.41l-2.37-4Z"/><rect class="cls-3" x="69.51" y="202.04" width="24.46" height="1.16" transform="translate(-91.94 70.07) rotate(-30.68)"/><polygon class="cls-4" points="88.43 197.98 74.46 206.27 71.26 198.61 83.24 191.5 88.43 197.98"/><rect class="cls-5" x="38.53" y="157.68" width="52.49" height="32.67" transform="translate(-79.73 57.41) rotate(-30.68)"/><polygon class="cls-6" points="83.24 191.5 71.26 198.61 73.05 202.88 84.17 192.67 83.24 191.5"/><rect class="cls-7" x="49.22" y="179.99" width="2.09" height="5.7" transform="translate(-86.26 51.24) rotate(-30.68)"/><rect class="cls-4" x="46.83" y="183.93" width="2.09" height="3.37" transform="translate(-88.01 50.4) rotate(-30.68)"/><rect class="cls-4" x="51.4" y="175.27" width="2.09" height="8.87" transform="translate(-84.35 51.91) rotate(-30.68)"/><rect class="cls-7" x="52.93" y="168.19" width="2.09" height="14.57" transform="translate(-81.98 52.1) rotate(-30.68)"/><rect class="cls-4" x="56.67" y="169.15" width="2.09" height="11.63" transform="translate(-81.2 53.94) rotate(-30.68)"/><rect class="cls-7" x="60.86" y="171.73" width="2.09" height="6.97" transform="translate(-80.74 56.11) rotate(-30.68)"/><rect class="cls-8" x="49.12" y="186.65" width="19.46" height="0.89" transform="translate(-87.23 56.21) rotate(-30.68)"/><rect class="cls-8" x="51.15" y="190.67" width="15.04" height="0.89" transform="translate(-89.3 56.68) rotate(-30.68)"/><rect class="cls-8" x="69.36" y="174.64" width="19.46" height="0.89" transform="translate(-78.27 64.86) rotate(-30.68)"/><rect class="cls-8" x="71.38" y="178.67" width="15.04" height="0.89" transform="translate(-80.35 65.33) rotate(-30.68)"/><path class="cls-2" d="M68.54,158.61a7.74,7.74,0,1,0,10.61,2.71l-6.66,4Z"/><path class="cls-7" d="M74.87,156,73,163.47l6.66-4h0A7.72,7.72,0,0,0,74.87,156Z"/><path class="cls-3" d="M69,156.8l4,6.67L74.87,156A7.71,7.71,0,0,0,69,156.8Z"/></g><g class="cls-1"><path class="cls-2" d="M125.79,220.38l20.4,15.41a.84.84,0,0,1,.16,1.15L123,267.86a.84.84,0,0,1-1.15.16l-20.4-15.41Z"/><path class="cls-3" d="M101.45,252.61l-2.62-2a.84.84,0,0,1-.16-1.15L122,218.56a.84.84,0,0,1,1.15-.16l2.62,2Z"/><rect class="cls-3" x="96.74" y="229.86" width="17.29" height="0.82" transform="translate(-141.88 175.6) rotate(-52.94)"/><polygon class="cls-4" points="102.25 235.1 109.17 225.94 113.31 230.09 107.38 237.95 102.25 235.1"/><rect class="cls-5" x="105.59" y="232.89" width="37.11" height="23.1" transform="translate(-145.74 196.2) rotate(-52.94)"/><polygon class="cls-6" points="107.38 237.95 113.31 230.09 111 227.77 106.46 237.44 107.38 237.95"/><rect class="cls-7" x="130.54" y="232.77" width="1.47" height="4.03" transform="translate(-135.2 198.05) rotate(-52.94)"/><rect class="cls-4" x="131.37" y="231.14" width="1.47" height="2.38" transform="translate(-132.91 197.73) rotate(-52.94)"/><rect class="cls-4" x="129.96" y="234.29" width="1.47" height="6.27" transform="translate(-137.53 198.63) rotate(-52.94)"/><rect class="cls-7" x="130.08" y="235.45" width="1.47" height="10.3" transform="translate(-140.02 199.99) rotate(-52.94)"/><rect class="cls-4" x="127.77" y="237.82" width="1.47" height="8.22" transform="translate(-142 198.68) rotate(-52.94)"/><rect class="cls-7" x="124.97" y="240.43" width="1.47" height="4.93" transform="translate(-143.88 196.82) rotate(-52.94)"/><rect class="cls-8" x="117.64" y="233.99" width="13.76" height="0.63" transform="translate(-137.5 192.47) rotate(-52.94)"/><rect class="cls-8" x="118.25" y="231.3" width="10.63" height="0.63" transform="translate(-135.74 190.64) rotate(-52.94)"/><rect class="cls-8" x="107.62" y="247.26" width="13.76" height="0.63" transform="translate(-152.07 189.74) rotate(-52.94)"/><rect class="cls-8" x="108.22" y="244.58" width="10.63" height="0.63" transform="translate(-150.31 187.91) rotate(-52.94)"/><path class="cls-2" d="M125.81,255.54a5.48,5.48,0,1,0-7.67,1.07l3.3-4.37Z"/><path class="cls-7" d="M122.38,259l-.76-5.43-3.3,4.37h0A5.46,5.46,0,0,0,122.38,259Z"/><path class="cls-3" d="M126,256.84l-4.37-3.3.76,5.43A5.45,5.45,0,0,0,126,256.84Z"/></g><g class="cls-1"><path class="cls-2" d="M182.21,467.26,193,439.11a1,1,0,0,1,1.29-.54L239,455.76a1,1,0,0,1,.6,1.27l-10.84,28.15Z"/><path class="cls-3" d="M228.74,485.17l-1.39,3.61a1,1,0,0,1-1.29.54l-44.65-17.19a1,1,0,0,1-.6-1.27l1.39-3.61Z"/><rect class="cls-3" x="200.62" y="476.9" width="0.97" height="21.35" transform="translate(-326.17 500.07) rotate(-68.94)"/><polygon class="cls-4" points="207.89 489.67 194.66 484.58 198.06 478.55 209.41 482.92 207.89 489.67"/><rect class="cls-5" x="197.44" y="438.78" width="27.26" height="45.82" transform="translate(-295.63 492.79) rotate(-68.94)"/><polygon class="cls-6" points="209.41 482.92 198.06 478.55 196.16 481.91 209.14 484.13 209.41 482.92"/><rect class="cls-7" x="194.81" y="455.6" width="4.76" height="1.82" transform="translate(-299.68 476.51) rotate(-68.94)"/><rect class="cls-4" x="192.6" y="455.41" width="2.81" height="1.82" transform="translate(-301.55 473.43) rotate(-68.94)"/><rect class="cls-4" x="196.79" y="455.45" width="7.4" height="1.82" transform="translate(-297.43 479.5) rotate(-68.94)"/><rect class="cls-7" x="198.1" y="454.32" width="12.16" height="1.82" transform="translate(-294.02 482.22) rotate(-68.94)"/><rect class="cls-4" x="201.71" y="456.56" width="9.7" height="1.82" transform="translate(-294.57 485.88) rotate(-68.94)"/><rect class="cls-7" x="205.78" y="459.48" width="5.81" height="1.82" transform="translate(-295.93 489.73) rotate(-68.94)"/><rect class="cls-8" x="198.65" y="455.91" width="0.74" height="16.98" transform="translate(-305.88 483.28) rotate(-68.94)"/><rect class="cls-8" x="195.84" y="459.77" width="0.74" height="13.13" transform="translate(-309.48 481.9) rotate(-68.94)"/><rect class="cls-8" x="217.81" y="463.29" width="0.74" height="16.98" transform="translate(-300.48 505.9) rotate(-68.94)"/><rect class="cls-8" x="215" y="467.14" width="0.74" height="13.13" transform="translate(-304.08 504.51) rotate(-68.94)"/><path class="cls-2" d="M223.51,456.35a6.47,6.47,0,1,0,4,8.46l-6.31-2.43Z"/><path class="cls-7" d="M228.76,459.22l-6.1,2.55L229,464.2h0A6.3,6.3,0,0,0,228.76,459.22Z"/><path class="cls-3" d="M225,455.74l-2.32,6,6.1-2.55A6.89,6.89,0,0,0,225,455.74Z"/></g><g class="cls-1"><path class="cls-2" d="M564.47,326.47l22.77-10.11a.81.81,0,0,1,1.06.41l15.33,34.52a.81.81,0,0,1-.41,1.06l-22.77,10.11Z"/><path class="cls-3" d="M580.44,362.46l-2.92,1.3a.81.81,0,0,1-1.06-.41l-15.33-34.52a.81.81,0,0,1,.41-1.06l2.92-1.3Z"/><rect class="cls-3" x="562.86" y="340.12" width="0.8" height="16.85" transform="translate(-92.98 258.59) rotate(-23.94)"/><polygon class="cls-4" points="565.9 353.5 561.36 343.27 566.86 341.7 570.75 350.47 565.9 353.5"/><rect class="cls-5" x="572.95" y="321.16" width="22.51" height="36.17" transform="translate(-87.41 266.29) rotate(-23.94)"/><polygon class="cls-6" points="570.75 350.47 566.86 341.7 563.79 342.58 569.88 351.02 570.75 350.47"/><rect class="cls-7" x="577.38" y="327.89" width="3.93" height="1.44" transform="translate(-83.51 263.4) rotate(-23.94)"/><rect class="cls-4" x="576.48" y="326.03" width="2.32" height="1.44" transform="translate(-82.9 262.55) rotate(-23.94)"/><rect class="cls-4" x="578.26" y="329.63" width="6.11" height="1.44" transform="translate(-84.04 264.35) rotate(-23.94)"/><rect class="cls-7" x="579.06" y="331.02" width="10.04" height="1.44" transform="translate(-84.37 265.59) rotate(-23.94)"/><rect class="cls-4" x="580.12" y="333.62" width="8.02" height="1.44" transform="translate(-85.42 265.84) rotate(-23.94)"/><rect class="cls-7" x="581.22" y="336.47" width="4.8" height="1.44" transform="translate(-86.62 265.87) rotate(-23.94)"/><rect class="cls-8" x="575.43" y="327.43" width="0.62" height="13.41" transform="translate(-86.06 262.41) rotate(-23.94)"/><rect class="cls-8" x="572.69" y="328.51" width="0.62" height="10.36" transform="translate(-86.11 261.26) rotate(-23.94)"/><rect class="cls-8" x="582.01" y="342.25" width="0.62" height="13.41" transform="translate(-91.51 266.36) rotate(-23.94)"/><rect class="cls-8" x="579.27" y="343.32" width="0.62" height="10.36" transform="translate(-91.56 265.21) rotate(-23.94)"/><path class="cls-2" d="M594.45,343.07a5.34,5.34,0,1,0-2.71,7l-2.17-4.88Z"/><path class="cls-7" d="M595.75,347.62l-5-1.92,2.17,4.88h0A5.32,5.32,0,0,0,595.75,347.62Z"/><path class="cls-3" d="M595.65,343.53l-4.88,2.17,5,1.92A5.31,5.31,0,0,0,595.65,343.53Z"/></g><path class="cls-9" d="M141.16,331.59V102.84a7.48,7.48,0,0,1,7.34-7.34H495.3a7.48,7.48,0,0,1,7.34,7.34V331.59Z"/><path class="cls-10" d="M502.64,331.59V361a7.48,7.48,0,0,1-7.34,7.34H148.5a7.48,7.48,0,0,1-7.34-7.34V331.59Z"/><rect class="cls-10" x="244.52" y="420.27" width="154.76" height="7.34"/><polygon class="cls-11" points="373.3 420.27 270.5 420.27 277.84 368.31 365.96 368.31 373.3 420.27"/><rect class="cls-5" x="155.84" y="110.18" width="332.12" height="206.73"/><polygon class="cls-12" points="365.96 368.31 277.84 368.31 273.74 397.31 367.28 377.64 365.96 368.31"/><rect class="cls-7" x="207.89" y="196.65" width="13.19" height="36.08"/><rect class="cls-11" x="185.9" y="211.4" width="13.19" height="21.33"/><rect class="cls-11" x="229.87" y="176.6" width="13.19" height="56.13"/><rect class="cls-7" x="251.86" y="140.52" width="13.19" height="92.21"/><rect class="cls-11" x="273.84" y="159.12" width="13.19" height="73.6"/><rect class="cls-7" x="295.83" y="188.75" width="13.19" height="44.1"/><rect class="cls-13" x="185.91" y="262.74" width="123.12" height="5.65"/><rect class="cls-13" x="185.91" y="284.04" width="95.14" height="5.65"/><rect class="cls-13" x="334.78" y="262.74" width="123.12" height="5.65"/><rect class="cls-13" x="334.78" y="284.04" width="95.14" height="5.65"/><path class="cls-9" d="M392.16,141.86a49,49,0,1,0,49,49h-49Z"/><path class="cls-7" d="M435.17,147.88l-34.66,34.66h49v-.06A48.87,48.87,0,0,0,435.17,147.88Z"/><path class="cls-10" d="M400.51,133.51v49l34.66-34.66A48.8,48.8,0,0,0,400.51,133.51Z"/></svg>